<svg width="16" height="15" viewBox="0 0 16 15" fill="none" xmlns="http://www.w3.org/2000/svg">
<path fill-rule="evenodd" clip-rule="evenodd" d="M11.6572 12.1178L13.2582 12.7582L12.6178 11.1571L13.0324 10.4523C13.5411 9.58765 13.8333 8.58048 13.8333 7.49998C13.8333 4.27832 11.2217 1.66665 8 1.66665C4.77834 1.66665 2.16667 4.27832 2.16667 7.49998C2.16667 10.7216 4.77834 13.3333 8 13.3333C9.08049 13.3333 10.0877 13.0411 10.9523 12.5324L11.6572 12.1178ZM13.8576 14.2567C13.8575 14.2564 13.8574 14.2561 13.8573 14.2558L13.8576 14.2567ZM14.469 11.2974C15.1242 10.1836 15.5 8.88568 15.5 7.49998C15.5 3.35785 12.1421 -1.52588e-05 8 -1.52588e-05C3.85786 -1.52588e-05 0.5 3.35785 0.5 7.49998C0.5 11.6421 3.85786 15 8 15C9.3857 15 10.6836 14.6242 11.7974 13.969L14.1377 14.9051C14.9336 15.2234 15.7234 14.4336 15.4051 13.6377L14.469 11.2974Z" fill="#6B7476"/>
</svg>
