<svg width="23" height="23" viewBox="0 0 23 23" fill="none" xmlns="http://www.w3.org/2000/svg">
<path d="M2.34819 0.601811C1.95404 0.695264 1.58494 0.871967 1.26615 1.1198C0.947367 1.36764 0.686425 1.68076 0.501189 2.03774C0.256803 2.53422 0.183393 3.09632 0.292189 3.63804C0.384151 4.12523 0.612893 4.57691 0.952189 4.94127C1.30802 5.32942 1.77474 5.60108 2.29029 5.72016C2.80583 5.83923 3.34577 5.80007 3.83829 5.60785C4.3308 5.41564 4.75255 5.0795 5.04746 4.64413C5.34236 4.20877 5.49643 3.69483 5.48919 3.17064C5.49386 2.78374 5.41095 2.40069 5.24655 2.04968C5.08215 1.69866 4.84044 1.38858 4.53918 1.1422C4.23791 0.895808 3.88473 0.719377 3.50558 0.625867C3.12644 0.532357 2.73096 0.524131 2.34819 0.601811Z" fill="#A70032"/>
<path d="M15.6387 7.55666C15.3867 7.61013 15.0637 7.69532 14.9137 7.74285C13.9873 8.07049 13.1888 8.67895 12.6317 9.48178L12.4167 9.80067L12.4057 8.80147L12.3897 7.79631L10.2047 7.78048L8.01367 7.76957V22.3397H12.5777V18.4419C12.5777 14.56 12.6047 13.9272 12.7707 13.2736C12.847 12.9236 13 12.5945 13.2189 12.3096C13.4379 12.0246 13.7174 11.7909 14.0377 11.6248C14.7437 11.3466 15.525 11.3183 16.2497 11.5446C16.5647 11.6798 16.8418 11.889 17.0569 12.154C17.2721 12.419 17.4189 12.7319 17.4847 13.0656C17.6457 13.6875 17.6777 14.5511 17.6777 18.4132V22.2842H22.2417V18.0408C22.3474 15.908 22.2738 13.7702 22.0217 11.6495C21.5817 9.17379 20.3137 7.86861 18.0157 7.52895C17.2262 7.42289 16.4254 7.43222 15.6387 7.55666Z" fill="#A70032"/>
<path d="M0.603516 15.0543V22.3389H5.16751V7.76978H0.603516V15.0543Z" fill="#A70032"/>
</svg>
