<svg width="23" height="22" viewBox="0 0 23 22" fill="none" xmlns="http://www.w3.org/2000/svg">
<path d="M12.2308 7.72117C12.2068 16.3169 12.2308 15.6355 11.8308 16.3634C11.4716 17.0085 10.9029 17.5145 10.2168 17.7993C9.71312 18.0404 9.1567 18.1534 8.59783 18.1281C8.0563 18.1526 7.51695 18.0455 7.02683 17.8161C6.33241 17.5245 5.75479 17.0138 5.38383 16.3634C5.13021 15.9461 5.00768 15.4635 5.03183 14.977C5.00164 14.4645 5.13682 13.9557 5.41783 13.5242C5.57448 13.2203 5.79714 12.9545 6.06983 12.7459C6.50224 12.3506 7.02745 12.0684 7.59783 11.9249C8.15156 11.7952 8.72536 11.7723 9.28783 11.8576C9.48783 11.8952 9.67383 11.9249 9.70683 11.9249C9.7923 11.341 9.81142 10.7494 9.76383 10.1612V8.39356L9.53983 8.35989C9.41083 8.34305 8.96883 8.33018 8.54983 8.33018C7.43306 8.31348 6.32572 8.53469 5.30283 8.97882C1.12283 10.7554 -0.297171 15.2553 2.25083 18.6529C2.82831 19.3612 3.51631 19.9737 4.28883 20.4671C5.28489 21.0462 6.38926 21.419 7.53507 21.563C8.68088 21.707 9.84429 21.6192 10.9548 21.3049C11.9597 21.0299 12.8957 20.5506 13.7032 19.8976C14.5107 19.2446 15.1719 18.4322 15.6448 17.5121C15.8608 17.0364 16.0221 16.5381 16.1258 16.0267C16.2522 14.4821 16.2759 12.9309 16.1968 11.3832C16.1868 9.06399 16.1968 7.16561 16.2158 7.16561C16.2907 7.19669 16.361 7.23765 16.4248 7.2874C17.1887 7.76932 18.0087 8.15803 18.8668 8.44505C19.8657 8.76124 20.9038 8.93986 21.9518 8.97586H22.3798L22.3698 7.2369L22.3558 5.5029L21.8938 5.47716C20.459 5.40248 19.0923 4.8473 18.0178 3.9026C16.9818 3.03447 16.3321 1.79777 16.2088 0.459387L16.1778 0.0959473H12.2498L12.2308 7.72117Z" fill="#A70032"/>
</svg>
