<svg width="18" height="16" viewBox="0 0 18 16" fill="#A70032" xmlns="http://www.w3.org/2000/svg">
<path d="M1.98706 2.1537C0.226542 3.91422 0.226542 6.76858 1.98706 8.5291L8.14995 14.692C8.61942 15.1615 9.38058 15.1615 9.85006 14.692L16.0129 8.5291C17.7735 6.76858 17.7735 3.91422 16.0129 2.1537C14.2524 0.393183 11.3981 0.393183 9.63755 2.1537L9.00001 2.79124L8.36246 2.1537C6.60194 0.393183 3.74758 0.393183 1.98706 2.1537ZM3.80312 7.98813L9 13.185L14.1969 7.98813L14.8344 7.35058C15.9441 6.24095 15.9441 4.44186 14.8344 3.33221C13.7248 2.22257 11.9257 2.22257 10.8161 3.33221L9.00001 5.14827L7.18395 3.33221C6.07431 2.22257 4.27522 2.22257 3.16557 3.33221C2.05593 4.44186 2.05593 6.24094 3.16557 7.35059C3.16557 7.35059 3.16556 7.35058 3.16557 7.35059L3.80312 7.98813Z" fill="#A70032"/>
</svg>
