<svg width="22" height="19" viewBox="0 0 22 19" fill="none" xmlns="http://www.w3.org/2000/svg">
<path d="M15.6518 0.685547C18.7218 0.685547 21.2098 3.0075 21.2098 6.25879C21.2098 12.7604 13.6318 16.4759 11.1098 17.8695C8.57782 16.4759 0.99982 12.7604 0.99982 6.25879C0.955495 5.55501 1.0652 4.85022 1.32245 4.18611C1.5797 3.52201 1.97925 2.91208 2.49748 2.39244C3.01571 1.87279 3.64207 1.45398 4.33949 1.1608C5.03692 0.86761 5.79124 0.706006 6.55782 0.685547C8.2753 0.745151 9.90186 1.41043 11.0998 2.54329C12.3003 1.40828 13.9308 0.742813 15.6518 0.685547ZM12.0518 15.1789C12.8977 14.6937 13.7139 14.1662 14.4968 13.5988C17.5088 11.3972 19.1918 8.99163 19.1918 6.25787C19.1918 4.06552 17.6388 2.54237 15.6548 2.54237C14.47 2.59889 13.3533 3.06906 12.5328 3.85686L11.0998 5.16951L9.67582 3.85686C8.85619 3.07025 7.74113 2.60048 6.55782 2.54329C4.59782 2.54329 3.02082 4.08115 3.02082 6.25879C3.02082 8.99347 4.70382 11.3982 7.71482 13.5997C8.49804 14.1669 9.3146 14.6941 10.1608 15.1789C10.4608 15.3545 10.7608 15.5227 11.1048 15.7102C11.4478 15.5264 11.7468 15.3545 12.0488 15.1798L12.0518 15.1789Z" fill="#A70032" stroke="white" stroke-width="0.5"/>
</svg>
