<svg width="14" height="9" viewBox="0 0 14 9" fill="none" xmlns="http://www.w3.org/2000/svg">
<path d="M6.86009 6.15056L12.0451 0.324556C12.1295 0.22299 12.2353 0.14126 12.3549 0.0851688C12.4745 0.0290777 12.605 0 12.7371 0C12.8692 0 12.9997 0.0290777 13.1193 0.0851688C13.2388 0.14126 13.3446 0.22299 13.4291 0.324556C13.613 0.542641 13.7139 0.818753 13.7139 1.10406C13.7139 1.38936 13.613 1.66547 13.4291 1.88356L7.55409 8.48356C7.47192 8.58152 7.36982 8.66086 7.25459 8.71628C7.13936 8.7717 7.01365 8.80193 6.88582 8.80496C6.75799 8.80799 6.63099 8.78374 6.51326 8.73384C6.39554 8.68394 6.2898 8.60952 6.20309 8.51556L0.286085 1.88356C0.101385 1.66582 0 1.38958 0 1.10406C0 0.818535 0.101385 0.54229 0.286085 0.324556C0.370544 0.22299 0.476326 0.14126 0.59592 0.0851688C0.715515 0.0290777 0.84599 0 0.978085 0C1.11018 0 1.24066 0.0290777 1.36025 0.0851688C1.47984 0.14126 1.58563 0.22299 1.67008 0.324556L6.86009 6.15056Z" fill="#A70032"/>
</svg>
