<svg width="23" height="22" viewBox="0 0 23 22" fill="none" xmlns="http://www.w3.org/2000/svg">
<path d="M7.46286 0.118662C6.39179 0.117177 5.32965 0.311571 4.32986 0.692048C3.67061 0.951294 3.07446 1.3462 2.58086 1.85067C1.8351 2.58406 1.31315 3.51075 1.07486 4.52445C0.814859 5.50484 0.755859 6.62979 0.755859 10.7127C0.755859 14.7284 0.810859 15.8622 1.05586 16.8466C1.32104 18.012 1.95506 19.0632 2.86557 19.847C3.77608 20.6307 4.91551 21.1061 6.11786 21.2038C7.91426 21.342 9.71653 21.3906 11.5179 21.3494C14.3489 21.3494 15.9799 21.3078 16.7179 21.2207C18.0619 21.1129 19.3301 20.56 20.3179 19.6511C21.381 18.6194 22.022 17.2352 22.1179 15.7642C22.1979 15.0997 22.1979 6.23766 22.1179 5.60981C22.013 4.48959 21.6171 3.41528 20.9689 2.49138C20.5828 2.01137 20.1343 1.58415 19.6349 1.22086C18.6081 0.579798 17.4296 0.216184 16.2169 0.1662C15.5359 0.101831 8.60786 0.073109 7.46286 0.118662ZM16.5339 2.12498C17.4772 2.18617 18.3677 2.57795 19.0459 3.23014C19.4376 3.60304 19.7314 4.06503 19.9019 4.57595C20.2459 5.53158 20.2789 6.03761 20.2789 10.7306C20.2789 13.4341 20.2619 14.7343 20.2239 15.17C20.2419 16.2489 19.8533 17.2958 19.1339 18.1062C18.348 18.8888 17.2833 19.3347 16.1689 19.348C15.4269 19.4184 9.29086 19.4471 7.87786 19.3936C7.24086 19.3688 6.57786 19.3273 6.39286 19.3025C5.66578 19.2175 4.96833 18.9674 4.35486 18.5717C3.98849 18.2777 3.66773 17.932 3.40286 17.5457C3.00491 16.7922 2.78826 15.9578 2.76986 15.1077C2.64386 13.2261 2.68586 6.7516 2.82886 5.68011C2.90001 4.74013 3.31075 3.85702 3.98586 3.19252C4.85281 2.44291 5.97231 2.04287 7.12286 2.07152C7.44186 2.05469 9.58486 2.04278 11.8909 2.0507C15.4689 2.05763 16.1569 2.06656 16.5339 2.12102V2.12498Z" fill="#A70032"/>
<path d="M16.6589 3.89765C16.4385 3.99456 16.2533 4.15585 16.1282 4.35994C16.0031 4.56403 15.944 4.80113 15.9589 5.03944C15.9469 5.20537 15.9732 5.37181 16.0358 5.52621C16.0983 5.6806 16.1954 5.8189 16.3198 5.93069C16.4333 6.05314 16.5731 6.14885 16.7288 6.21072C16.8846 6.27259 17.0524 6.29906 17.2198 6.2882C17.4188 6.30643 17.6189 6.26612 17.7948 6.17234C17.9983 6.07846 18.1714 5.93056 18.2949 5.74507C18.4185 5.55957 18.4877 5.34375 18.4949 5.12164C18.5201 4.9417 18.4999 4.75839 18.4362 4.58802C18.3726 4.41766 18.2673 4.26553 18.1298 4.14522C18.0135 4.01839 17.8696 3.91928 17.7091 3.85531C17.5486 3.79134 17.3755 3.76416 17.2028 3.77583C17.0136 3.76528 16.8251 3.80749 16.6589 3.89765Z" fill="#A70032"/>
<path d="M10.5121 5.33423C9.40868 5.53298 8.3951 6.06704 7.61212 6.86225C7.0891 7.3578 6.67554 7.95536 6.39757 8.61722C6.11959 9.27908 5.98324 9.99084 5.99712 10.7075C5.98027 11.5472 6.17043 12.3783 6.55112 13.1288C7.10911 14.2435 8.035 15.136 9.17534 15.6583C10.3157 16.1806 11.602 16.3014 12.8211 16.0006C13.7677 15.7803 14.6335 15.3029 15.3211 14.6221C15.9626 14.0245 16.4437 13.2782 16.7211 12.4504C16.9167 11.8899 17.0105 11.2995 16.9981 10.7065C17.0105 10.1178 16.9181 9.53151 16.7251 8.97452C16.4719 8.20153 16.0381 7.49856 15.4591 6.92266C14.6527 6.08907 13.5997 5.53074 12.4521 5.32828C11.8078 5.24833 11.1559 5.25033 10.5121 5.33423ZM12.1731 7.23656C13.1016 7.41938 13.9195 7.95796 14.449 8.73505C14.9784 9.51214 15.1765 10.4649 15.0001 11.3859C14.8817 11.9655 14.6202 12.5071 14.239 12.9623C13.8577 13.4174 13.3685 13.772 12.8151 13.9943C12.3527 14.1906 11.8483 14.2706 11.3471 14.227C11.0419 14.231 10.738 14.1861 10.4471 14.0943C9.8302 13.906 9.27611 13.5561 8.84344 13.0816C8.41078 12.6071 8.1156 12.0257 7.98912 11.3987C7.89178 10.8232 7.92181 10.2336 8.07713 9.6707C8.26946 9.0652 8.62081 8.52119 9.09523 8.09436C9.56965 7.66753 10.1501 7.3732 10.7771 7.24152C11.2389 7.16704 11.7097 7.16506 12.1721 7.2356L12.1731 7.23656Z" fill="#A70032"/>
</svg>
