<svg width="21" height="19" viewBox="0 0 21 19" fill="none" xmlns="http://www.w3.org/2000/svg">
<path d="M19.4722 1.79389H8.24015C8.07216 1.29026 7.74998 0.852239 7.31925 0.541855C6.88852 0.231471 6.37107 0.0644531 5.84016 0.0644531C5.30925 0.0644531 4.79178 0.231471 4.36105 0.541855C3.93032 0.852239 3.60815 1.29026 3.44016 1.79389H1.52815C1.31452 1.79389 1.10964 1.87876 0.95858 2.02982C0.807519 2.18088 0.722656 2.38576 0.722656 2.5994C0.722656 2.81303 0.807519 3.01791 0.95858 3.16897C1.10964 3.32003 1.31452 3.40489 1.52815 3.40489H3.44315C3.61115 3.90852 3.93332 4.34654 4.36405 4.65693C4.79478 4.96731 5.31224 5.13433 5.84315 5.13433C6.37407 5.13433 6.89153 4.96731 7.32226 4.65693C7.75299 4.34654 8.07516 3.90852 8.24316 3.40489H19.4732C19.6868 3.40489 19.8917 3.32003 20.0427 3.16897C20.1938 3.01791 20.2787 2.81303 20.2787 2.5994C20.2787 2.38576 20.1938 2.18088 20.0427 2.02982C19.8917 1.87876 19.6868 1.79389 19.4732 1.79389H19.4722ZM5.84116 3.51889C5.6592 3.51889 5.48133 3.46494 5.33003 3.36385C5.17874 3.26275 5.06082 3.11907 4.99119 2.95097C4.92156 2.78286 4.90334 2.59787 4.93884 2.41941C4.97433 2.24095 5.06195 2.07702 5.19061 1.94836C5.31928 1.81969 5.48321 1.73207 5.66167 1.69657C5.84014 1.66107 6.02511 1.67929 6.19322 1.74892C6.36133 1.81856 6.50502 1.93648 6.60611 2.08777C6.7072 2.23906 6.76115 2.41693 6.76115 2.59889C6.76089 2.84281 6.66388 3.07666 6.4914 3.24914C6.31893 3.42161 6.08507 3.51863 5.84116 3.51889Z" fill="white"/>
<path d="M19.4722 8.69501H17.5562C17.3882 8.19138 17.066 7.75336 16.6353 7.44298C16.2045 7.13259 15.6871 6.96558 15.1562 6.96558C14.6252 6.96558 14.1078 7.13259 13.6771 7.44298C13.2463 7.75336 12.9242 8.19138 12.7562 8.69501H1.52815C1.31452 8.69501 1.10964 8.77988 0.95858 8.93094C0.807519 9.082 0.722656 9.28689 0.722656 9.50052C0.722656 9.71415 0.807519 9.91902 0.95858 10.0701C1.10964 10.2211 1.31452 10.306 1.52815 10.306H12.7612C12.9291 10.8096 13.2513 11.2477 13.6821 11.558C14.1128 11.8684 14.6302 12.0354 15.1612 12.0354C15.6921 12.0354 16.2095 11.8684 16.6403 11.558C17.071 11.2477 17.3932 10.8096 17.5612 10.306H19.4762C19.6898 10.306 19.8947 10.2211 20.0457 10.0701C20.1968 9.91902 20.2817 9.71415 20.2817 9.50052C20.2817 9.28689 20.1968 9.082 20.0457 8.93094C19.8947 8.77988 19.6898 8.69501 19.4762 8.69501H19.4722ZM15.1562 10.42C14.9742 10.42 14.7963 10.3661 14.645 10.265C14.4937 10.1639 14.3758 10.0202 14.3062 9.85208C14.2366 9.68397 14.2183 9.49899 14.2538 9.32053C14.2893 9.14206 14.377 8.97814 14.5056 8.84947C14.6343 8.72081 14.7982 8.63319 14.9767 8.59769C15.1551 8.56219 15.3401 8.58041 15.5082 8.65004C15.6763 8.71967 15.82 8.8376 15.9211 8.98889C16.0222 9.14018 16.0762 9.31806 16.0762 9.50002C16.0759 9.74393 15.9789 9.97778 15.8064 10.1503C15.6339 10.3227 15.4001 10.4197 15.1562 10.42Z" fill="white"/>
<path d="M19.4722 15.5949H11.6902C11.5222 15.0913 11.2 14.6532 10.7693 14.3429C10.3385 14.0325 9.82106 13.8655 9.29015 13.8655C8.75924 13.8655 8.24178 14.0325 7.81105 14.3429C7.38032 14.6532 7.05815 15.0913 6.89015 15.5949H1.52815C1.31452 15.5949 1.10964 15.6798 0.95858 15.8308C0.807519 15.9819 0.722656 16.1868 0.722656 16.4004C0.722656 16.6141 0.807519 16.8189 0.95858 16.97C1.10964 17.121 1.31452 17.2059 1.52815 17.2059H6.89315C7.06115 17.7095 7.38333 18.1476 7.81406 18.4579C8.24479 18.7683 8.76224 18.9353 9.29315 18.9353C9.82406 18.9353 10.3415 18.7683 10.7723 18.4579C11.203 18.1476 11.5252 17.7095 11.6932 17.2059H19.4762C19.6898 17.2059 19.8947 17.121 20.0457 16.97C20.1968 16.8189 20.2817 16.6141 20.2817 16.4004C20.2817 16.1868 20.1968 15.9819 20.0457 15.8308C19.8947 15.6798 19.6898 15.5949 19.4762 15.5949H19.4722ZM9.29215 17.3199C9.11019 17.3199 8.93232 17.2659 8.78103 17.1649C8.62974 17.0638 8.51182 16.9201 8.44218 16.752C8.37255 16.5839 8.35433 16.3989 8.38983 16.2204C8.42533 16.042 8.51295 15.878 8.64162 15.7494C8.77028 15.6207 8.93421 15.5331 9.11267 15.4976C9.29113 15.4621 9.47612 15.4803 9.64423 15.5499C9.81233 15.6196 9.95602 15.7375 10.0571 15.8888C10.1582 16.0401 10.2122 16.2179 10.2122 16.3999C10.2119 16.6438 10.1149 16.8777 9.9424 17.0501C9.76992 17.2226 9.53607 17.3197 9.29215 17.3199Z" fill="white"/>
</svg>
