<svg width="424" height="424" viewBox="0 0 424 424" fill="none" xmlns="http://www.w3.org/2000/svg">
<g clip-path="url(#clip0_2_16874)">
<path d="M-11.1033 199.521C-4.2145 181.224 9.39391 166.579 27.8262 155.937C59.6819 137.552 87.4396 112.844 109.392 83.3332C131.243 53.9499 160.432 36 192.498 36C241.08 36 283.052 77.2061 302.918 136.963C316.601 177.994 336.216 216.802 361.139 252.152C383.532 283.977 391.674 317.659 380.604 347.013C356.392 411.37 249.06 430.513 140.887 389.793C32.7135 349.074 -35.3327 263.877 -11.1033 199.521Z" fill="#3DE8CF" fill-opacity="0.5"/>
<path d="M184.202 276.112C184.202 276.112 157.167 271.233 147.871 274.986C138.574 278.739 159.071 278.32 160.849 279.785C162.626 281.249 163.705 300.218 185.391 294.328" fill="#409DE2"/>
<path d="M269.054 272.121C269.054 272.121 229.702 297.806 182.364 294.789C182.364 294.789 179.11 275.963 182.364 275.138C182.364 275.138 230.958 260.121 246.869 225.85" fill="#CCF2EA"/>
<path d="M412.409 311.749L408.359 313.099C408.359 313.099 412.328 303.003 402.168 299.033C393.16 295.517 396.587 315.921 397.48 320.614C396.748 317.36 393.595 306.722 383.605 305.596C373.001 304.399 381.426 325.451 383.266 329.784C381.811 326.707 375.155 315.155 354.348 306.934C330.157 297.362 347.032 342.364 347.032 342.364L377.778 373.253C391.598 363.31 401.898 350.674 407.593 335.538C410.451 327.915 412.077 319.884 412.409 311.749Z" fill="#152272"/>
<path d="M184.46 238.968C184.46 238.968 158.974 225.338 148.455 226.087C137.935 226.836 158.581 233.027 159.88 235.091C161.179 237.156 156.126 256.469 179.768 257.594" fill="#409DE2"/>
<path d="M235.476 146.933L235.477 146.934C235.952 148.707 237.061 150.244 238.594 151.254C240.127 152.263 241.977 152.674 243.793 152.41L235.476 146.933ZM235.476 146.933L232.578 136.196C232.578 136.195 232.578 136.195 232.578 136.194C232.394 135.505 231.948 134.915 231.336 134.549L231.335 134.549L230.491 134.047C230.491 134.047 230.49 134.046 230.49 134.046C230.028 133.768 229.683 133.332 229.518 132.819C229.353 132.306 229.379 131.75 229.593 131.254L229.593 131.254L238.424 110.744L238.429 110.733L238.433 110.721C239.943 106.758 243.283 103.674 246.883 101.861C248.678 100.956 250.519 100.377 252.2 100.162C253.886 99.9461 255.371 100.1 256.485 100.613L256.486 100.614C257.083 100.887 257.701 101.46 258.335 102.322C258.964 103.177 259.576 104.271 260.175 105.523C261.203 107.673 262.167 110.226 263.112 112.73C263.269 113.146 263.425 113.56 263.581 113.972C264.666 116.827 265.746 119.546 266.872 121.28C267.429 122.138 268.057 122.852 268.783 123.172C269.163 123.34 269.571 123.4 269.992 123.316C270.407 123.232 270.792 123.016 271.148 122.702L271.149 122.701C272.589 121.427 274.168 120.939 275.565 121.095C276.956 121.251 278.23 122.051 279.071 123.482C279.89 124.877 280.506 126.908 280.958 129.219C281.409 131.518 281.689 134.044 281.862 136.397C282.035 138.749 282.1 140.918 282.122 142.5C282.133 143.291 282.133 143.934 282.13 144.379C282.129 144.601 282.127 144.774 282.125 144.891C282.124 144.949 282.124 144.994 282.123 145.023L282.123 145.057L282.122 145.065L282.122 145.067L282.122 145.067L282.12 145.172L282.154 145.27L282.575 146.492C283.845 150.409 286.359 153.805 289.735 156.163L289.736 156.164C290.366 156.601 290.883 157.18 291.248 157.853L291.252 157.861L291.256 157.868C292.39 159.832 293.12 162.003 293.405 164.253C293.689 166.503 293.521 168.788 292.912 170.972C292.302 173.157 291.263 175.198 289.854 176.976C288.446 178.754 286.697 180.233 284.71 181.327L284.707 181.328C280.769 183.524 276.12 184.069 271.781 182.842C267.444 181.617 263.77 178.722 261.564 174.794C261.367 174.418 261.247 174.008 261.209 173.586L261.208 173.579L261.208 173.572C260.39 166.404 258.024 159.51 254.696 153.137C254.696 153.137 254.696 153.137 254.696 153.137L254.46 152.683C254.308 152.2 253.993 151.785 253.567 151.509C253.123 151.222 252.589 151.106 252.066 151.183L252.065 151.183L243.794 152.41L235.476 146.933Z" fill="white" stroke="black" stroke-width="1.16891"/>
<path d="M237.903 110.513C241.052 102.249 251.762 97.7889 256.746 100.082C262.564 102.752 265.979 126.504 270.778 122.264C273.867 119.53 277.734 120.025 279.592 123.186C283.07 129.11 282.723 145.08 282.723 145.08L283.146 146.307C284.376 150.105 286.813 153.398 290.086 155.684C290.791 156.173 291.37 156.821 291.779 157.575C292.951 159.607 293.707 161.852 294.001 164.18C294.295 166.507 294.122 168.87 293.491 171.13C292.861 173.389 291.786 175.5 290.329 177.339C288.872 179.178 287.064 180.708 285.008 181.839C280.933 184.115 276.121 184.682 271.629 183.413C267.137 182.144 263.332 179.144 261.05 175.072C260.815 174.627 260.671 174.139 260.626 173.638C259.818 166.555 257.478 159.729 254.178 153.407L253.915 152.904C253.81 152.531 253.573 152.21 253.249 152C252.924 151.789 252.534 151.705 252.151 151.761L243.878 152.988C241.92 153.28 239.922 152.842 238.265 151.758C236.608 150.673 235.407 149.018 234.891 147.107L231.992 136.367C231.848 135.825 231.497 135.36 231.015 135.072L230.168 134.569C229.585 134.218 229.148 133.667 228.94 133.019C228.731 132.371 228.765 131.669 229.034 131.044L229.771 129.351" stroke="white" stroke-width="1.172" stroke-linecap="round" stroke-linejoin="round"/>
<path d="M36.7215 115.383C50.9443 115.383 62.4742 103.854 62.4742 89.6307C62.4742 75.4078 50.9443 63.8779 36.7215 63.8779C22.4986 63.8779 10.9688 75.4078 10.9688 89.6307C10.9688 103.854 22.4986 115.383 36.7215 115.383Z" fill="#3DE8CF"/>
<path d="M92.0484 86.127C98.1923 86.127 103.173 81.1464 103.173 75.0025C103.173 68.8586 98.1923 63.8779 92.0484 63.8779C85.9045 63.8779 80.9238 68.8586 80.9238 75.0025C80.9238 81.1464 85.9045 86.127 92.0484 86.127Z" fill="#3DE8CF"/>
<path d="M69.1769 57.0228C72.8764 57.0228 75.8754 54.0238 75.8754 50.3244C75.8754 46.625 72.8764 43.626 69.1769 43.626C65.4775 43.626 62.4785 46.625 62.4785 50.3244C62.4785 54.0238 65.4775 57.0228 69.1769 57.0228Z" fill="#3DE8CF"/>
<path d="M131.498 162.717H17.3879C13.8427 162.717 10.9688 165.591 10.9688 169.136V236.768C10.9688 240.313 13.8427 243.187 17.3879 243.187H131.498C135.043 243.187 137.917 240.313 137.917 236.768V169.136C137.917 165.591 135.043 162.717 131.498 162.717Z" fill="#CCF2EA"/>
<path d="M10.9688 179.617H137.917V198.676H10.9688V179.617Z" fill="white"/>
<path d="M184.357 93.6548H70.2473C66.7021 93.6548 63.8281 96.5287 63.8281 100.074V167.706C63.8281 171.251 66.7021 174.125 70.2473 174.125H184.357C187.903 174.125 190.777 171.251 190.777 167.706V100.074C190.777 96.5287 187.903 93.6548 184.357 93.6548Z" fill="#152272"/>
<path d="M143.22 137.908C143.219 135.75 143.681 133.618 144.575 131.655C145.469 129.692 146.775 127.944 148.403 126.529C146.219 124.626 143.533 123.391 140.667 122.972C137.8 122.554 134.873 122.969 132.236 124.169C129.599 125.369 127.363 127.302 125.795 129.738C124.226 132.174 123.393 135.01 123.393 137.908C123.393 140.805 124.226 143.641 125.795 146.077C127.363 148.513 129.599 150.447 132.236 151.646C134.873 152.846 137.8 153.262 140.667 152.843C143.533 152.424 146.219 151.19 148.403 149.286C146.775 147.871 145.469 146.123 144.575 144.16C143.681 142.197 143.219 140.065 143.22 137.908Z" fill="#3DE8CF"/>
<path d="M158.317 122.814C154.671 122.81 151.148 124.131 148.402 126.529C150.028 127.946 151.332 129.694 152.225 131.657C153.119 133.62 153.581 135.751 153.581 137.908C153.581 140.064 153.119 142.196 152.225 144.158C151.332 146.121 150.028 147.87 148.402 149.286C150.241 150.888 152.44 152.021 154.812 152.588C157.183 153.155 159.657 153.138 162.021 152.54C164.385 151.942 166.569 150.78 168.386 149.154C170.203 147.528 171.599 145.485 172.454 143.201C173.31 140.918 173.599 138.461 173.297 136.041C172.996 133.621 172.112 131.31 170.723 129.307C169.333 127.303 167.479 125.665 165.318 124.535C163.158 123.404 160.755 122.814 158.317 122.814Z" fill="#409DE2"/>
<path d="M153.569 137.907C153.571 135.75 153.109 133.619 152.216 131.656C151.322 129.693 150.018 127.944 148.39 126.529C146.763 127.944 145.458 129.693 144.564 131.656C143.67 133.618 143.207 135.75 143.207 137.907C143.207 140.064 143.67 142.196 144.564 144.159C145.458 146.122 146.763 147.87 148.39 149.286C150.018 147.87 151.322 146.122 152.216 144.159C153.109 142.196 153.571 140.064 153.569 137.907Z" fill="#CCF2EA"/>
<path d="M55.4077 226.231C57.0739 226.231 58.4247 224.88 58.4247 223.214C58.4247 221.548 57.0739 220.197 55.4077 220.197C53.7414 220.197 52.3906 221.548 52.3906 223.214C52.3906 224.88 53.7414 226.231 55.4077 226.231Z" fill="#CCF2EA"/>
<path d="M66.7612 226.231C68.4274 226.231 69.7782 224.88 69.7782 223.214C69.7782 221.548 68.4274 220.197 66.7612 220.197C65.0949 220.197 63.7441 221.548 63.7441 223.214C63.7441 224.88 65.0949 226.231 66.7612 226.231Z" fill="#CCF2EA"/>
<path d="M78.1186 226.231C79.7849 226.231 81.1357 224.88 81.1357 223.214C81.1357 221.548 79.7849 220.197 78.1186 220.197C76.4523 220.197 75.1016 221.548 75.1016 223.214C75.1016 224.88 76.4523 226.231 78.1186 226.231Z" fill="#CCF2EA"/>
<path d="M89.476 226.231C91.1423 226.231 92.4931 224.88 92.4931 223.214C92.4931 221.548 91.1423 220.197 89.476 220.197C87.8098 220.197 86.459 221.548 86.459 223.214C86.459 224.88 87.8098 226.231 89.476 226.231Z" fill="#CCF2EA"/>
<path d="M100.833 226.231C102.5 226.231 103.85 224.88 103.85 223.214C103.85 221.548 102.5 220.197 100.833 220.197C99.1672 220.197 97.8164 221.548 97.8164 223.214C97.8164 224.88 99.1672 226.231 100.833 226.231Z" fill="#CCF2EA"/>
<path d="M112.189 226.231C113.855 226.231 115.206 224.88 115.206 223.214C115.206 221.548 113.855 220.197 112.189 220.197C110.523 220.197 109.172 221.548 109.172 223.214C109.172 224.88 110.523 226.231 112.189 226.231Z" fill="#CCF2EA"/>
<path d="M123.542 226.231C125.209 226.231 126.559 224.88 126.559 223.214C126.559 221.548 125.209 220.197 123.542 220.197C121.876 220.197 120.525 221.548 120.525 223.214C120.525 224.88 121.876 226.231 123.542 226.231Z" fill="#CCF2EA"/>
<path d="M134.9 226.231C136.566 226.231 137.917 224.88 137.917 223.214C137.917 221.548 136.566 220.197 134.9 220.197C133.234 220.197 131.883 221.548 131.883 223.214C131.883 224.88 133.234 226.231 134.9 226.231Z" fill="#CCF2EA"/>
<path d="M61.0854 236.056C62.7517 236.056 64.1024 234.705 64.1024 233.039C64.1024 231.373 62.7517 230.022 61.0854 230.022C59.4191 230.022 58.0684 231.373 58.0684 233.039C58.0684 234.705 59.4191 236.056 61.0854 236.056Z" fill="#CCF2EA"/>
<path d="M72.4389 236.056C74.1052 236.056 75.456 234.705 75.456 233.039C75.456 231.373 74.1052 230.022 72.4389 230.022C70.7727 230.022 69.4219 231.373 69.4219 233.039C69.4219 234.705 70.7727 236.056 72.4389 236.056Z" fill="#CCF2EA"/>
<path d="M83.7963 236.056C85.4626 236.056 86.8134 234.705 86.8134 233.039C86.8134 231.373 85.4626 230.022 83.7963 230.022C82.1301 230.022 80.7793 231.373 80.7793 233.039C80.7793 234.705 82.1301 236.056 83.7963 236.056Z" fill="#CCF2EA"/>
<path d="M95.1538 236.056C96.82 236.056 98.1708 234.705 98.1708 233.039C98.1708 231.373 96.82 230.022 95.1538 230.022C93.4875 230.022 92.1367 231.373 92.1367 233.039C92.1367 234.705 93.4875 236.056 95.1538 236.056Z" fill="#CCF2EA"/>
<path d="M106.511 236.056C108.177 236.056 109.528 234.705 109.528 233.039C109.528 231.373 108.177 230.022 106.511 230.022C104.845 230.022 103.494 231.373 103.494 233.039C103.494 234.705 104.845 236.056 106.511 236.056Z" fill="#CCF2EA"/>
<path d="M117.869 236.056C119.535 236.056 120.886 234.705 120.886 233.039C120.886 231.373 119.535 230.022 117.869 230.022C116.202 230.022 114.852 231.373 114.852 233.039C114.852 234.705 116.202 236.056 117.869 236.056Z" fill="#CCF2EA"/>
<path d="M129.222 236.056C130.888 236.056 132.239 234.705 132.239 233.039C132.239 231.373 130.888 230.022 129.222 230.022C127.556 230.022 126.205 231.373 126.205 233.039C126.205 234.705 127.556 236.056 129.222 236.056Z" fill="#CCF2EA"/>
<path d="M55.4077 245.877C57.0739 245.877 58.4247 244.527 58.4247 242.86C58.4247 241.194 57.0739 239.843 55.4077 239.843C53.7414 239.843 52.3906 241.194 52.3906 242.86C52.3906 244.527 53.7414 245.877 55.4077 245.877Z" fill="#CCF2EA"/>
<path d="M66.7612 245.877C68.4274 245.877 69.7782 244.527 69.7782 242.86C69.7782 241.194 68.4274 239.843 66.7612 239.843C65.0949 239.843 63.7441 241.194 63.7441 242.86C63.7441 244.527 65.0949 245.877 66.7612 245.877Z" fill="#CCF2EA"/>
<path d="M78.1186 245.877C79.7849 245.877 81.1357 244.527 81.1357 242.86C81.1357 241.194 79.7849 239.843 78.1186 239.843C76.4523 239.843 75.1016 241.194 75.1016 242.86C75.1016 244.527 76.4523 245.877 78.1186 245.877Z" fill="#CCF2EA"/>
<path d="M89.476 245.877C91.1423 245.877 92.4931 244.527 92.4931 242.86C92.4931 241.194 91.1423 239.843 89.476 239.843C87.8098 239.843 86.459 241.194 86.459 242.86C86.459 244.527 87.8098 245.877 89.476 245.877Z" fill="#CCF2EA"/>
<path d="M100.833 245.877C102.5 245.877 103.85 244.527 103.85 242.86C103.85 241.194 102.5 239.843 100.833 239.843C99.1672 239.843 97.8164 241.194 97.8164 242.86C97.8164 244.527 99.1672 245.877 100.833 245.877Z" fill="#CCF2EA"/>
<path d="M112.189 245.877C113.855 245.877 115.206 244.527 115.206 242.86C115.206 241.194 113.855 239.843 112.189 239.843C110.523 239.843 109.172 241.194 109.172 242.86C109.172 244.527 110.523 245.877 112.189 245.877Z" fill="#CCF2EA"/>
<path d="M123.542 245.877C125.209 245.877 126.559 244.527 126.559 242.86C126.559 241.194 125.209 239.843 123.542 239.843C121.876 239.843 120.525 241.194 120.525 242.86C120.525 244.527 121.876 245.877 123.542 245.877Z" fill="#CCF2EA"/>
<path d="M134.9 245.877C136.566 245.877 137.917 244.527 137.917 242.86C137.917 241.194 136.566 239.843 134.9 239.843C133.234 239.843 131.883 241.194 131.883 242.86C131.883 244.527 133.234 245.877 134.9 245.877Z" fill="#CCF2EA"/>
<path d="M61.0854 255.703C62.7517 255.703 64.1024 254.352 64.1024 252.686C64.1024 251.02 62.7517 249.669 61.0854 249.669C59.4191 249.669 58.0684 251.02 58.0684 252.686C58.0684 254.352 59.4191 255.703 61.0854 255.703Z" fill="#CCF2EA"/>
<path d="M72.4389 255.703C74.1052 255.703 75.456 254.352 75.456 252.686C75.456 251.02 74.1052 249.669 72.4389 249.669C70.7727 249.669 69.4219 251.02 69.4219 252.686C69.4219 254.352 70.7727 255.703 72.4389 255.703Z" fill="#CCF2EA"/>
<path d="M83.7963 255.703C85.4626 255.703 86.8134 254.352 86.8134 252.686C86.8134 251.02 85.4626 249.669 83.7963 249.669C82.1301 249.669 80.7793 251.02 80.7793 252.686C80.7793 254.352 82.1301 255.703 83.7963 255.703Z" fill="#CCF2EA"/>
<path d="M95.1538 255.703C96.82 255.703 98.1708 254.352 98.1708 252.686C98.1708 251.02 96.82 249.669 95.1538 249.669C93.4875 249.669 92.1367 251.02 92.1367 252.686C92.1367 254.352 93.4875 255.703 95.1538 255.703Z" fill="#CCF2EA"/>
<path d="M106.511 255.703C108.177 255.703 109.528 254.352 109.528 252.686C109.528 251.02 108.177 249.669 106.511 249.669C104.845 249.669 103.494 251.02 103.494 252.686C103.494 254.352 104.845 255.703 106.511 255.703Z" fill="#CCF2EA"/>
<path d="M117.869 255.703C119.535 255.703 120.886 254.352 120.886 252.686C120.886 251.02 119.535 249.669 117.869 249.669C116.202 249.669 114.852 251.02 114.852 252.686C114.852 254.352 116.202 255.703 117.869 255.703Z" fill="#CCF2EA"/>
<path d="M129.222 255.703C130.888 255.703 132.239 254.352 132.239 252.686C132.239 251.02 130.888 249.669 129.222 249.669C127.556 249.669 126.205 251.02 126.205 252.686C126.205 254.352 127.556 255.703 129.222 255.703Z" fill="#CCF2EA"/>
<path d="M55.4077 265.528C57.0739 265.528 58.4247 264.177 58.4247 262.511C58.4247 260.845 57.0739 259.494 55.4077 259.494C53.7414 259.494 52.3906 260.845 52.3906 262.511C52.3906 264.177 53.7414 265.528 55.4077 265.528Z" fill="#CCF2EA"/>
<path d="M66.7612 265.528C68.4274 265.528 69.7782 264.177 69.7782 262.511C69.7782 260.845 68.4274 259.494 66.7612 259.494C65.0949 259.494 63.7441 260.845 63.7441 262.511C63.7441 264.177 65.0949 265.528 66.7612 265.528Z" fill="#CCF2EA"/>
<path d="M78.1186 265.528C79.7849 265.528 81.1357 264.177 81.1357 262.511C81.1357 260.845 79.7849 259.494 78.1186 259.494C76.4523 259.494 75.1016 260.845 75.1016 262.511C75.1016 264.177 76.4523 265.528 78.1186 265.528Z" fill="#CCF2EA"/>
<path d="M89.476 265.528C91.1423 265.528 92.4931 264.177 92.4931 262.511C92.4931 260.845 91.1423 259.494 89.476 259.494C87.8098 259.494 86.459 260.845 86.459 262.511C86.459 264.177 87.8098 265.528 89.476 265.528Z" fill="#CCF2EA"/>
<path d="M100.833 265.528C102.5 265.528 103.85 264.177 103.85 262.511C103.85 260.845 102.5 259.494 100.833 259.494C99.1672 259.494 97.8164 260.845 97.8164 262.511C97.8164 264.177 99.1672 265.528 100.833 265.528Z" fill="#CCF2EA"/>
<path d="M112.189 265.528C113.855 265.528 115.206 264.177 115.206 262.511C115.206 260.845 113.855 259.494 112.189 259.494C110.523 259.494 109.172 260.845 109.172 262.511C109.172 264.177 110.523 265.528 112.189 265.528Z" fill="#CCF2EA"/>
<path d="M123.542 265.528C125.209 265.528 126.559 264.177 126.559 262.511C126.559 260.845 125.209 259.494 123.542 259.494C121.876 259.494 120.525 260.845 120.525 262.511C120.525 264.177 121.876 265.528 123.542 265.528Z" fill="#CCF2EA"/>
<path d="M134.9 265.528C136.566 265.528 137.917 264.177 137.917 262.511C137.917 260.845 136.566 259.494 134.9 259.494C133.234 259.494 131.883 260.845 131.883 262.511C131.883 264.177 133.234 265.528 134.9 265.528Z" fill="#CCF2EA"/>
<path d="M61.0854 275.349C62.7517 275.349 64.1024 273.999 64.1024 272.332C64.1024 270.666 62.7517 269.315 61.0854 269.315C59.4191 269.315 58.0684 270.666 58.0684 272.332C58.0684 273.999 59.4191 275.349 61.0854 275.349Z" fill="#CCF2EA"/>
<path d="M72.4389 275.349C74.1052 275.349 75.456 273.999 75.456 272.332C75.456 270.666 74.1052 269.315 72.4389 269.315C70.7727 269.315 69.4219 270.666 69.4219 272.332C69.4219 273.999 70.7727 275.349 72.4389 275.349Z" fill="#CCF2EA"/>
<path d="M83.7963 275.349C85.4626 275.349 86.8134 273.999 86.8134 272.332C86.8134 270.666 85.4626 269.315 83.7963 269.315C82.1301 269.315 80.7793 270.666 80.7793 272.332C80.7793 273.999 82.1301 275.349 83.7963 275.349Z" fill="#CCF2EA"/>
<path d="M95.1538 275.349C96.82 275.349 98.1708 273.999 98.1708 272.332C98.1708 270.666 96.82 269.315 95.1538 269.315C93.4875 269.315 92.1367 270.666 92.1367 272.332C92.1367 273.999 93.4875 275.349 95.1538 275.349Z" fill="#CCF2EA"/>
<path d="M106.511 275.349C108.177 275.349 109.528 273.999 109.528 272.332C109.528 270.666 108.177 269.315 106.511 269.315C104.845 269.315 103.494 270.666 103.494 272.332C103.494 273.999 104.845 275.349 106.511 275.349Z" fill="#CCF2EA"/>
<path d="M117.869 275.349C119.535 275.349 120.886 273.999 120.886 272.332C120.886 270.666 119.535 269.315 117.869 269.315C116.202 269.315 114.852 270.666 114.852 272.332C114.852 273.999 116.202 275.349 117.869 275.349Z" fill="#CCF2EA"/>
<path d="M129.222 275.349C130.888 275.349 132.239 273.999 132.239 272.332C132.239 270.666 130.888 269.315 129.222 269.315C127.556 269.315 126.205 270.666 126.205 272.332C126.205 273.999 127.556 275.349 129.222 275.349Z" fill="#CCF2EA"/>
<path d="M55.4077 285.175C57.0739 285.175 58.4247 283.824 58.4247 282.158C58.4247 280.492 57.0739 279.141 55.4077 279.141C53.7414 279.141 52.3906 280.492 52.3906 282.158C52.3906 283.824 53.7414 285.175 55.4077 285.175Z" fill="#CCF2EA"/>
<path d="M66.7612 285.175C68.4274 285.175 69.7782 283.824 69.7782 282.158C69.7782 280.492 68.4274 279.141 66.7612 279.141C65.0949 279.141 63.7441 280.492 63.7441 282.158C63.7441 283.824 65.0949 285.175 66.7612 285.175Z" fill="#CCF2EA"/>
<path d="M78.1186 285.175C79.7849 285.175 81.1357 283.824 81.1357 282.158C81.1357 280.492 79.7849 279.141 78.1186 279.141C76.4523 279.141 75.1016 280.492 75.1016 282.158C75.1016 283.824 76.4523 285.175 78.1186 285.175Z" fill="#CCF2EA"/>
<path d="M89.476 285.175C91.1423 285.175 92.4931 283.824 92.4931 282.158C92.4931 280.492 91.1423 279.141 89.476 279.141C87.8098 279.141 86.459 280.492 86.459 282.158C86.459 283.824 87.8098 285.175 89.476 285.175Z" fill="#CCF2EA"/>
<path d="M100.833 285.175C102.5 285.175 103.85 283.824 103.85 282.158C103.85 280.492 102.5 279.141 100.833 279.141C99.1672 279.141 97.8164 280.492 97.8164 282.158C97.8164 283.824 99.1672 285.175 100.833 285.175Z" fill="#CCF2EA"/>
<path d="M112.189 285.175C113.855 285.175 115.206 283.824 115.206 282.158C115.206 280.492 113.855 279.141 112.189 279.141C110.523 279.141 109.172 280.492 109.172 282.158C109.172 283.824 110.523 285.175 112.189 285.175Z" fill="#CCF2EA"/>
<path d="M123.542 285.175C125.209 285.175 126.559 283.824 126.559 282.158C126.559 280.492 125.209 279.141 123.542 279.141C121.876 279.141 120.525 280.492 120.525 282.158C120.525 283.824 121.876 285.175 123.542 285.175Z" fill="#CCF2EA"/>
<path d="M134.9 285.175C136.566 285.175 137.917 283.824 137.917 282.158C137.917 280.492 136.566 279.141 134.9 279.141C133.234 279.141 131.883 280.492 131.883 282.158C131.883 283.824 133.234 285.175 134.9 285.175Z" fill="#CCF2EA"/>
<path d="M61.0854 295C62.7517 295 64.1024 293.65 64.1024 291.983C64.1024 290.317 62.7517 288.966 61.0854 288.966C59.4191 288.966 58.0684 290.317 58.0684 291.983C58.0684 293.65 59.4191 295 61.0854 295Z" fill="#CCF2EA"/>
<path d="M72.4389 295C74.1052 295 75.456 293.65 75.456 291.983C75.456 290.317 74.1052 288.966 72.4389 288.966C70.7727 288.966 69.4219 290.317 69.4219 291.983C69.4219 293.65 70.7727 295 72.4389 295Z" fill="#CCF2EA"/>
<path d="M83.7963 295C85.4626 295 86.8134 293.65 86.8134 291.983C86.8134 290.317 85.4626 288.966 83.7963 288.966C82.1301 288.966 80.7793 290.317 80.7793 291.983C80.7793 293.65 82.1301 295 83.7963 295Z" fill="#CCF2EA"/>
<path d="M95.1538 295C96.82 295 98.1708 293.65 98.1708 291.983C98.1708 290.317 96.82 288.966 95.1538 288.966C93.4875 288.966 92.1367 290.317 92.1367 291.983C92.1367 293.65 93.4875 295 95.1538 295Z" fill="#CCF2EA"/>
<path d="M106.511 295C108.177 295 109.528 293.65 109.528 291.983C109.528 290.317 108.177 288.966 106.511 288.966C104.845 288.966 103.494 290.317 103.494 291.983C103.494 293.65 104.845 295 106.511 295Z" fill="#CCF2EA"/>
<path d="M117.869 295C119.535 295 120.886 293.65 120.886 291.983C120.886 290.317 119.535 288.966 117.869 288.966C116.202 288.966 114.852 290.317 114.852 291.983C114.852 293.65 116.202 295 117.869 295Z" fill="#CCF2EA"/>
<path d="M129.222 295C130.888 295 132.239 293.65 132.239 291.983C132.239 290.317 130.888 288.966 129.222 288.966C127.556 288.966 126.205 290.317 126.205 291.983C126.205 293.65 127.556 295 129.222 295Z" fill="#CCF2EA"/>
<path d="M146.229 46.6645H146.703C146.842 46.6676 146.979 46.6395 147.106 46.5824C147.233 46.5253 147.345 46.4406 147.435 46.3344C150.12 43.1367 153.491 40.5846 157.297 38.8676C161.103 37.1505 165.248 36.3125 169.422 36.4157C173.596 36.519 177.694 37.5608 181.411 39.4639C185.127 41.3671 188.368 44.0826 190.892 47.4092C190.989 47.5378 191.119 47.6385 191.267 47.7009C191.416 47.7633 191.578 47.7853 191.738 47.7647C192.375 47.6917 193.015 47.6549 193.655 47.6546C196.108 47.6561 198.53 48.2032 200.745 49.2563C202.961 50.3095 204.914 51.8423 206.464 53.7437C206.56 53.864 206.685 53.958 206.827 54.0172C206.969 54.0764 207.123 54.0988 207.276 54.0822C207.697 54.0274 208.121 54.0005 208.546 54.0018C210.411 54.0007 212.24 54.51 213.836 55.4744C215.433 56.4388 216.735 57.8217 217.601 59.4731C217.863 59.9783 218.301 60.3698 218.832 60.5733L223.851 62.469C224.048 62.5465 224.212 62.69 224.315 62.8751C224.418 63.0601 224.454 63.2752 224.416 63.4835C224.378 63.6919 224.269 63.8806 224.107 64.0174C223.945 64.1542 223.741 64.2306 223.529 64.2335H129.591C129.467 64.2331 129.345 64.2076 129.231 64.1586C129.118 64.1095 129.015 64.0379 128.93 63.9481C128.845 63.8583 128.779 63.7521 128.736 63.6361C128.693 63.5201 128.675 63.3965 128.681 63.273C128.926 58.7852 130.881 54.5619 134.146 51.4723C137.41 48.3828 141.734 46.6621 146.229 46.6645Z" fill="white"/>
<path d="M190.891 47.4175C190.988 47.5461 191.117 47.6467 191.266 47.7091C191.415 47.7716 191.577 47.7936 191.737 47.7729C192.373 47.6999 193.013 47.6632 193.654 47.6629C196.106 47.6633 198.528 48.2091 200.743 49.2608C202.958 50.3125 204.912 51.8437 206.462 53.7435C206.558 53.8638 206.683 53.9579 206.825 54.017C206.967 54.0762 207.122 54.0986 207.275 54.0821C207.696 54.0272 208.12 54.0003 208.544 54.0017" stroke="#152272" stroke-width="1.172" stroke-miterlimit="10"/>
<path d="M146.229 46.6643H146.702C146.841 46.6674 146.979 46.6394 147.106 46.5823C147.233 46.5252 147.345 46.4404 147.434 46.3343C150.043 43.2223 153.302 40.7205 156.983 39.0053C160.663 37.2901 164.675 36.4032 168.736 36.4072" stroke="#152272" stroke-width="1.172" stroke-miterlimit="10"/>
<path d="M223.859 62.4688C224.056 62.5462 224.22 62.6898 224.323 62.8748C224.426 63.0598 224.461 63.2749 224.423 63.4832C224.385 63.6916 224.276 63.8803 224.115 64.0171C223.953 64.1539 223.749 64.2303 223.537 64.2333H129.598C129.475 64.2329 129.352 64.2073 129.239 64.1583C129.125 64.1092 129.023 64.0376 128.938 63.9478C128.853 63.858 128.787 63.7519 128.744 63.6358C128.701 63.5198 128.682 63.3963 128.689 63.2727" stroke="#152272" stroke-width="1.172" stroke-miterlimit="10"/>
<path d="M392.869 241.392H392.484C392.37 241.395 392.257 241.373 392.153 241.327C392.05 241.28 391.957 241.212 391.883 241.126C389.69 238.513 386.938 236.427 383.829 235.024C380.72 233.621 377.335 232.936 373.925 233.02C370.515 233.104 367.168 233.955 364.133 235.51C361.097 237.065 358.45 239.284 356.389 242.002C356.31 242.106 356.204 242.188 356.083 242.24C355.962 242.291 355.83 242.309 355.7 242.294C353.444 242.028 351.158 242.335 349.053 243.187C346.948 244.039 345.092 245.408 343.657 247.168C343.58 247.267 343.479 247.344 343.363 247.393C343.247 247.441 343.121 247.458 342.997 247.444C341.31 247.235 339.6 247.544 338.093 248.331C336.587 249.118 335.356 250.345 334.563 251.848C334.351 252.261 333.994 252.582 333.561 252.75L329.46 254.294C329.296 254.355 329.159 254.472 329.072 254.624C328.986 254.776 328.955 254.954 328.987 255.126C329.018 255.298 329.109 255.453 329.243 255.565C329.378 255.677 329.548 255.738 329.723 255.737H406.452C406.553 255.737 406.653 255.717 406.746 255.677C406.839 255.637 406.923 255.579 406.992 255.506C407.062 255.433 407.116 255.346 407.151 255.251C407.186 255.156 407.202 255.055 407.197 254.954C406.995 251.29 405.398 247.843 402.733 245.32C400.068 242.798 396.538 241.392 392.869 241.392Z" fill="white"/>
<path d="M356.39 242.006C356.31 242.11 356.205 242.192 356.084 242.244C355.963 242.295 355.831 242.314 355.7 242.298C353.445 242.032 351.159 242.339 349.054 243.191C346.949 244.043 345.093 245.413 343.657 247.172C343.58 247.271 343.479 247.348 343.363 247.397C343.248 247.445 343.122 247.462 342.997 247.448C342.655 247.405 342.31 247.384 341.965 247.384" stroke="#152272" stroke-width="1.172" stroke-miterlimit="10"/>
<path d="M392.87 241.392H392.485C392.371 241.395 392.258 241.373 392.154 241.327C392.051 241.28 391.958 241.212 391.884 241.126C389.754 238.583 387.093 236.539 384.087 235.138C381.081 233.736 377.805 233.011 374.488 233.014" stroke="#152272" stroke-width="1.172" stroke-miterlimit="10"/>
<path d="M329.46 254.298C329.296 254.359 329.159 254.476 329.072 254.628C328.986 254.78 328.955 254.958 328.987 255.13C329.018 255.302 329.109 255.458 329.243 255.569C329.378 255.681 329.548 255.742 329.723 255.741H406.452C406.553 255.741 406.653 255.721 406.746 255.681C406.839 255.641 406.923 255.583 406.992 255.51C407.062 255.437 407.116 255.35 407.151 255.255C407.186 255.16 407.202 255.059 407.197 254.958" stroke="#152272" stroke-width="1.172" stroke-miterlimit="10"/>
<path d="M232.757 122.458L236.176 114.52L235.499 122.458L255.252 124.011C256.007 124.07 256.724 124.37 257.297 124.867C257.87 125.363 258.268 126.03 258.434 126.77L262.741 146.184C262.901 146.901 263.331 147.528 263.942 147.935C264.553 148.341 265.298 148.497 266.021 148.368C272.821 147.162 290.648 143.713 297.469 139.736C298.176 139.321 298.732 138.691 299.057 137.939C299.382 137.186 299.459 136.35 299.276 135.551C297.16 126.157 287.491 91.2175 261.476 89.7577C231.403 88.0651 221.176 116.416 230.366 127.972" fill="#152272"/>
<path d="M261.494 89.7577C231.421 88.0651 221.193 116.416 230.384 127.972" stroke="white" stroke-width="1.172" stroke-linecap="round" stroke-linejoin="round"/>
<path d="M390.642 362.15L306.947 255.348C305.987 254.124 305.373 252.666 305.167 251.125C304.962 249.584 305.173 248.016 305.779 246.584C312.609 230.395 332.04 176.342 295.408 159.09C292.946 157.95 290.861 156.13 289.399 153.843L287.736 151.19C287.383 150.63 286.867 150.189 286.259 149.927C285.65 149.665 284.976 149.593 284.326 149.722L267.142 153.107C266.842 153.167 266.557 153.288 266.306 153.464C266.055 153.64 265.843 153.866 265.684 154.127C265.525 154.389 265.422 154.681 265.382 154.984C265.341 155.288 265.364 155.597 265.449 155.891L268.301 165.843C268.602 166.897 268.515 168.023 268.056 169.017C267.597 170.012 266.797 170.809 265.8 171.264C263.173 172.457 260.685 170.748 260.02 167.946C259.1 164.443 257.852 161.035 256.292 157.766L249.099 158.223C248.815 158.241 248.54 158.326 248.296 158.473C248.052 158.619 247.847 158.822 247.697 159.064C247.547 159.306 247.458 159.58 247.436 159.863C247.414 160.147 247.461 160.432 247.571 160.694L250.246 166.986C250.579 167.77 250.71 168.626 250.625 169.474C250.541 170.323 250.245 171.136 249.763 171.839C244.444 179.579 228.212 207.011 236.743 243.174C244.897 277.643 242.147 364.219 240.737 397.013C304.633 405.764 361.017 392.993 390.642 362.15Z" fill="white"/>
<path d="M295.41 159.099C295.41 159.099 317.781 165.145 320.033 203.952C322.284 242.759 298.528 323.783 173.412 256.274C173.412 256.274 175.443 237.707 182.755 237.144C182.755 237.144 257.022 251.772 267.71 229.269C278.399 206.766 282.901 194.952 282.901 194.952" fill="white"/>
<path d="M320.033 203.965C322.28 242.784 298.528 323.796 173.412 256.287" stroke="#152272" stroke-width="1.172" stroke-linecap="round" stroke-linejoin="round"/>
<path d="M274.023 399.662C270.177 384.607 249.705 390.746 249.705 390.746C249.705 390.746 260.956 371.62 255.333 355.304C249.709 338.987 209.21 381.746 209.21 381.746C209.21 381.746 219.898 368.243 211.749 359.95C206.548 354.665 198.491 362.459 193.333 368.802C194.687 365.497 194.84 361.41 190.794 357.555C181.938 349.092 176.585 367.118 176.585 367.118C176.585 367.118 179.97 344.615 164.97 338.987C149.969 333.359 159.329 358.118 159.329 358.118C159.329 358.118 162.52 361.503 160.924 359.81C159.329 358.118 134.389 337.303 127.322 355.308C126.758 356.687 126.505 358.174 126.582 359.662C139.926 366.773 153.718 373.008 167.872 378.327C204.398 392.079 240.844 399.002 274.023 399.662Z" fill="#CCF2EA"/>
<path d="M127.305 355.303C126.74 356.682 126.488 358.169 126.564 359.657" stroke="#152272" stroke-width="1.172" stroke-linecap="round" stroke-linejoin="round"/>
<path d="M164.952 338.987C149.964 333.363 159.311 358.117 159.311 358.117C159.311 358.117 162.502 361.503 160.906 359.81" stroke="#152272" stroke-width="1.172" stroke-linecap="round" stroke-linejoin="round"/>
<path d="M190.778 357.554C181.921 349.091 176.568 367.118 176.568 367.118" stroke="#152272" stroke-width="1.172" stroke-linecap="round" stroke-linejoin="round"/>
<path d="M211.732 359.95C206.531 354.664 198.475 362.459 193.316 368.802" stroke="#152272" stroke-width="1.172" stroke-linecap="round" stroke-linejoin="round"/>
<path d="M255.332 355.303C249.704 338.987 209.209 381.746 209.209 381.746" stroke="#152272" stroke-width="1.172" stroke-linecap="round" stroke-linejoin="round"/>
<path d="M274.023 399.662C270.177 384.607 249.705 390.746 249.705 390.746" stroke="#152272" stroke-width="1.172" stroke-linecap="round" stroke-linejoin="round"/>
</g>
<defs>
<clipPath id="clip0_2_16874">
<rect width="423.147" height="423.147" fill="white" transform="translate(0.390625 0.73584)"/>
</clipPath>
</defs>
</svg>
