<svg width="424" height="424" viewBox="0 0 424 424" fill="none" xmlns="http://www.w3.org/2000/svg">
<path d="M393.179 140.83C378.94 102.226 344.094 76.0584 301.492 66.7788C286.226 63.4521 271.661 57.4804 258.453 49.1336C238.437 36.4313 215.219 29.6875 191.512 29.6899C134.002 29.6899 85.2467 68.8057 68.3335 122.935C63.1622 139.412 54.339 154.51 42.5215 167.103C22.312 188.683 10.2988 215.714 10.2988 245.042C10.2988 315.759 80.152 373.087 166.317 373.087C168.656 373.087 170.982 373.046 173.295 372.964C179.773 372.736 186.211 374.068 192.066 376.848C269.963 413.662 357.618 391.718 387.848 327.789C397.834 306.669 400.305 283.608 396.311 260.872C392.867 241.266 393.191 221.184 397.267 201.699C401.532 181.435 400.474 160.616 393.179 140.83Z" fill="#3DE8CF" fill-opacity="0.5"/>
<path d="M105.352 132.853H104.89C104.755 132.858 104.62 132.832 104.496 132.777C104.372 132.722 104.262 132.64 104.175 132.536C101.553 129.412 98.2606 126.918 94.5429 125.241C90.8251 123.563 86.7772 122.744 82.6997 122.845C78.6222 122.946 74.6197 123.964 70.9894 125.823C67.359 127.682 64.194 130.335 61.7293 133.585C61.6323 133.714 61.5026 133.814 61.3537 133.875C61.2048 133.936 61.0422 133.956 60.883 133.932C58.1882 133.618 55.4577 133.987 52.9433 135.007C50.4289 136.026 48.2116 137.661 46.496 139.763C46.4032 139.881 46.2818 139.973 46.1433 140.031C46.0048 140.089 45.8538 140.11 45.7047 140.093C45.2949 140.041 44.8823 140.014 44.4691 140.013C42.6501 140.014 40.8657 140.51 39.3081 141.45C37.7505 142.389 36.4787 143.736 35.6296 145.345C35.3747 145.839 34.947 146.223 34.4278 146.424L29.532 148.307C29.3359 148.379 29.1716 148.518 29.068 148.7C28.9644 148.881 28.9281 149.094 28.9655 149.299C29.0029 149.505 29.1116 149.691 29.2725 149.824C29.4334 149.958 29.6361 150.03 29.8452 150.029H121.596C121.717 150.029 121.836 150.005 121.947 149.957C122.058 149.909 122.158 149.84 122.242 149.752C122.325 149.665 122.389 149.561 122.431 149.448C122.473 149.335 122.491 149.214 122.485 149.094C122.25 144.708 120.342 140.58 117.155 137.559C113.968 134.538 109.743 132.853 105.352 132.853Z" fill="#CCF2EA"/>
<path d="M61.7289 133.589C61.6319 133.718 61.5022 133.818 61.3533 133.879C61.2044 133.94 61.0418 133.96 60.8826 133.936C58.1878 133.622 55.4573 133.992 52.9429 135.011C50.4285 136.03 48.2112 137.666 46.4956 139.767C46.4028 139.885 46.2814 139.977 46.1429 140.035C46.0044 140.093 45.8534 140.114 45.7043 140.097C45.2946 140.045 44.8819 140.018 44.4688 140.017" stroke="#152272" stroke-width="1.94386" stroke-miterlimit="10"/>
<path d="M105.352 132.853H104.89C104.755 132.858 104.62 132.832 104.496 132.777C104.372 132.722 104.263 132.64 104.175 132.536C101.628 129.496 98.4443 127.052 94.8494 125.376C91.2544 123.7 87.3355 122.834 83.3691 122.837" stroke="#152272" stroke-width="1.94386" stroke-miterlimit="10"/>
<path d="M29.532 148.307C29.3359 148.379 29.1716 148.518 29.068 148.7C28.9644 148.881 28.9281 149.094 28.9655 149.299C29.0029 149.505 29.1116 149.691 29.2725 149.824C29.4334 149.958 29.6361 150.03 29.8452 150.029H121.596C121.717 150.029 121.836 150.005 121.947 149.957C122.058 149.909 122.158 149.84 122.242 149.752C122.325 149.665 122.389 149.561 122.431 149.448C122.473 149.335 122.491 149.214 122.485 149.094" stroke="#152272" stroke-width="1.94386" stroke-miterlimit="10"/>
<path d="M237.863 52.2525H238.329C238.465 52.2565 238.599 52.2297 238.723 52.174C238.847 52.1183 238.957 52.0352 239.044 51.9309C241.666 48.8068 244.958 46.3135 248.676 44.6358C252.394 42.9582 256.442 42.1394 260.519 42.2402C264.597 42.341 268.599 43.3589 272.23 45.2182C275.86 47.0775 279.025 49.7305 281.49 52.9803C281.584 53.1047 281.71 53.2021 281.854 53.263C281.998 53.3238 282.155 53.346 282.311 53.3273C282.933 53.2578 283.559 53.2225 284.185 53.2215C286.582 53.2179 288.95 53.7476 291.117 54.7722C293.284 55.7968 295.196 57.2907 296.715 59.1456C296.807 59.2635 296.929 59.3557 297.067 59.4135C297.206 59.4712 297.357 59.4926 297.506 59.4756C297.916 59.4245 298.328 59.399 298.741 59.3995C300.563 59.3997 302.35 59.8977 303.91 60.8396C305.469 61.7815 306.741 63.1315 307.589 64.7438C307.844 65.2362 308.27 65.6184 308.787 65.8186L313.691 67.6678C313.888 67.7403 314.052 67.8798 314.156 68.0618C314.259 68.2438 314.295 68.4565 314.257 68.6625C314.22 68.8684 314.11 69.0543 313.948 69.1874C313.787 69.3205 313.583 69.3923 313.374 69.39H221.64C221.519 69.3901 221.4 69.3657 221.289 69.3182C221.178 69.2706 221.078 69.201 220.994 69.1135C220.911 69.026 220.847 68.9224 220.805 68.8092C220.763 68.6959 220.745 68.5754 220.751 68.4548C220.994 64.0795 222.903 59.9631 226.085 56.9503C229.267 53.9375 233.481 52.2566 237.863 52.2525Z" fill="white"/>
<path d="M281.49 52.9717C281.585 53.096 281.711 53.1935 281.855 53.2543C281.999 53.3152 282.156 53.3374 282.311 53.3187C282.934 53.2492 283.559 53.2139 284.186 53.2129C286.583 53.2092 288.951 53.7389 291.118 54.7635C293.285 55.7881 295.197 57.282 296.715 59.1369C296.808 59.2548 296.929 59.3471 297.068 59.4048C297.206 59.4626 297.357 59.484 297.506 59.467C297.916 59.4158 298.329 59.3904 298.742 59.3908" stroke="#152272" stroke-width="1.94386" stroke-miterlimit="10"/>
<path d="M237.863 52.2522H238.329C238.465 52.2563 238.599 52.2294 238.723 52.1737C238.847 52.118 238.957 52.0349 239.044 51.9306C241.59 48.8889 244.774 46.4432 248.369 44.766C251.964 43.0887 255.883 42.2209 259.85 42.2236" stroke="#152272" stroke-width="1.94386" stroke-miterlimit="10"/>
<path d="M313.691 67.6719C313.888 67.7444 314.052 67.8839 314.156 68.0659C314.259 68.2479 314.295 68.4606 314.257 68.6666C314.22 68.8725 314.11 69.0584 313.948 69.1915C313.787 69.3246 313.583 69.3964 313.374 69.3941H221.64C221.519 69.3942 221.4 69.3698 221.289 69.3223C221.178 69.2747 221.078 69.2051 220.994 69.1176C220.911 69.0301 220.847 68.9265 220.805 68.8133C220.763 68.7001 220.745 68.5795 220.751 68.4589" stroke="#152272" stroke-width="1.94386" stroke-miterlimit="10"/>
<path d="M379.435 342.434L367.507 330.506V271.866H325.053V296.514H304.263L275.028 325.749V370.654H258.652V361.67H232.768V374.877H207.113V339.256L163.567 295.714H44.1844V264.249H33.0895V244.285H10.2988V245.043C10.2988 315.759 80.152 373.087 166.317 373.087C168.656 373.087 170.982 373.046 173.295 372.964C179.773 372.736 186.211 374.068 192.066 376.849C263.675 410.713 343.527 394.879 379.435 342.434Z" fill="#CCF2EA"/>
<path d="M33.0895 244.285H10.2988V245.043" stroke="#152272" stroke-width="1.94386" stroke-linecap="round" stroke-linejoin="round"/>
<path d="M44.1848 264.249H33.0898" stroke="#152272" stroke-width="1.94386" stroke-linecap="round" stroke-linejoin="round"/>
<path d="M232.768 374.877H207.112V339.256L163.566 295.714H44.1836" stroke="#152272" stroke-width="1.94386" stroke-linecap="round" stroke-linejoin="round"/>
<path d="M258.651 370.654V361.67H232.768" stroke="#152272" stroke-width="1.94386" stroke-linecap="round" stroke-linejoin="round"/>
<path d="M304.263 296.514L275.027 325.749V370.654" stroke="#152272" stroke-width="1.94386" stroke-linecap="round" stroke-linejoin="round"/>
<path d="M325.053 271.866V296.514" stroke="#152272" stroke-width="1.94386" stroke-linecap="round" stroke-linejoin="round"/>
<path d="M379.436 342.434L367.508 330.505V271.866" stroke="#152272" stroke-width="1.94386" stroke-linecap="round" stroke-linejoin="round"/>
<path d="M166.312 373.087C168.651 373.087 170.977 373.046 173.29 372.964C179.768 372.736 186.206 374.068 192.061 376.848" stroke="#152272" stroke-width="1.94386" stroke-linecap="round" stroke-linejoin="round"/>
<path d="M245.727 253.467C236.219 255.228 215.616 271.24 215.616 271.24L212.104 276.956L223.719 290.434C252.417 288.847 239.176 263.517 239.176 263.517C239.176 263.517 255.235 251.707 245.727 253.467Z" fill="#409DE2"/>
<path d="M352.761 174.825H234.157C230.474 174.825 227.488 177.811 227.488 181.494V251.791C227.488 255.475 230.474 258.46 234.157 258.46H352.761C356.444 258.46 359.43 255.475 359.43 251.791V181.494C359.43 177.811 356.444 174.825 352.761 174.825Z" fill="#CCF2EA"/>
<path d="M227.488 192.395H359.43V212.202H227.488V192.395Z" fill="white"/>
<path d="M286.175 191.493C287.94 191.493 289.37 190.063 289.37 188.298C289.37 186.534 287.94 185.104 286.175 185.104C284.411 185.104 282.98 186.534 282.98 188.298C282.98 190.063 284.411 191.493 286.175 191.493Z" fill="#3DE8CF"/>
<path d="M298.197 191.493C299.961 191.493 301.391 190.063 301.391 188.298C301.391 186.534 299.961 185.104 298.197 185.104C296.432 185.104 295.002 186.534 295.002 188.298C295.002 190.063 296.432 191.493 298.197 191.493Z" fill="#3DE8CF"/>
<path d="M310.218 191.493C311.983 191.493 313.413 190.063 313.413 188.298C313.413 186.534 311.983 185.104 310.218 185.104C308.454 185.104 307.023 186.534 307.023 188.298C307.023 190.063 308.454 191.493 310.218 191.493Z" fill="#3DE8CF"/>
<path d="M322.24 191.493C324.004 191.493 325.434 190.063 325.434 188.298C325.434 186.534 324.004 185.104 322.24 185.104C320.475 185.104 319.045 186.534 319.045 188.298C319.045 190.063 320.475 191.493 322.24 191.493Z" fill="#3DE8CF"/>
<path d="M334.261 191.493C336.026 191.493 337.456 190.063 337.456 188.298C337.456 186.534 336.026 185.104 334.261 185.104C332.497 185.104 331.066 186.534 331.066 188.298C331.066 190.063 332.497 191.493 334.261 191.493Z" fill="#3DE8CF"/>
<path d="M346.283 191.493C348.047 191.493 349.477 190.063 349.477 188.298C349.477 186.534 348.047 185.104 346.283 185.104C344.518 185.104 343.088 186.534 343.088 188.298C343.088 190.063 344.518 191.493 346.283 191.493Z" fill="#3DE8CF"/>
<path d="M358.304 191.493C360.069 191.493 361.499 190.063 361.499 188.298C361.499 186.534 360.069 185.104 358.304 185.104C356.54 185.104 355.109 186.534 355.109 188.298C355.109 190.063 356.54 191.493 358.304 191.493Z" fill="#3DE8CF"/>
<path d="M370.326 191.493C372.09 191.493 373.52 190.063 373.52 188.298C373.52 186.534 372.09 185.104 370.326 185.104C368.561 185.104 367.131 186.534 367.131 188.298C367.131 190.063 368.561 191.493 370.326 191.493Z" fill="#3DE8CF"/>
<path d="M292.183 201.894C293.947 201.894 295.378 200.464 295.378 198.699C295.378 196.935 293.947 195.504 292.183 195.504C290.419 195.504 288.988 196.935 288.988 198.699C288.988 200.464 290.419 201.894 292.183 201.894Z" fill="#3DE8CF"/>
<path d="M304.206 201.894C305.971 201.894 307.401 200.464 307.401 198.699C307.401 196.935 305.971 195.504 304.206 195.504C302.442 195.504 301.012 196.935 301.012 198.699C301.012 200.464 302.442 201.894 304.206 201.894Z" fill="#3DE8CF"/>
<path d="M316.228 201.894C317.992 201.894 319.423 200.464 319.423 198.699C319.423 196.935 317.992 195.504 316.228 195.504C314.464 195.504 313.033 196.935 313.033 198.699C313.033 200.464 314.464 201.894 316.228 201.894Z" fill="#3DE8CF"/>
<path d="M328.249 201.894C330.014 201.894 331.444 200.464 331.444 198.699C331.444 196.935 330.014 195.504 328.249 195.504C326.485 195.504 325.055 196.935 325.055 198.699C325.055 200.464 326.485 201.894 328.249 201.894Z" fill="#3DE8CF"/>
<path d="M340.271 201.894C342.035 201.894 343.466 200.464 343.466 198.699C343.466 196.935 342.035 195.504 340.271 195.504C338.507 195.504 337.076 196.935 337.076 198.699C337.076 200.464 338.507 201.894 340.271 201.894Z" fill="#3DE8CF"/>
<path d="M352.292 201.894C354.057 201.894 355.487 200.464 355.487 198.699C355.487 196.935 354.057 195.504 352.292 195.504C350.528 195.504 349.098 196.935 349.098 198.699C349.098 200.464 350.528 201.894 352.292 201.894Z" fill="#3DE8CF"/>
<path d="M364.314 201.894C366.078 201.894 367.509 200.464 367.509 198.699C367.509 196.935 366.078 195.504 364.314 195.504C362.549 195.504 361.119 196.935 361.119 198.699C361.119 200.464 362.549 201.894 364.314 201.894Z" fill="#3DE8CF"/>
<path d="M286.175 212.291C287.94 212.291 289.37 210.861 289.37 209.096C289.37 207.332 287.94 205.901 286.175 205.901C284.411 205.901 282.98 207.332 282.98 209.096C282.98 210.861 284.411 212.291 286.175 212.291Z" fill="#3DE8CF"/>
<path d="M298.197 212.291C299.961 212.291 301.391 210.861 301.391 209.096C301.391 207.332 299.961 205.901 298.197 205.901C296.432 205.901 295.002 207.332 295.002 209.096C295.002 210.861 296.432 212.291 298.197 212.291Z" fill="#3DE8CF"/>
<path d="M310.218 212.291C311.983 212.291 313.413 210.861 313.413 209.096C313.413 207.332 311.983 205.901 310.218 205.901C308.454 205.901 307.023 207.332 307.023 209.096C307.023 210.861 308.454 212.291 310.218 212.291Z" fill="#3DE8CF"/>
<path d="M322.24 212.291C324.004 212.291 325.434 210.861 325.434 209.096C325.434 207.332 324.004 205.901 322.24 205.901C320.475 205.901 319.045 207.332 319.045 209.096C319.045 210.861 320.475 212.291 322.24 212.291Z" fill="#3DE8CF"/>
<path d="M334.261 212.291C336.026 212.291 337.456 210.861 337.456 209.096C337.456 207.332 336.026 205.901 334.261 205.901C332.497 205.901 331.066 207.332 331.066 209.096C331.066 210.861 332.497 212.291 334.261 212.291Z" fill="#3DE8CF"/>
<path d="M346.283 212.291C348.047 212.291 349.477 210.861 349.477 209.096C349.477 207.332 348.047 205.901 346.283 205.901C344.518 205.901 343.088 207.332 343.088 209.096C343.088 210.861 344.518 212.291 346.283 212.291Z" fill="#3DE8CF"/>
<path d="M358.304 212.291C360.069 212.291 361.499 210.861 361.499 209.096C361.499 207.332 360.069 205.901 358.304 205.901C356.54 205.901 355.109 207.332 355.109 209.096C355.109 210.861 356.54 212.291 358.304 212.291Z" fill="#3DE8CF"/>
<path d="M370.326 212.291C372.09 212.291 373.52 210.861 373.52 209.096C373.52 207.332 372.09 205.901 370.326 205.901C368.561 205.901 367.131 207.332 367.131 209.096C367.131 210.861 368.561 212.291 370.326 212.291Z" fill="#3DE8CF"/>
<path d="M292.183 222.692C293.947 222.692 295.378 221.261 295.378 219.497C295.378 217.733 293.947 216.302 292.183 216.302C290.419 216.302 288.988 217.733 288.988 219.497C288.988 221.261 290.419 222.692 292.183 222.692Z" fill="#3DE8CF"/>
<path d="M304.206 222.692C305.971 222.692 307.401 221.261 307.401 219.497C307.401 217.733 305.971 216.302 304.206 216.302C302.442 216.302 301.012 217.733 301.012 219.497C301.012 221.261 302.442 222.692 304.206 222.692Z" fill="#3DE8CF"/>
<path d="M316.228 222.692C317.992 222.692 319.423 221.261 319.423 219.497C319.423 217.733 317.992 216.302 316.228 216.302C314.464 216.302 313.033 217.733 313.033 219.497C313.033 221.261 314.464 222.692 316.228 222.692Z" fill="#3DE8CF"/>
<path d="M328.249 222.692C330.014 222.692 331.444 221.261 331.444 219.497C331.444 217.733 330.014 216.302 328.249 216.302C326.485 216.302 325.055 217.733 325.055 219.497C325.055 221.261 326.485 222.692 328.249 222.692Z" fill="#3DE8CF"/>
<path d="M340.271 222.692C342.035 222.692 343.466 221.261 343.466 219.497C343.466 217.733 342.035 216.302 340.271 216.302C338.507 216.302 337.076 217.733 337.076 219.497C337.076 221.261 338.507 222.692 340.271 222.692Z" fill="#3DE8CF"/>
<path d="M352.292 222.692C354.057 222.692 355.487 221.261 355.487 219.497C355.487 217.733 354.057 216.302 352.292 216.302C350.528 216.302 349.098 217.733 349.098 219.497C349.098 221.261 350.528 222.692 352.292 222.692Z" fill="#3DE8CF"/>
<path d="M364.314 222.692C366.078 222.692 367.509 221.261 367.509 219.497C367.509 217.733 366.078 216.302 364.314 216.302C362.549 216.302 361.119 217.733 361.119 219.497C361.119 221.261 362.549 222.692 364.314 222.692Z" fill="#3DE8CF"/>
<path d="M286.175 233.093C287.94 233.093 289.37 231.662 289.37 229.898C289.37 228.133 287.94 226.703 286.175 226.703C284.411 226.703 282.98 228.133 282.98 229.898C282.98 231.662 284.411 233.093 286.175 233.093Z" fill="#3DE8CF"/>
<path d="M298.197 233.093C299.961 233.093 301.391 231.662 301.391 229.898C301.391 228.133 299.961 226.703 298.197 226.703C296.432 226.703 295.002 228.133 295.002 229.898C295.002 231.662 296.432 233.093 298.197 233.093Z" fill="#3DE8CF"/>
<path d="M310.218 233.093C311.983 233.093 313.413 231.662 313.413 229.898C313.413 228.133 311.983 226.703 310.218 226.703C308.454 226.703 307.023 228.133 307.023 229.898C307.023 231.662 308.454 233.093 310.218 233.093Z" fill="#3DE8CF"/>
<path d="M322.24 233.093C324.004 233.093 325.434 231.662 325.434 229.898C325.434 228.133 324.004 226.703 322.24 226.703C320.475 226.703 319.045 228.133 319.045 229.898C319.045 231.662 320.475 233.093 322.24 233.093Z" fill="#3DE8CF"/>
<path d="M334.261 233.093C336.026 233.093 337.456 231.662 337.456 229.898C337.456 228.133 336.026 226.703 334.261 226.703C332.497 226.703 331.066 228.133 331.066 229.898C331.066 231.662 332.497 233.093 334.261 233.093Z" fill="#3DE8CF"/>
<path d="M346.283 233.093C348.047 233.093 349.477 231.662 349.477 229.898C349.477 228.133 348.047 226.703 346.283 226.703C344.518 226.703 343.088 228.133 343.088 229.898C343.088 231.662 344.518 233.093 346.283 233.093Z" fill="#3DE8CF"/>
<path d="M358.304 233.093C360.069 233.093 361.499 231.662 361.499 229.898C361.499 228.133 360.069 226.703 358.304 226.703C356.54 226.703 355.109 228.133 355.109 229.898C355.109 231.662 356.54 233.093 358.304 233.093Z" fill="#3DE8CF"/>
<path d="M370.326 233.093C372.09 233.093 373.52 231.662 373.52 229.898C373.52 228.133 372.09 226.703 370.326 226.703C368.561 226.703 367.131 228.133 367.131 229.898C367.131 231.662 368.561 233.093 370.326 233.093Z" fill="#3DE8CF"/>
<path d="M292.183 243.49C293.947 243.49 295.378 242.059 295.378 240.295C295.378 238.53 293.947 237.1 292.183 237.1C290.419 237.1 288.988 238.53 288.988 240.295C288.988 242.059 290.419 243.49 292.183 243.49Z" fill="#3DE8CF"/>
<path d="M304.206 243.49C305.971 243.49 307.401 242.059 307.401 240.295C307.401 238.53 305.971 237.1 304.206 237.1C302.442 237.1 301.012 238.53 301.012 240.295C301.012 242.059 302.442 243.49 304.206 243.49Z" fill="#3DE8CF"/>
<path d="M316.228 243.49C317.992 243.49 319.423 242.059 319.423 240.295C319.423 238.53 317.992 237.1 316.228 237.1C314.464 237.1 313.033 238.53 313.033 240.295C313.033 242.059 314.464 243.49 316.228 243.49Z" fill="#3DE8CF"/>
<path d="M328.249 243.49C330.014 243.49 331.444 242.059 331.444 240.295C331.444 238.53 330.014 237.1 328.249 237.1C326.485 237.1 325.055 238.53 325.055 240.295C325.055 242.059 326.485 243.49 328.249 243.49Z" fill="#3DE8CF"/>
<path d="M340.271 243.49C342.035 243.49 343.466 242.059 343.466 240.295C343.466 238.53 342.035 237.1 340.271 237.1C338.507 237.1 337.076 238.53 337.076 240.295C337.076 242.059 338.507 243.49 340.271 243.49Z" fill="#3DE8CF"/>
<path d="M352.292 243.49C354.057 243.49 355.487 242.059 355.487 240.295C355.487 238.53 354.057 237.1 352.292 237.1C350.528 237.1 349.098 238.53 349.098 240.295C349.098 242.059 350.528 243.49 352.292 243.49Z" fill="#3DE8CF"/>
<path d="M364.314 243.49C366.078 243.49 367.509 242.059 367.509 240.295C367.509 238.53 366.078 237.1 364.314 237.1C362.549 237.1 361.119 238.53 361.119 240.295C361.119 242.059 362.549 243.49 364.314 243.49Z" fill="#3DE8CF"/>
<path d="M286.175 253.891C287.94 253.891 289.37 252.46 289.37 250.696C289.37 248.931 287.94 247.501 286.175 247.501C284.411 247.501 282.98 248.931 282.98 250.696C282.98 252.46 284.411 253.891 286.175 253.891Z" fill="#3DE8CF"/>
<path d="M298.197 253.891C299.961 253.891 301.391 252.46 301.391 250.696C301.391 248.931 299.961 247.501 298.197 247.501C296.432 247.501 295.002 248.931 295.002 250.696C295.002 252.46 296.432 253.891 298.197 253.891Z" fill="#3DE8CF"/>
<path d="M310.218 253.891C311.983 253.891 313.413 252.46 313.413 250.696C313.413 248.931 311.983 247.501 310.218 247.501C308.454 247.501 307.023 248.931 307.023 250.696C307.023 252.46 308.454 253.891 310.218 253.891Z" fill="#3DE8CF"/>
<path d="M322.24 253.891C324.004 253.891 325.434 252.46 325.434 250.696C325.434 248.931 324.004 247.501 322.24 247.501C320.475 247.501 319.045 248.931 319.045 250.696C319.045 252.46 320.475 253.891 322.24 253.891Z" fill="#3DE8CF"/>
<path d="M334.261 253.891C336.026 253.891 337.456 252.46 337.456 250.696C337.456 248.931 336.026 247.501 334.261 247.501C332.497 247.501 331.066 248.931 331.066 250.696C331.066 252.46 332.497 253.891 334.261 253.891Z" fill="#3DE8CF"/>
<path d="M346.283 253.891C348.047 253.891 349.477 252.46 349.477 250.696C349.477 248.931 348.047 247.501 346.283 247.501C344.518 247.501 343.088 248.931 343.088 250.696C343.088 252.46 344.518 253.891 346.283 253.891Z" fill="#3DE8CF"/>
<path d="M358.304 253.891C360.069 253.891 361.499 252.46 361.499 250.696C361.499 248.931 360.069 247.501 358.304 247.501C356.54 247.501 355.109 248.931 355.109 250.696C355.109 252.46 356.54 253.891 358.304 253.891Z" fill="#3DE8CF"/>
<path d="M370.326 253.891C372.09 253.891 373.52 252.46 373.52 250.696C373.52 248.931 372.09 247.501 370.326 247.501C368.561 247.501 367.131 248.931 367.131 250.696C367.131 252.46 368.561 253.891 370.326 253.891Z" fill="#3DE8CF"/>
<path d="M292.183 264.291C293.947 264.291 295.378 262.861 295.378 261.097C295.378 259.332 293.947 257.902 292.183 257.902C290.419 257.902 288.988 259.332 288.988 261.097C288.988 262.861 290.419 264.291 292.183 264.291Z" fill="#3DE8CF"/>
<path d="M304.206 264.291C305.971 264.291 307.401 262.861 307.401 261.097C307.401 259.332 305.971 257.902 304.206 257.902C302.442 257.902 301.012 259.332 301.012 261.097C301.012 262.861 302.442 264.291 304.206 264.291Z" fill="#3DE8CF"/>
<path d="M316.228 264.291C317.992 264.291 319.423 262.861 319.423 261.097C319.423 259.332 317.992 257.902 316.228 257.902C314.464 257.902 313.033 259.332 313.033 261.097C313.033 262.861 314.464 264.291 316.228 264.291Z" fill="#3DE8CF"/>
<path d="M328.249 264.291C330.014 264.291 331.444 262.861 331.444 261.097C331.444 259.332 330.014 257.902 328.249 257.902C326.485 257.902 325.055 259.332 325.055 261.097C325.055 262.861 326.485 264.291 328.249 264.291Z" fill="#3DE8CF"/>
<path d="M340.271 264.291C342.035 264.291 343.466 262.861 343.466 261.097C343.466 259.332 342.035 257.902 340.271 257.902C338.507 257.902 337.076 259.332 337.076 261.097C337.076 262.861 338.507 264.291 340.271 264.291Z" fill="#3DE8CF"/>
<path d="M352.292 264.291C354.057 264.291 355.487 262.861 355.487 261.097C355.487 259.332 354.057 257.902 352.292 257.902C350.528 257.902 349.098 259.332 349.098 261.097C349.098 262.861 350.528 264.291 352.292 264.291Z" fill="#3DE8CF"/>
<path d="M364.314 264.291C366.078 264.291 367.509 262.861 367.509 261.097C367.509 259.332 366.078 257.902 364.314 257.902C362.549 257.902 361.119 259.332 361.119 261.097C361.119 262.861 362.549 264.291 364.314 264.291Z" fill="#3DE8CF"/>
<path d="M407.698 103.051H289.095C285.411 103.051 282.426 106.037 282.426 109.72V180.018C282.426 183.701 285.411 186.686 289.095 186.686H407.698C411.382 186.686 414.367 183.701 414.367 180.018V109.72C414.367 106.037 411.382 103.051 407.698 103.051Z" fill="#152272"/>
<path d="M215.864 268.172C210.092 269.293 185.249 269.75 185.249 269.75L118.815 186.69C118.815 186.69 39.9576 242.288 55.2797 314.13C70.6019 385.972 214.282 304.867 227.501 283.735C227.488 283.735 221.64 267.046 215.864 268.172Z" fill="#CCF2EA"/>
<path d="M304.438 243.697C294.926 245.457 274.327 261.469 274.327 261.469L270.811 267.211L282.426 280.684C311.128 279.101 297.888 253.768 297.888 253.768C297.888 253.768 313.946 241.936 304.438 243.697Z" fill="#409DE2"/>
<path d="M199.366 145.699L199.366 145.699C199.34 144.926 199.507 144.159 199.853 143.467C200.199 142.776 200.712 142.182 201.345 141.739L201.346 141.738C202.055 141.243 202.554 140.501 202.744 139.656C202.933 138.812 202.8 137.927 202.371 137.176L202.37 137.176L190.059 115.619C188.869 117.844 187.024 119.023 184.843 119.534C182.385 120.11 179.508 119.836 176.678 119.354C175.431 119.142 174.176 118.886 172.957 118.637C172.786 118.602 172.617 118.568 172.448 118.533C171.066 118.252 169.74 117.991 168.506 117.816C167.27 117.64 166.152 117.556 165.185 117.622C164.216 117.687 163.44 117.901 162.857 118.286C161.541 119.154 160.701 120.818 160.129 122.928C159.606 124.855 159.335 127.039 159.078 129.102C159.056 129.281 159.034 129.46 159.011 129.638C158.874 130.736 158.734 131.792 158.554 132.72C158.375 133.642 158.149 134.482 157.822 135.132C157.495 135.78 157.017 136.338 156.29 136.503C155.579 136.665 154.813 136.406 154.012 135.876L154.012 135.875C151.97 134.522 149.9 134.199 148.192 134.661C146.49 135.121 145.081 136.377 144.368 138.323L144.368 138.323C143.521 140.634 144.033 142.789 145.16 144.692C146.294 146.606 148.03 148.224 149.533 149.388C150.417 150.068 151.026 151.044 151.249 152.137C151.473 153.229 151.295 154.366 150.748 155.338L150.748 155.338L143.059 169.002C143.059 169.002 143.059 169.002 143.059 169.002C139.877 174.658 137.384 180.675 135.631 186.924L199.366 145.699ZM199.366 145.699L199.696 155.271C199.738 156.493 199.538 157.711 199.108 158.855C198.678 159.999 198.027 161.048 197.191 161.94C196.355 162.832 195.351 163.55 194.237 164.054C193.123 164.557 191.921 164.835 190.699 164.873L190.697 164.873L183.948 165.097C182.82 165.135 181.744 165.582 180.923 166.356C180.101 167.129 179.589 168.176 179.484 169.3L180.066 169.354M199.366 145.699L190.717 165.457L183.967 165.681C182.982 165.714 182.042 166.105 181.323 166.781C180.605 167.457 180.158 168.372 180.066 169.354M180.066 169.354L179.484 169.3L177.897 186.196L177.897 186.197C177.381 191.774 175.642 197.17 172.805 202M180.066 169.354L178.479 186.25C177.955 191.914 176.189 197.392 173.308 202.296M173.308 202.296L172.805 202M173.308 202.296L172.804 202C172.804 202 172.805 202 172.805 202M173.308 202.296C171.416 205.511 168.474 207.977 164.979 209.28C161.483 210.583 157.645 210.643 154.11 209.452M172.805 202C170.98 205.099 168.145 207.476 164.775 208.732C161.404 209.988 157.705 210.047 154.297 208.898M154.297 208.898L154.297 208.898L154.11 209.452M154.297 208.898L145.699 205.995L145.512 206.549M154.297 208.898L154.11 209.452M154.11 209.452L145.512 206.549M145.512 206.549L145.699 205.995C137.958 203.382 133.43 194.793 135.631 186.925L145.512 206.549Z" fill="white" stroke="black" stroke-width="1.16891"/>
<path d="M201.681 142.218C201.681 142.218 189.833 143.944 186.004 150.96C182.174 157.976 159.803 125.656 177.016 122.364C194.23 119.072 206.146 114.476 196.134 103.525C186.914 93.4417 164.131 98.5237 155.77 104.659C154.421 105.656 152.93 106.446 151.348 107.004C146.27 108.764 135.518 114.053 134.274 127.475C132.641 145.1 146.321 162.038 146.321 162.038L157.039 148.658C157.039 148.658 149.918 142.108 154.361 137.233C158.804 132.359 166.459 135.016 165.549 149.153C164.639 163.291 166.962 191.832 193.802 185.404C232.77 176.082 201.753 142.831 201.753 142.831" fill="#152272"/>
<path d="M174.207 188.083C168.593 183.755 164.178 178.064 161.381 171.55C158.317 164.247 152.575 156.19 142.174 156.19C128.443 156.19 124.5 170.547 123.37 178.524C122.916 181.716 121.293 184.626 118.817 186.69C107.468 196.156 75.3172 231.155 58.9583 333.146C45.8027 415.194 193.134 390.199 193.134 390.199C193.134 390.199 218.028 222.357 174.207 188.083Z" fill="white"/>
<path d="M80.8259 247.746C72.6423 268.954 64.8056 296.793 58.9746 333.146" stroke="#152272" stroke-width="1.94386" stroke-linecap="round" stroke-linejoin="round"/>
<path d="M147.208 199.444L189.866 212.202C189.866 212.202 205.818 256.095 205.036 295.715L272.71 261.139C274.728 260.092 277.03 259.721 279.275 260.081C281.52 260.441 283.59 261.514 285.18 263.141C288.006 266.103 289.999 270.994 287.846 279.072C287.846 279.072 240.605 379.045 186.032 367.023C131.459 355.002 121.684 242.148 147.208 199.444Z" fill="white"/>
<path d="M287.847 279.059C287.847 279.059 240.607 379.045 186.033 367.023C147.29 358.488 131.126 299.15 134.139 250.158" stroke="#152272" stroke-width="1.94386" stroke-linecap="round" stroke-linejoin="round"/>
<path d="M364.939 149.043C364.939 146.801 365.419 144.586 366.348 142.546C367.278 140.507 368.634 138.69 370.326 137.22C368.056 135.24 365.264 133.954 362.283 133.518C359.303 133.082 356.259 133.513 353.517 134.759C350.775 136.006 348.449 138.016 346.818 140.549C345.188 143.082 344.32 146.03 344.32 149.043C344.32 152.055 345.188 155.004 346.818 157.537C348.449 160.07 350.775 162.08 353.517 163.326C356.259 164.573 359.303 165.004 362.283 164.568C365.264 164.131 368.056 162.846 370.326 160.866C368.634 159.395 367.278 157.579 366.348 155.539C365.419 153.5 364.939 151.284 364.939 149.043Z" fill="#3DE8CF"/>
<path d="M380.63 133.357C376.84 133.352 373.179 134.725 370.326 137.22C372.019 138.69 373.377 140.506 374.307 142.546C375.237 144.585 375.719 146.801 375.719 149.043C375.719 151.285 375.237 153.501 374.307 155.54C373.377 157.58 372.019 159.396 370.326 160.866C372.236 162.533 374.522 163.712 376.987 164.302C379.452 164.892 382.024 164.876 384.482 164.256C386.939 163.635 389.21 162.428 391.099 160.737C392.989 159.047 394.44 156.924 395.329 154.55C396.218 152.176 396.519 149.622 396.206 147.107C395.892 144.591 394.973 142.189 393.528 140.106C392.083 138.023 390.155 136.322 387.909 135.147C385.662 133.972 383.165 133.36 380.63 133.361V133.357Z" fill="#409DE2"/>
<path d="M375.709 149.043C375.71 146.802 375.23 144.587 374.301 142.547C373.373 140.507 372.017 138.691 370.326 137.22C368.633 138.69 367.276 140.506 366.345 142.546C365.415 144.585 364.934 146.801 364.934 149.043C364.934 151.285 365.415 153.5 366.345 155.54C367.276 157.58 368.633 159.396 370.326 160.866C372.017 159.395 373.373 157.579 374.301 155.539C375.23 153.499 375.71 151.284 375.709 149.043Z" fill="#CCF2EA"/>
</svg>
