<svg width="18" height="17" viewBox="0 0 18 17" fill="none" xmlns="http://www.w3.org/2000/svg">
<path d="M8.73153 0.605256H14.7315C15.0688 0.59219 15.4053 0.643748 15.7197 0.756652C16.0341 0.869555 16.3195 1.04134 16.5578 1.26108C16.7961 1.48083 16.9821 1.74374 17.104 2.0331C17.2258 2.32246 17.2808 2.63196 17.2655 2.94192C17.2655 5.48939 17.2655 8.03656 17.2655 10.5834C17.2801 10.8932 17.2245 11.2025 17.1023 11.4915C16.9801 11.7806 16.794 12.0432 16.5558 12.2628C16.3175 12.4823 16.0322 12.654 15.7181 12.767C15.4039 12.88 15.0676 12.9318 14.7305 12.9192C14.0965 12.9192 13.4615 12.9192 12.8305 12.9192C12.7718 12.9164 12.7131 12.9256 12.6586 12.9461C12.6042 12.9666 12.5553 12.9979 12.5155 13.0377C11.4342 14.0391 10.3505 15.038 9.26453 16.0344C9.20672 16.1129 9.12887 16.1772 9.03778 16.2216C8.94669 16.266 8.84515 16.2893 8.74204 16.2893C8.63892 16.2893 8.53738 16.266 8.44629 16.2216C8.3552 16.1772 8.27735 16.1129 8.21953 16.0344C7.13487 15.0361 6.0512 14.0373 4.96853 13.0377C4.92866 12.9981 4.87976 12.967 4.82531 12.9466C4.77087 12.9263 4.71222 12.9172 4.65354 12.9201C4.00054 12.9256 3.34653 12.9201 2.69354 12.9201C2.36592 12.9257 2.04045 12.8705 1.73664 12.7577C1.43283 12.6448 1.15694 12.4768 0.925522 12.2635C0.694106 12.0503 0.511932 11.7963 0.389929 11.5167C0.267927 11.2372 0.208609 10.9379 0.215535 10.6367C0.215535 8.05434 0.215535 5.47224 0.215535 2.89044C0.207679 2.5878 0.266889 2.28684 0.389559 2.00589C0.51223 1.72494 0.695797 1.46986 0.929095 1.25618C1.16239 1.0425 1.44054 0.874688 1.74663 0.762943C2.05271 0.651197 2.38032 0.597859 2.70954 0.606175C4.7202 0.606175 6.73053 0.606175 8.74053 0.606175L8.73153 0.605256ZM8.74753 14.9185C8.80053 14.8716 8.84753 14.8266 8.90053 14.7843C9.89587 13.8687 10.8902 12.9523 11.8835 12.0349C11.9632 11.9564 12.0604 11.8946 12.1684 11.8539C12.2765 11.8131 12.3928 11.7943 12.5095 11.7986C13.2645 11.8069 14.0195 11.7986 14.7735 11.7986C14.9439 11.8065 15.1141 11.7813 15.2732 11.7248C15.4322 11.6683 15.5766 11.5816 15.6969 11.4705C15.8172 11.3594 15.9108 11.2263 15.9715 11.0798C16.0323 10.9333 16.0589 10.7767 16.0495 10.6202C16.0495 8.04637 16.0495 5.4753 16.0495 2.90699C16.0597 2.74898 16.0334 2.59078 15.9722 2.44282C15.911 2.29487 15.8164 2.16051 15.6946 2.04863C15.5728 1.93675 15.4266 1.84988 15.2655 1.79376C15.1045 1.73763 14.9324 1.71353 14.7605 1.72303H2.70754C2.53713 1.71402 2.36657 1.73815 2.207 1.79384C2.04742 1.84952 1.90241 1.93551 1.78144 2.04619C1.66046 2.15688 1.56623 2.28977 1.50491 2.43619C1.44358 2.58261 1.41654 2.73928 1.42554 2.89596C1.42554 5.46979 1.42554 8.04637 1.42554 10.6257C1.41699 10.7823 1.44438 10.9388 1.50595 11.0851C1.56751 11.2313 1.66185 11.364 1.78286 11.4746C1.90386 11.5851 2.04881 11.671 2.20829 11.7267C2.36777 11.7823 2.53821 11.8066 2.70853 11.7977C3.39953 11.7977 4.09254 11.817 4.78254 11.7913C4.96143 11.7812 5.14043 11.8092 5.30569 11.873C5.47094 11.9367 5.61802 12.0346 5.73553 12.159C6.72053 13.0837 7.72653 13.9891 8.74053 14.9166" fill="#57585A"/>
</svg>
