<svg width="33" height="36" viewBox="0 0 33 36" fill="none" xmlns="http://www.w3.org/2000/svg">
<path fill-rule="evenodd" clip-rule="evenodd" d="M20.7908 4.64429C19.5234 3.91481 18.0562 3.5 16.5 3.5C12.0823 3.5 8.38121 6.84325 7.93357 11.2383L7.50791 15.4175C7.41839 16.2964 7.37961 16.6643 7.30467 17.0187C7.21406 17.4472 7.08343 17.8662 6.91451 18.2703C6.77479 18.6045 6.59769 18.9293 6.17191 19.7034L4.87894 22.0542L4.84433 22.1172L4.84432 22.1172C4.5108 22.7234 4.20793 23.2739 4.03646 23.7359C3.85519 24.2243 3.71776 24.8804 4.09474 25.5179C4.47171 26.1555 5.11276 26.3512 5.62808 26.4278C6.11552 26.5002 6.74382 26.5001 7.43571 26.5H7.43577L7.50759 26.5H25.4925L25.5643 26.5H25.5644C26.2563 26.5001 26.8846 26.5002 27.372 26.4278C27.8873 26.3512 28.5284 26.1555 28.9054 25.5179C29.2823 24.8804 29.1449 24.2243 28.9636 23.7359C28.7922 23.2739 28.4893 22.7234 28.1558 22.1172L28.1212 22.0542L26.8282 19.7034C26.4024 18.9293 26.2253 18.6045 26.0856 18.2703C25.9167 17.8662 25.786 17.4472 25.6954 17.0187C25.6205 16.6643 25.5817 16.2964 25.4922 15.4175L25.4454 14.9585C25.2191 14.9858 24.9872 15 24.75 15C24.287 15 23.8437 14.946 23.4235 14.8451L23.5025 15.6201L23.5085 15.6794C23.5902 16.482 23.639 16.961 23.7387 17.4324C23.8552 17.9834 24.0231 18.5222 24.2403 19.0417C24.4262 19.4863 24.6582 19.9082 25.047 20.615L25.0758 20.6672L26.3687 23.0181C26.7483 23.7082 26.9753 24.1264 27.0886 24.4318L27.0942 24.447L27.0782 24.4495C26.7559 24.4973 26.2801 24.5 25.4925 24.5H7.50759C6.72 24.5 6.24416 24.4973 5.92192 24.4495L5.9059 24.447L5.91149 24.4318C6.02484 24.1264 6.25182 23.7082 6.63137 23.0181L7.92434 20.6672L7.95304 20.6151C8.34184 19.9082 8.57389 19.4863 8.75976 19.0417C8.97695 18.5222 9.1449 17.9834 9.2614 17.4324C9.3611 16.961 9.40987 16.4819 9.49158 15.6794L9.49158 15.6794L9.49761 15.6201L9.92327 11.4409C10.2669 8.06673 13.1084 5.5 16.5 5.5C17.6275 5.5 18.6942 5.78364 19.6285 6.28629C19.9233 5.67899 20.3154 5.12121 20.7908 4.64429ZM23.11 6.59167C22.5529 7.04391 22.1581 7.72077 22.0382 8.49938C22.5874 9.34047 22.9515 10.3173 23.0698 11.3751C23.5345 11.7669 24.1173 12 24.75 12C24.8828 12 25.0133 11.9897 25.141 11.9699L25.0665 11.2383C24.8863 9.46918 24.179 7.87049 23.11 6.59167ZM27.1448 24.6315C27.1446 24.6314 27.1444 24.6291 27.1444 24.6248C27.1449 24.6295 27.1449 24.6316 27.1448 24.6315ZM27.2742 24.4053C27.2779 24.4033 27.28 24.4024 27.2802 24.4025C27.2803 24.4025 27.2785 24.4035 27.2742 24.4053ZM5.71991 24.4025C5.72006 24.4024 5.72222 24.4033 5.72593 24.4053C5.72161 24.4035 5.71976 24.4025 5.71991 24.4025ZM5.85572 24.6248C5.85572 24.6291 5.85546 24.6314 5.85532 24.6315C5.85519 24.6316 5.85519 24.6295 5.85572 24.6248Z" fill="white"/>
<path d="M12.5156 26.497C12.7506 27.9323 13.2685 29.2006 13.9889 30.1051C14.7093 31.0097 15.5919 31.5 16.5 31.5C17.4081 31.5 18.2907 31.0097 19.0111 30.1051C19.7315 29.2006 20.2494 27.9323 20.4844 26.497" stroke="white" stroke-width="2" stroke-linecap="round"/>
<path d="M24.75 12.5C26.585 12.5 28 10.8912 28 9C28 7.10885 26.585 5.5 24.75 5.5C22.915 5.5 21.5 7.10885 21.5 9C21.5 10.8912 22.915 12.5 24.75 12.5Z" fill="white" stroke="white"/>
</svg>
