<svg width="17" height="17" viewBox="0 0 17 17" fill="none" xmlns="http://www.w3.org/2000/svg">
<path d="M7.084 0.676025C5.68292 0.676025 4.3133 1.09149 3.14834 1.86989C1.98339 2.64829 1.07541 3.75466 0.539241 5.0491C0.00306934 6.34353 -0.137217 7.76788 0.13612 9.14205C0.409458 10.5162 1.08414 11.7785 2.07486 12.7692C3.06557 13.7599 4.32782 14.4346 5.70198 14.7079C7.07615 14.9812 8.5005 14.841 9.79493 14.3048C11.0894 13.7686 12.1957 12.8606 12.9741 11.6957C13.7525 10.5307 14.168 9.16111 14.168 7.76003C14.1659 5.88188 13.4189 4.08127 12.0908 2.75322C10.7628 1.42517 8.96215 0.678143 7.084 0.676025V0.676025ZM7.084 13.536C5.94162 13.536 4.82489 13.1973 3.87503 12.5626C2.92517 11.9279 2.18485 11.0258 1.74768 9.9704C1.3105 8.91498 1.19612 7.75362 1.41899 6.63318C1.64186 5.51275 2.19197 4.48356 2.99975 3.67578C3.80754 2.86799 4.83673 2.31788 5.95716 2.09501C7.0776 1.87214 8.23896 1.98653 9.29438 2.4237C10.3498 2.86087 11.2519 3.60119 11.8866 4.55105C12.5212 5.50091 12.86 6.61764 12.86 7.76003C12.8582 9.29135 12.249 10.7594 11.1662 11.8422C10.0834 12.925 8.61532 13.5342 7.084 13.536Z" fill="#A70032"/>
<path d="M15.8939 15.6449L12.1449 11.8959C12.0222 11.7732 11.8558 11.7043 11.6824 11.7043C11.5089 11.7043 11.3425 11.7732 11.2199 11.8959C11.0972 12.0186 11.0283 12.1849 11.0283 12.3584C11.0283 12.5319 11.0972 12.6982 11.2199 12.8209L14.9689 16.5699C15.0915 16.6926 15.2579 16.7615 15.4314 16.7615C15.6048 16.7615 15.7712 16.6926 15.8939 16.5699C16.0166 16.4473 16.0854 16.2809 16.0854 16.1074C16.0854 15.9339 16.0166 15.7676 15.8939 15.6449Z" fill="#A70032"/>
</svg>
