<svg width="15" height="10" viewBox="0 0 15 10" fill="none" xmlns="http://www.w3.org/2000/svg">
<path opacity="0.5" d="M7.40501 6.51301L12.59 0.687014C12.6745 0.585447 12.7802 0.503717 12.8998 0.447626C13.0194 0.391535 13.1499 0.362457 13.282 0.362457C13.4141 0.362457 13.5446 0.391535 13.6642 0.447626C13.7838 0.503717 13.8895 0.585447 13.974 0.687014C14.158 0.905098 14.2589 1.18121 14.2589 1.46651C14.2589 1.75182 14.158 2.02793 13.974 2.24601L8.09901 8.84601C8.01684 8.94398 7.91474 9.02332 7.79951 9.07874C7.68428 9.13416 7.55857 9.16439 7.43074 9.16742C7.30291 9.17044 7.17591 9.1462 7.05818 9.0963C6.94046 9.0464 6.83472 8.97198 6.74801 8.87801L0.831007 2.24601C0.646307 2.02828 0.544922 1.75203 0.544922 1.46651C0.544922 1.18099 0.646307 0.904748 0.831007 0.687014C0.915466 0.585447 1.02125 0.503717 1.14084 0.447626C1.26044 0.391535 1.39091 0.362457 1.52301 0.362457C1.6551 0.362457 1.78558 0.391535 1.90517 0.447626C2.02477 0.503717 2.13055 0.585447 2.21501 0.687014L7.40501 6.51301Z" fill="black"/>
</svg>
