<svg width="105" height="16" viewBox="0 0 105 16" fill="none" xmlns="http://www.w3.org/2000/svg">
<path d="M14.1543 4.56467C14.0487 4.46218 13.935 4.32028 13.8132 4.13895C13.6914 3.94974 13.5737 3.75659 13.46 3.5595C13.4356 3.52008 13.3707 3.41365 13.2651 3.24021C13.1595 3.06677 13.0621 2.91697 12.9727 2.79084C12.8834 2.6647 12.7981 2.56221 12.7169 2.48337C12.1729 1.95516 11.5679 1.56098 10.902 1.30081C10.2442 1.04065 9.54988 0.910569 8.81903 0.910569C7.76334 0.910569 6.77668 1.17862 5.85905 1.71471C4.94954 2.24292 4.21868 3.01552 3.66647 4.03252C3.12239 5.04952 2.85035 6.25573 2.85035 7.65115C2.85035 9.0781 3.11427 10.3277 3.64211 11.3999C4.17807 12.4642 4.93329 13.288 5.90777 13.8714C6.89037 14.4469 8.03132 14.7347 9.33063 14.7347C10.435 14.7347 11.4136 14.5139 12.2662 14.0724C13.127 13.6231 13.7929 12.9648 14.2639 12.0976L14.8608 12.1803L14.7512 14.4154C13.866 14.8963 12.8428 15.2826 11.6816 15.5743C10.5284 15.8581 9.45244 16 8.4536 16C6.86195 16 5.42459 15.6807 4.14153 15.0421C2.85847 14.4035 1.84745 13.489 1.10847 12.2986C0.36949 11.1082 0 9.71668 0 8.12417C0 6.61838 0.37761 5.24661 1.13283 4.00887C1.88805 2.77113 2.95998 1.79355 4.34861 1.07613C5.73724 0.358709 7.34107 0 9.16009 0C10.8248 0 12.5139 0.323232 14.2274 0.969697L14.7268 4.54102L14.1543 4.56467Z" fill="#A70032"/>
<path d="M20.8295 9.40133L20.598 9.96896C20.2326 10.8914 19.9443 11.6521 19.7332 12.2513C19.522 12.8426 19.4165 13.2998 19.4165 13.6231C19.4165 13.9069 19.522 14.1394 19.7332 14.3208C19.9524 14.5021 20.2001 14.6361 20.4762 14.7228C20.7604 14.8096 21.1056 14.8923 21.5116 14.9712L21.743 15.0185V15.6925H15.9936V15.0776C16.1073 14.9909 16.221 14.9199 16.3347 14.8647C16.4565 14.8017 16.6067 14.7347 16.7854 14.6637C17.0696 14.5533 17.297 14.439 17.4675 14.3208C17.6462 14.2025 17.8045 14.0172 17.9426 13.765C18.0238 13.6073 18.105 13.4299 18.1862 13.2328C18.2755 13.0278 18.3324 12.8938 18.3567 12.8307L18.5029 12.4642L23.0586 1.13525C23.0911 1.04853 23.1154 0.898744 23.1317 0.685883C23.1398 0.528209 23.152 0.402069 23.1682 0.307465C23.1926 0.204977 23.2332 0.114314 23.29 0.0354767C23.6879 0.0354767 24.029 0.0748953 24.3132 0.153732C24.6056 0.23257 24.8979 0.378418 25.1903 0.591279L30.7813 13.6112C30.8869 13.8556 31.0087 14.0527 31.1468 14.2025C31.2848 14.3444 31.4269 14.4548 31.5731 14.5336C31.7274 14.6046 31.9345 14.6913 32.1943 14.7938C32.4136 14.8647 32.645 14.9593 32.8886 15.0776L32.8643 15.6925H25.7749L25.7506 15.0776C26.1323 14.9672 26.4571 14.8569 26.7251 14.7465C27.0012 14.6361 27.2488 14.4824 27.4681 14.2853C27.6874 14.0882 27.797 13.8477 27.797 13.5639C27.797 13.2486 27.391 12.0779 26.5789 10.0517C26.5302 9.93348 26.4814 9.81917 26.4327 9.7088C26.3921 9.59842 26.3556 9.49593 26.3231 9.40133H20.8295ZM23.4727 2.5425L21.2436 8.36068H25.8724L23.4727 2.5425Z" fill="#A70032"/>
<path d="M53.2065 12.4878C53.2796 13.2919 53.507 13.899 53.8886 14.3089C53.9536 14.4903 54.0795 14.6164 54.2662 14.6874C54.453 14.7504 54.7088 14.8017 55.0336 14.8411C55.2773 14.8726 55.46 14.9042 55.5818 14.9357C55.7036 14.9593 55.8092 15.0067 55.8985 15.0776L55.8741 15.6925H48.2854L48.261 15.0776L48.6386 14.9593C49.069 14.8253 49.4142 14.7031 49.674 14.5928C49.9339 14.4745 50.1572 14.305 50.344 14.0843C50.5307 13.8556 50.6241 13.56 50.6241 13.1973L49.8689 3.06282L45.2158 13.2683C44.9316 13.8911 44.6352 14.6992 44.3266 15.6925H43.3643C43.0313 14.9672 42.4751 13.8359 41.6955 12.2986C40.6723 10.2331 39.8561 8.56171 39.2471 7.28455C38.6381 5.99951 38.0818 4.746 37.5783 3.52402C37.5215 4.19414 37.42 5.15201 37.2738 6.39763C37.1114 7.84824 36.9896 9.06233 36.9084 10.0399C36.8271 11.0175 36.7865 11.9872 36.7865 12.949C36.7865 13.3747 36.8677 13.7137 37.0302 13.966C37.1926 14.2104 37.3956 14.3957 37.6392 14.5218C37.891 14.6479 38.2401 14.7859 38.6868 14.9357L39.1131 15.0776L39.0887 15.6925H33.1932L33.1688 15.0776C33.2338 15.054 33.449 14.9791 33.8144 14.8529C34.2042 14.7268 34.5128 14.6085 34.7401 14.4982C34.9675 14.3799 35.1624 14.2104 35.3248 13.9897C35.4954 13.7689 35.6009 13.4693 35.6415 13.0909L36.5673 4.24538C36.6241 3.67775 36.6526 3.1732 36.6526 2.73171C36.6526 2.40059 36.5876 2.13649 36.4577 1.93939C36.3358 1.7423 36.1775 1.59645 35.9826 1.50185C35.7877 1.40724 35.5278 1.3087 35.203 1.20621C34.8619 1.10372 34.594 1.00123 34.3991 0.898744L34.4234 0.295639H39.1618C39.3161 0.93422 39.4745 1.50973 39.6369 2.02217C39.8074 2.52673 40.0023 3.00764 40.2216 3.46489L44.6067 12.5351L48.9553 2.90909C49.1665 2.44395 49.3167 1.9867 49.406 1.53732C49.4954 1.08007 49.54 0.666174 49.54 0.295639H54.5829V0.910569L54.3637 0.981523C53.9089 1.13131 53.5476 1.26928 53.2796 1.39542C53.0197 1.52156 52.7964 1.70682 52.6096 1.95122C52.4229 2.19561 52.3295 2.51096 52.3295 2.89727L53.2065 12.4878Z" fill="#A70032"/>
<path d="M59.6381 3.50037C59.6381 2.90909 59.5853 2.47154 59.4797 2.18773C59.3823 1.90392 59.2401 1.70682 59.0534 1.59645C58.8747 1.48608 58.5824 1.37571 58.1763 1.26534C57.7703 1.15496 57.4008 1.03277 57.0679 0.898744L57.0922 0.295639H63.134C64.6607 0.295639 65.9965 0.378418 67.1415 0.543976C68.2865 0.701651 69.2854 1.09584 70.1381 1.72653C70.9907 2.34935 71.4171 3.30328 71.4171 4.58832C71.4171 5.6132 71.1653 6.47253 70.6618 7.1663C70.1584 7.86006 69.4803 8.37645 68.6276 8.71545C67.7831 9.04656 66.8411 9.21212 65.8016 9.21212C65.6149 9.21212 65.3144 9.18059 64.9002 9.11752C64.4861 9.05445 64.1085 8.96378 63.7674 8.84553C63.4345 8.72727 63.268 8.58931 63.268 8.43163C63.268 8.28973 63.4466 8.21877 63.8039 8.21877H63.9867C64.9693 8.21877 65.7854 8.13599 66.435 7.97044C67.0928 7.79699 67.6125 7.45799 67.9942 6.95344C68.384 6.441 68.5789 5.70781 68.5789 4.75388C68.5789 3.87879 68.3312 3.1732 67.8358 2.6371C67.3405 2.09313 66.7071 1.70682 65.9356 1.4782C65.1642 1.24169 64.3358 1.12343 63.4507 1.12343C63.0934 1.12343 62.6995 1.14314 62.2691 1.18256V12.4405C62.2691 13.1106 62.3138 13.5955 62.4031 13.895C62.4925 14.1946 62.6224 14.3917 62.7929 14.4863C62.9635 14.5809 63.2436 14.6598 63.6334 14.7228C64.1613 14.8096 64.6282 14.9278 65.0342 15.0776L65.0099 15.6925H57.0922L57.0557 15.0776L57.4455 14.9712C57.9246 14.845 58.3063 14.7228 58.5905 14.6046C58.8828 14.4784 59.1305 14.2932 59.3335 14.0488C59.5365 13.8044 59.6381 13.4772 59.6381 13.0673V3.50037Z" fill="#A70032"/>
<path d="M80.5528 0.910569C80.2198 1.02882 79.7894 1.1392 79.2616 1.24169C78.8231 1.32841 78.5064 1.42695 78.3115 1.53732C78.1247 1.63981 77.9785 1.84479 77.873 2.15225C77.7755 2.45184 77.7268 2.93274 77.7268 3.59497V8.64449C77.7268 10.5445 78.1207 12.0345 78.9084 13.1146C79.7042 14.1867 81.0522 14.7228 82.9524 14.7228C86.4362 14.7228 88.1781 12.6297 88.1781 8.44346V3.79601C88.1781 3.09436 88.1253 2.58192 88.0197 2.25868C87.9223 1.93545 87.768 1.71471 87.5568 1.59645C87.3457 1.47031 86.9925 1.34812 86.4971 1.22986C86.0261 1.1116 85.6404 1.00123 85.3399 0.898744V0.295639H91.9055L91.9298 0.910569C91.808 0.973639 91.674 1.02488 91.5278 1.0643C91.3898 1.09584 91.203 1.13131 90.9675 1.17073C90.6589 1.22592 90.4113 1.2811 90.2245 1.33629C90.0377 1.38359 89.8631 1.47031 89.7007 1.59645C89.5464 1.71471 89.4368 1.88027 89.3718 2.09313C89.2419 2.52673 89.1769 3.03129 89.1769 3.6068C89.1769 3.98522 89.185 4.58438 89.2013 5.40429C89.2175 6.22419 89.2256 6.83912 89.2256 7.24908C89.2256 9.04656 89.0632 10.5642 88.7384 11.8019C88.4217 13.0397 87.7436 14.0488 86.7042 14.8293C85.6729 15.6098 84.1502 16 82.1363 16C80.9669 16 79.8788 15.8226 78.8718 15.4678C77.8649 15.1052 77.0284 14.5455 76.3625 13.7886C75.7048 13.0318 75.315 12.0857 75.1932 10.9505C75.0957 10.1306 75.047 9.09387 75.047 7.84035C75.047 7.11505 75.0592 6.39763 75.0835 5.6881C75.0998 4.74205 75.1079 4.0404 75.1079 3.58315C75.1079 2.99975 75.0673 2.54644 74.9861 2.22321C74.9049 1.90786 74.7019 1.67135 74.377 1.51367C74.0603 1.356 73.6299 1.21015 73.0858 1.07613C72.8179 1.00517 72.6067 0.946046 72.4524 0.898744L72.489 0.295639H80.5284L80.5528 0.910569Z" fill="#A70032"/>
<path d="M94.5 10.9387C94.5812 11.0727 94.6462 11.2106 94.6949 11.3525C94.7517 11.4945 94.8126 11.6797 94.8776 11.9084C94.9101 11.9872 94.9385 12.0779 94.9629 12.1803C95.2471 13.087 95.7871 13.7847 96.5829 14.2735C97.3788 14.7623 98.2883 15.0067 99.3115 15.0067C99.8475 15.0067 100.367 14.916 100.871 14.7347C101.382 14.5455 101.8 14.2656 102.125 13.895C102.458 13.5166 102.625 13.0594 102.625 12.5233C102.625 12.0581 102.454 11.6245 102.113 11.2225C101.78 10.8204 101.362 10.4617 100.858 10.1463C100.363 9.82311 99.6769 9.42498 98.7999 8.95196C97.7686 8.4001 96.9321 7.91131 96.2906 7.48559C95.6491 7.05987 95.105 6.55531 94.6584 5.97191C94.2117 5.38064 93.9884 4.71446 93.9884 3.97339C93.9884 3.05888 94.2523 2.30599 94.7802 1.71471C95.3161 1.11555 95.9983 0.681941 96.8266 0.413895C97.663 0.137965 98.5441 0 99.4698 0C100.266 0 101.057 0.0946046 101.845 0.283814C102.641 0.473023 103.396 0.745011 104.111 1.09978L104.269 4.47007H103.514C103.416 4.28874 103.303 4.00099 103.173 3.6068L103.051 3.26386C102.775 2.49125 102.296 1.90786 101.614 1.51367C100.94 1.1116 100.16 0.910569 99.2749 0.910569C98.8202 0.910569 98.3614 0.985464 97.8985 1.13525C97.4356 1.28505 97.0458 1.51762 96.7291 1.83296C96.4205 2.14043 96.2662 2.52279 96.2662 2.98004C96.2662 3.40577 96.4287 3.80389 96.7535 4.17443C97.0783 4.54496 97.4803 4.88396 97.9594 5.19143C98.4385 5.49101 99.1003 5.86943 99.9449 6.32668C101.025 6.91008 101.898 7.42646 102.564 7.87583C103.238 8.31732 103.81 8.85341 104.281 9.48411C104.76 10.1148 105 10.8283 105 11.6245C105 12.61 104.72 13.4339 104.16 14.0961C103.599 14.7504 102.872 15.2313 101.979 15.5388C101.094 15.8463 100.152 16 99.1531 16C98.2599 16 97.2976 15.8936 96.2662 15.6807C95.243 15.46 94.4147 15.1604 93.7813 14.782V10.9623L94.5 10.9387Z" fill="#A70032"/>
</svg>
