<svg width="135" height="22" viewBox="0 0 135 22" fill="none" xmlns="http://www.w3.org/2000/svg">
<path d="M18.3281 6.03125C18.1927 5.89583 18.0469 5.70833 17.8906 5.46875C17.7344 5.21875 17.5833 4.96354 17.4375 4.70312C17.4062 4.65104 17.3229 4.51042 17.1875 4.28125C17.0521 4.05208 16.9271 3.85417 16.8125 3.6875C16.6979 3.52083 16.5885 3.38542 16.4844 3.28125C15.7865 2.58333 15.0104 2.0625 14.1562 1.71875C13.3125 1.375 12.4219 1.20312 11.4844 1.20312C10.1302 1.20312 8.86458 1.55729 7.6875 2.26562C6.52083 2.96354 5.58333 3.98438 4.875 5.32812C4.17708 6.67188 3.82812 8.26562 3.82812 10.1094C3.82812 11.9948 4.16667 13.6458 4.84375 15.0625C5.53125 16.4688 6.5 17.5573 7.75 18.3281C9.01042 19.0885 10.474 19.4688 12.1406 19.4688C13.5573 19.4688 14.8125 19.1771 15.9062 18.5938C17.0104 18 17.8646 17.1302 18.4688 15.9844L19.2344 16.0938L19.0938 19.0469C17.9583 19.6823 16.6458 20.1927 15.1562 20.5781C13.6771 20.9531 12.2969 21.1406 11.0156 21.1406C8.97396 21.1406 7.13021 20.7188 5.48438 19.875C3.83854 19.0312 2.54167 17.8229 1.59375 16.25C0.645833 14.6771 0.171875 12.8385 0.171875 10.7344C0.171875 8.74479 0.65625 6.93229 1.625 5.29688C2.59375 3.66146 3.96875 2.36979 5.75 1.42188C7.53125 0.473958 9.58854 0 11.9219 0C14.0573 0 16.224 0.427083 18.4219 1.28125L19.0625 6L18.3281 6.03125Z" fill="white"/>
<path d="M26.8906 12.4219L26.5938 13.1719C26.125 14.3906 25.7552 15.3958 25.4844 16.1875C25.2135 16.9688 25.0781 17.5729 25.0781 18C25.0781 18.375 25.2135 18.6823 25.4844 18.9219C25.7656 19.1615 26.0833 19.3385 26.4375 19.4531C26.8021 19.5677 27.2448 19.6771 27.7656 19.7812L28.0625 19.8438V20.7344H20.6875V19.9219C20.8333 19.8073 20.9792 19.7135 21.125 19.6406C21.2812 19.5573 21.474 19.4688 21.7031 19.375C22.0677 19.2292 22.3594 19.0781 22.5781 18.9219C22.8073 18.7656 23.0104 18.5208 23.1875 18.1875C23.2917 17.9792 23.3958 17.7448 23.5 17.4844C23.6146 17.2135 23.6875 17.0365 23.7188 16.9531L23.9062 16.4688L29.75 1.5C29.7917 1.38542 29.8229 1.1875 29.8438 0.90625C29.8542 0.697917 29.8698 0.53125 29.8906 0.40625C29.9219 0.270833 29.974 0.151042 30.0469 0.046875C30.5573 0.046875 30.9948 0.0989583 31.3594 0.203125C31.7344 0.307292 32.1094 0.5 32.4844 0.78125L39.6562 17.9844C39.7917 18.3073 39.9479 18.5677 40.125 18.7656C40.3021 18.9531 40.4844 19.099 40.6719 19.2031C40.8698 19.2969 41.1354 19.4115 41.4688 19.5469C41.75 19.6406 42.0469 19.7656 42.3594 19.9219L42.3281 20.7344H33.2344L33.2031 19.9219C33.6927 19.776 34.1094 19.6302 34.4531 19.4844C34.8073 19.3385 35.125 19.1354 35.4062 18.875C35.6875 18.6146 35.8281 18.2969 35.8281 17.9219C35.8281 17.5052 35.3073 15.9583 34.2656 13.2812C34.2031 13.125 34.1406 12.974 34.0781 12.8281C34.026 12.6823 33.9792 12.5469 33.9375 12.4219H26.8906ZM30.2812 3.35938L27.4219 11.0469H33.3594L30.2812 3.35938Z" fill="white"/>
<path d="M68.4219 16.5C68.5156 17.5625 68.8073 18.3646 69.2969 18.9062C69.3802 19.1458 69.5417 19.3125 69.7812 19.4062C70.0208 19.4896 70.349 19.5573 70.7656 19.6094C71.0781 19.651 71.3125 19.6927 71.4688 19.7344C71.625 19.7656 71.7604 19.8281 71.875 19.9219L71.8438 20.7344H62.1094L62.0781 19.9219L62.5625 19.7656C63.1146 19.5885 63.5573 19.4271 63.8906 19.2812C64.224 19.125 64.5104 18.901 64.75 18.6094C64.9896 18.3073 65.1094 17.9167 65.1094 17.4375L64.1406 4.04688L58.1719 17.5312C57.8073 18.3542 57.4271 19.4219 57.0312 20.7344H55.7969C55.3698 19.776 54.6562 18.2812 53.6562 16.25C52.3438 13.5208 51.2969 11.3125 50.5156 9.625C49.7344 7.92708 49.0208 6.27083 48.375 4.65625C48.3021 5.54167 48.1719 6.80729 47.9844 8.45312C47.776 10.3698 47.6198 11.974 47.5156 13.2656C47.4115 14.5573 47.3594 15.8385 47.3594 17.1094C47.3594 17.6719 47.4635 18.1198 47.6719 18.4531C47.8802 18.776 48.1406 19.0208 48.4531 19.1875C48.776 19.3542 49.224 19.5365 49.7969 19.7344L50.3438 19.9219L50.3125 20.7344H42.75L42.7188 19.9219C42.8021 19.8906 43.0781 19.7917 43.5469 19.625C44.0469 19.4583 44.4427 19.3021 44.7344 19.1562C45.026 19 45.276 18.776 45.4844 18.4844C45.7031 18.1927 45.8385 17.7969 45.8906 17.2969L47.0781 5.60938C47.151 4.85938 47.1875 4.19271 47.1875 3.60938C47.1875 3.17188 47.1042 2.82292 46.9375 2.5625C46.7812 2.30208 46.5781 2.10938 46.3281 1.98438C46.0781 1.85938 45.7448 1.72917 45.3281 1.59375C44.8906 1.45833 44.5469 1.32292 44.2969 1.1875L44.3281 0.390625H50.4062C50.6042 1.23438 50.8073 1.99479 51.0156 2.67188C51.2344 3.33854 51.4844 3.97396 51.7656 4.57812L57.3906 16.5625L62.9688 3.84375C63.2396 3.22917 63.4323 2.625 63.5469 2.03125C63.6615 1.42708 63.7188 0.880208 63.7188 0.390625H70.1875V1.20312L69.9062 1.29688C69.3229 1.49479 68.8594 1.67708 68.5156 1.84375C68.1823 2.01042 67.8958 2.25521 67.6562 2.57812C67.4167 2.90104 67.2969 3.31771 67.2969 3.82812L68.4219 16.5Z" fill="white"/>
<path d="M76.6719 4.625C76.6719 3.84375 76.6042 3.26562 76.4688 2.89062C76.3438 2.51562 76.1615 2.25521 75.9219 2.10938C75.6927 1.96354 75.3177 1.81771 74.7969 1.67188C74.276 1.52604 73.8021 1.36458 73.375 1.1875L73.4062 0.390625H81.1562C83.1146 0.390625 84.8281 0.5 86.2969 0.71875C87.7656 0.927083 89.0469 1.44792 90.1406 2.28125C91.2344 3.10417 91.7812 4.36458 91.7812 6.0625C91.7812 7.41667 91.4583 8.55208 90.8125 9.46875C90.1667 10.3854 89.2969 11.0677 88.2031 11.5156C87.1198 11.9531 85.9115 12.1719 84.5781 12.1719C84.3385 12.1719 83.9531 12.1302 83.4219 12.0469C82.8906 11.9635 82.4062 11.8438 81.9688 11.6875C81.5417 11.5312 81.3281 11.349 81.3281 11.1406C81.3281 10.9531 81.5573 10.8594 82.0156 10.8594H82.25C83.5104 10.8594 84.5573 10.75 85.3906 10.5312C86.2344 10.3021 86.901 9.85417 87.3906 9.1875C87.8906 8.51042 88.1406 7.54167 88.1406 6.28125C88.1406 5.125 87.8229 4.19271 87.1875 3.48438C86.5521 2.76562 85.7396 2.25521 84.75 1.95312C83.7604 1.64062 82.6979 1.48438 81.5625 1.48438C81.1042 1.48438 80.599 1.51042 80.0469 1.5625V16.4375C80.0469 17.3229 80.1042 17.9635 80.2188 18.3594C80.3333 18.7552 80.5 19.0156 80.7188 19.1406C80.9375 19.2656 81.2969 19.3698 81.7969 19.4531C82.474 19.5677 83.0729 19.724 83.5938 19.9219L83.5625 20.7344H73.4062L73.3594 19.9219L73.8594 19.7812C74.474 19.6146 74.9635 19.4531 75.3281 19.2969C75.7031 19.1302 76.0208 18.8854 76.2812 18.5625C76.5417 18.2396 76.6719 17.8073 76.6719 17.2656V4.625Z" fill="white"/>
<path d="M103.5 1.20312C103.073 1.35938 102.521 1.50521 101.844 1.64062C101.281 1.75521 100.875 1.88542 100.625 2.03125C100.385 2.16667 100.198 2.4375 100.062 2.84375C99.9375 3.23958 99.875 3.875 99.875 4.75V11.4219C99.875 13.9323 100.38 15.901 101.391 17.3281C102.411 18.7448 104.141 19.4531 106.578 19.4531C111.047 19.4531 113.281 16.6875 113.281 11.1562V5.01562C113.281 4.08854 113.214 3.41146 113.078 2.98438C112.953 2.55729 112.755 2.26562 112.484 2.10938C112.214 1.94271 111.76 1.78125 111.125 1.625C110.521 1.46875 110.026 1.32292 109.641 1.1875V0.390625H118.062L118.094 1.20312C117.938 1.28646 117.766 1.35417 117.578 1.40625C117.401 1.44792 117.161 1.49479 116.859 1.54688C116.464 1.61979 116.146 1.69271 115.906 1.76562C115.667 1.82812 115.443 1.94271 115.234 2.10938C115.036 2.26562 114.896 2.48438 114.812 2.76562C114.646 3.33854 114.562 4.00521 114.562 4.76562C114.562 5.26562 114.573 6.05729 114.594 7.14062C114.615 8.22396 114.625 9.03646 114.625 9.57812C114.625 11.9531 114.417 13.9583 114 15.5938C113.594 17.2292 112.724 18.5625 111.391 19.5938C110.068 20.625 108.115 21.1406 105.531 21.1406C104.031 21.1406 102.635 20.9062 101.344 20.4375C100.052 19.9583 98.9792 19.2188 98.125 18.2188C97.2812 17.2188 96.7812 15.9688 96.625 14.4688C96.5 13.3854 96.4375 12.0156 96.4375 10.3594C96.4375 9.40104 96.4531 8.45312 96.4844 7.51562C96.5052 6.26562 96.5156 5.33854 96.5156 4.73438C96.5156 3.96354 96.4635 3.36458 96.3594 2.9375C96.2552 2.52083 95.9948 2.20833 95.5781 2C95.1719 1.79167 94.6198 1.59896 93.9219 1.42188C93.5781 1.32812 93.3073 1.25 93.1094 1.1875L93.1562 0.390625H103.469L103.5 1.20312Z" fill="white"/>
<path d="M121.391 14.4531C121.495 14.6302 121.578 14.8125 121.641 15C121.714 15.1875 121.792 15.4323 121.875 15.7344C121.917 15.8385 121.953 15.9583 121.984 16.0938C122.349 17.2917 123.042 18.2135 124.062 18.8594C125.083 19.5052 126.25 19.8281 127.562 19.8281C128.25 19.8281 128.917 19.7083 129.562 19.4688C130.219 19.2188 130.755 18.849 131.172 18.3594C131.599 17.8594 131.812 17.2552 131.812 16.5469C131.812 15.9323 131.594 15.3594 131.156 14.8281C130.729 14.2969 130.193 13.8229 129.547 13.4062C128.911 12.9792 128.031 12.4531 126.906 11.8281C125.583 11.099 124.51 10.4531 123.688 9.89062C122.865 9.32812 122.167 8.66146 121.594 7.89062C121.021 7.10938 120.734 6.22917 120.734 5.25C120.734 4.04167 121.073 3.04688 121.75 2.26562C122.438 1.47396 123.312 0.901042 124.375 0.546875C125.448 0.182292 126.578 0 127.766 0C128.786 0 129.802 0.125 130.812 0.375C131.833 0.625 132.802 0.984375 133.719 1.45312L133.922 5.90625H132.953C132.828 5.66667 132.682 5.28646 132.516 4.76562L132.359 4.3125C132.005 3.29167 131.391 2.52083 130.516 2C129.651 1.46875 128.651 1.20312 127.516 1.20312C126.932 1.20312 126.344 1.30208 125.75 1.5C125.156 1.69792 124.656 2.00521 124.25 2.42188C123.854 2.82812 123.656 3.33333 123.656 3.9375C123.656 4.5 123.865 5.02604 124.281 5.51562C124.698 6.00521 125.214 6.45312 125.828 6.85938C126.443 7.25521 127.292 7.75521 128.375 8.35938C129.76 9.13021 130.88 9.8125 131.734 10.4062C132.599 10.9896 133.333 11.6979 133.938 12.5312C134.552 13.3646 134.859 14.3073 134.859 15.3594C134.859 16.6615 134.5 17.75 133.781 18.625C133.062 19.4896 132.13 20.125 130.984 20.5312C129.849 20.9375 128.641 21.1406 127.359 21.1406C126.214 21.1406 124.979 21 123.656 20.7188C122.344 20.4271 121.281 20.0312 120.469 19.5312V14.4844L121.391 14.4531Z" fill="white"/>
</svg>
