<svg width="169" height="22" viewBox="0 0 169 22" fill="none" xmlns="http://www.w3.org/2000/svg">
<path d="M16.6728 5.65569C15.7707 2.01246 13.8327 1.04093 10.859 1.04093C5.3794 1.04093 2.97371 5.34342 2.97371 10.2705C2.97371 16.3425 5.98083 20.4021 10.8925 20.4021C14.3005 20.4021 15.8709 18.702 17.3745 15.4057L18.1429 15.5098C17.742 16.863 17.0737 19.3959 16.606 20.5756C15.7707 20.7838 13.0308 21.4431 10.8925 21.4431C3.20759 21.4431 0 16.0303 0 10.9991C0 4.51068 4.81139 0 11.4939 0C14.0666 0 16.1048 0.624555 16.9735 0.83274C17.2074 2.56762 17.341 3.95552 17.5081 5.5863L16.6728 5.65569Z" fill="#A70032"/>
<path d="M39.1928 9.54189V5.06591C39.1928 1.63086 38.9589 1.42267 36.5198 1.21449V0.48584H44.5388V1.21449C41.9994 1.38798 41.7321 1.63086 41.7321 5.06591V16.412C41.7321 19.8471 41.966 20.0552 44.4719 20.2634V20.9921H36.2859V20.2634C38.9589 20.0899 39.1928 19.8471 39.1928 16.412V10.791H28.6679V16.412C28.6679 19.8471 28.9017 20.0552 31.4077 20.2634V20.9921H23.3887V20.2634C25.8946 20.0899 26.1285 19.8471 26.1285 16.412V5.06591C26.1285 1.63086 25.8946 1.42267 23.2885 1.21449V0.48584H31.3074V1.21449C28.9352 1.38798 28.7013 1.63086 28.7013 5.06591V9.54189H39.1928Z" fill="#A70032"/>
<path d="M61.4789 20.2633L62.4478 20.1246C63.5838 19.9858 63.6841 19.6388 63.3834 18.6673C63.1829 17.9039 62.2808 15.4404 61.4454 13.1851H55.2976C54.9968 14.0178 54.195 16.4813 53.794 17.7998C53.226 19.6388 53.4933 20.0552 54.8632 20.1593L55.7653 20.2633V20.992H49.2833V20.2633C51.2547 20.0552 51.4885 19.847 52.5577 17.0365L58.8059 0.27758L59.5075 0L61.6793 6.00267C63.1161 9.99288 64.4526 14.0178 65.622 17.2447C66.591 19.8817 66.9919 20.1246 68.863 20.2633V20.992H61.5123V20.2633H61.4789ZM55.6651 12.0053H61.0445L58.3715 4.2331H58.3047L55.6651 12.0053Z" fill="#A70032"/>
<path d="M78.7864 16.412C78.7864 19.8471 79.0203 20.0552 81.9606 20.2634V20.9921H73.4739V20.2634C75.9464 20.0899 76.2137 19.8471 76.2137 16.412V5.06591C76.2137 1.63086 75.9798 1.42267 73.6409 1.21449V0.48584H81.3258C83.364 0.48584 85.1014 0.832815 86.3711 1.80435C87.5405 2.67178 88.309 4.12908 88.309 6.14153C88.309 10.0277 85.3019 12.1095 82.395 12.4912C81.8938 12.5606 81.3926 12.5606 81.0251 12.5606L78.7864 11.9707V16.412ZM78.7864 10.9992C79.1874 11.1727 80.0227 11.3809 81.0585 11.3809C82.963 11.3809 85.4689 10.3399 85.4689 6.24563C85.4689 2.81057 83.7315 1.42267 80.6241 1.42267C79.7554 1.42267 79.321 1.49207 79.0872 1.59616C78.9201 1.66556 78.8199 1.80435 78.8199 2.4636V10.9992H78.7864Z" fill="#A70032"/>
<path d="M99.3017 0.48584L106.652 16.7243L113.87 0.48584H118.881V1.21449C116.242 1.42267 116.041 1.56146 116.142 5.06591L116.375 16.412C116.476 19.9511 116.543 20.0552 119.215 20.2634V20.9921H111.197V20.2634C113.736 20.0552 113.836 19.9511 113.803 16.412L113.669 3.71271H113.535L106.084 20.6451H105.316L98.2993 4.16378H98.2325L97.9318 12.9769C97.7981 15.9262 97.7981 17.6611 97.9318 18.6673C98.0988 19.8471 98.8005 20.1593 100.772 20.2981V21.0268H93.6216V20.2981C95.3256 20.1246 95.9605 19.8124 96.1609 18.6673C96.328 17.6958 96.5285 15.7874 96.6621 12.6647L96.9962 6.03744C97.1967 1.80435 96.9962 1.45737 94.1562 1.24919V0.48584H99.3017Z" fill="#A70032"/>
<path d="M136.055 20.2633L137.024 20.1246C138.16 19.9858 138.261 19.6388 137.96 18.6673C137.759 17.9039 136.857 15.4404 136.022 13.1851H129.874C129.573 14.0178 128.771 16.4813 128.371 17.7998C127.803 19.6388 128.07 20.0552 129.44 20.1593L130.342 20.2633V20.992H123.86V20.2633C125.831 20.0552 126.065 19.847 127.134 17.0365L133.382 0.27758L134.084 0L136.256 6.00267C137.693 9.99288 139.029 14.0178 140.199 17.2447C141.167 19.8817 141.568 20.1246 143.44 20.2633V20.992H136.089V20.2633H136.055ZM130.275 12.0053H135.654L132.981 4.2331H132.915L130.275 12.0053Z" fill="#A70032"/>
<path d="M166.127 21.2003H165.325L152.16 4.58015H152.093V12.63C152.093 15.9262 152.227 17.6264 152.327 18.6326C152.494 19.743 153.296 20.194 155.301 20.2634V20.9921H148.017V20.2634C149.688 20.194 150.49 19.743 150.623 18.6326C150.757 17.6611 150.857 15.9609 150.857 12.63V5.79456C150.857 3.53922 150.824 3.01876 150.289 2.29011C149.721 1.52677 148.886 1.31858 147.616 1.21449V0.48584H152.06L164.857 16.3773H164.924V8.84794C164.924 5.55168 164.79 3.8515 164.69 2.84527C164.523 1.73495 163.721 1.28388 161.716 1.21449V0.48584H169V1.21449C167.329 1.28388 166.528 1.73495 166.394 2.84527C166.26 3.8168 166.16 5.51698 166.16 8.84794V21.2003H166.127Z" fill="#A70032"/>
</svg>
