<svg width="24" height="24" viewBox="0 0 24 24" fill="none" xmlns="http://www.w3.org/2000/svg">
<path fill-rule="evenodd" clip-rule="evenodd" d="M17.6659 11.7518C16.3613 12.6905 14.8367 13.2734 13.2426 13.446L13.2426 16.5C13.2426 17.0523 12.7949 17.5 12.2426 17.5C11.6904 17.5 11.2426 17.0523 11.2426 16.5L11.2426 13.4461C9.59125 13.2672 8.01428 12.648 6.67936 11.6491L4.12129 14.2072C3.73077 14.5977 3.0976 14.5977 2.70708 14.2072C2.31655 13.8167 2.31655 13.1835 2.70708 12.793L5.11861 10.3815L3.11791 8.78091C2.68665 8.4359 2.61673 7.8066 2.96174 7.37534C3.30675 6.94408 3.93604 6.87416 4.3673 7.21917L6.87511 9.22541L7.57813 9.81126C8.88756 10.9025 10.5381 11.5 12.2426 11.5C13.9471 11.5 15.5977 10.9025 16.9071 9.81126L17.6101 9.22542L20.1179 7.21917C20.5492 6.87416 21.1785 6.94408 21.5235 7.37534C21.8685 7.8066 21.7986 8.4359 21.3673 8.78091L19.2318 10.4893L21.5356 12.793C21.9261 13.1835 21.9261 13.8167 21.5356 14.2072C21.145 14.5978 20.5119 14.5978 20.1213 14.2072L17.6659 11.7518Z" fill="#919698"/>
</svg>
