<svg width="22" height="20" viewBox="0 0 22 20" fill="none" xmlns="http://www.w3.org/2000/svg">
<path fill-rule="evenodd" clip-rule="evenodd" d="M6.00004 4C6.55232 4 7.00004 3.55228 7.00004 3C7.00004 2.44772 6.55232 2 6.00004 2C5.44776 2 5.00004 2.44772 5.00004 3C5.00004 3.55228 5.44776 4 6.00004 4ZM6.00004 6C7.65689 6 9.00004 4.65685 9.00004 3C9.00004 1.34315 7.65689 0 6.00004 0C4.34319 0 3.00004 1.34315 3.00004 3C3.00004 4.65685 4.34319 6 6.00004 6ZM17 3C17 3.55228 16.5523 4 16 4C15.4478 4 15 3.55228 15 3C15 2.44772 15.4478 2 16 2C16.5523 2 17 2.44772 17 3ZM19 3C19 4.65685 17.6569 6 16 6C14.3432 6 13 4.65685 13 3C13 1.34315 14.3432 0 16 0C17.6569 0 19 1.34315 19 3ZM12 10C12 10.5523 11.5523 11 11 11C10.4478 11 10 10.5523 10 10C10 9.44772 10.4478 9 11 9C11.5523 9 12 9.44772 12 10ZM14 10C14 11.6569 12.6569 13 11 13C9.34319 13 8.00004 11.6569 8.00004 10C8.00004 8.34315 9.34319 7 11 7C12.6569 7 14 8.34315 14 10ZM8.44156 16H13.5585L14.2252 18H7.77489L8.44156 16ZM6.54419 15.3675C6.81642 14.5509 7.58069 14 8.44156 14H13.5585C14.4194 14 15.1837 14.5509 15.4559 15.3675L16.1226 17.3675C16.5542 18.6626 15.5903 20 14.2252 20H7.77489C6.40977 20 5.44583 18.6626 5.87752 17.3675L6.54419 15.3675ZM18.3334 9H16C15.4478 9 15 8.55229 15 8C15 7.44772 15.4478 7 16 7H18.3334C19.1942 7 19.9585 7.55086 20.2307 8.36755L20.8974 10.3675C21.3291 11.6626 20.3652 13 19 13H16C15.4478 13 15 12.5523 15 12C15 11.4477 15.4478 11 16 11H19L18.3334 9ZM6.00004 9H3.66706L3.00004 11H6.00004C6.55232 11 7.00004 11.4477 7.00004 12C7.00004 12.5523 6.55232 13 6.00004 13H3.00004C1.63419 13 0.669741 11.6626 1.10166 10.3675L1.76868 8.36755C2.04106 7.55086 2.80574 7 3.66706 7H6.00004C6.55232 7 7.00004 7.44772 7.00004 8C7.00004 8.55229 6.55232 9 6.00004 9Z" fill="#373C3E"/>
</svg>
