<svg width="24" height="24" viewBox="0 0 24 24" fill="none" xmlns="http://www.w3.org/2000/svg">
<path fill-rule="evenodd" clip-rule="evenodd" d="M15 7C15 8.65685 13.6569 10 12 10C10.3431 10 9 8.65685 9 7C9 5.34315 10.3431 4 12 4C13.6569 4 15 5.34315 15 7ZM17 7C17 9.76142 14.7614 12 12 12C9.23858 12 7 9.76142 7 7C7 4.23858 9.23858 2 12 2C14.7614 2 17 4.23858 17 7ZM4.04726 20C4.37075 17.7385 6.31569 16 8.66667 16H15.3333C17.6843 16 19.6293 17.7385 19.9527 20H4.04726ZM2 20.6667C2 16.9848 4.98477 14 8.66667 14H15.3333C19.0152 14 22 16.9848 22 20.6667C22 21.403 21.403 22 20.6667 22H3.33333C2.59695 22 2 21.403 2 20.6667Z" fill="#373C3E"/>
</svg>
