<svg width="24" height="24" viewBox="0 0 24 24" fill="none" xmlns="http://www.w3.org/2000/svg">
<path fill-rule="evenodd" clip-rule="evenodd" d="M7 6C7 6.55228 6.55228 7 6 7C5.44772 7 5 6.55228 5 6C5 5.44772 5.44772 5 6 5C6.55228 5 7 5.44772 7 6ZM8.82929 5C8.41746 3.83481 7.30622 3 6 3C4.34315 3 3 4.34315 3 6C3 7.65685 4.34315 9 6 9C7.30622 9 8.41746 8.16519 8.82929 7H20C20.5523 7 21 6.55228 21 6C21 5.44772 20.5523 5 20 5H8.82929ZM19 12C19 12.5523 18.5523 13 18 13C17.4477 13 17 12.5523 17 12C17 11.4477 17.4477 11 18 11C18.5523 11 19 11.4477 19 12ZM18 15C16.6938 15 15.5825 14.1652 15.1707 13H4C3.44772 13 3 12.5523 3 12C3 11.4477 3.44772 11 4 11H15.1707C15.5825 9.83481 16.6938 9 18 9C19.6569 9 21 10.3431 21 12C21 13.6569 19.6569 15 18 15ZM6 19C6.55228 19 7 18.5523 7 18C7 17.4477 6.55228 17 6 17C5.44772 17 5 17.4477 5 18C5 18.5523 5.44772 19 6 19ZM8.82929 17C8.41746 15.8348 7.30622 15 6 15C4.34315 15 3 16.3431 3 18C3 19.6569 4.34315 21 6 21C7.30622 21 8.41746 20.1652 8.82929 19H20C20.5523 19 21 18.5523 21 18C21 17.4477 20.5523 17 20 17H8.82929Z" fill="#A70032"/>
</svg>
