<svg width="35" height="35" viewBox="0 0 35 35" fill="none" xmlns="http://www.w3.org/2000/svg">
<rect width="35" height="35" rx="17.5" fill="#A70032"/>
<path fill-rule="evenodd" clip-rule="evenodd" d="M17.375 8.5C16.8227 8.5 16.375 8.94772 16.375 9.5V16.375H9.5C8.94772 16.375 8.5 16.8227 8.5 17.375V17.625C8.5 18.1773 8.94772 18.625 9.5 18.625H16.375V25.5C16.375 26.0523 16.8227 26.5 17.375 26.5H17.625C18.1773 26.5 18.625 26.0523 18.625 25.5V18.625H25.5C26.0523 18.625 26.5 18.1773 26.5 17.625V17.375C26.5 16.8227 26.0523 16.375 25.5 16.375H18.625V9.5C18.625 8.94772 18.1773 8.5 17.625 8.5H17.375Z" fill="white"/>
</svg>
