<svg width="24" height="25" viewBox="0 0 24 25" fill="none" xmlns="http://www.w3.org/2000/svg">
<path fill-rule="evenodd" clip-rule="evenodd" d="M16.3877 15.2322L12.5 19.1106L8.6123 15.2322C6.46518 13.0902 6.46518 9.61729 8.6123 7.47528C10.7594 5.33328 14.2406 5.33328 16.3877 7.47528C18.5348 9.61729 18.5348 13.0902 16.3877 15.2322ZM7.1967 16.6444C4.26777 13.7224 4.26777 8.98501 7.1967 6.06305C10.1256 3.14109 14.8744 3.14109 17.8033 6.06305C20.7322 8.98501 20.7322 13.7224 17.8033 16.6444L13.4642 20.9731C12.9317 21.5044 12.0683 21.5044 11.5358 20.9731L7.1967 16.6444ZM12.5073 13.8575C13.8894 13.8575 15.0098 12.7398 15.0098 11.361C15.0098 9.98226 13.8894 8.86454 12.5073 8.86454C11.1252 8.86454 10.0048 9.98226 10.0048 11.361C10.0048 12.7398 11.1252 13.8575 12.5073 13.8575Z" fill="#919698"/>
</svg>
