<svg width="24" height="24" viewBox="0 0 24 24" fill="none" xmlns="http://www.w3.org/2000/svg">
<path fill-rule="evenodd" clip-rule="evenodd" d="M10 4C10 2.89543 10.8954 2 12 2C13.1046 2 14 2.89543 14 4C14 4.0964 13.9932 4.1912 13.98 4.28396C16.8818 5.13809 19 7.82167 19 11V18H20C20.5523 18 21 18.4477 21 19C21 19.5523 20.5523 20 20 20H19H14C14 21.1046 13.1046 22 12 22C10.8954 22 10 21.1046 10 20H5H4C3.44772 20 3 19.5523 3 19C3 18.4477 3.44772 18 4 18H5V11C5 7.82167 7.11824 5.13809 10.02 4.28396C10.0068 4.1912 10 4.0964 10 4ZM12 18H17V11C17 8.23858 14.7614 6 12 6C9.23858 6 7 8.23858 7 11V18H12Z" fill="white"/>
</svg>
