<svg width="24" height="24" viewBox="0 0 24 24" fill="none" xmlns="http://www.w3.org/2000/svg">
<path fill-rule="evenodd" clip-rule="evenodd" d="M7.33547 9.68877C8.6449 8.59758 10.2954 8 11.9999 8C13.7044 8 15.355 8.59758 16.6644 9.68877L19.4379 12L16.6644 14.3112C15.355 15.4024 13.7044 16 11.9999 16C10.2954 16 8.6449 15.4024 7.33546 14.3112L4.56199 12L7.33547 9.68877ZM11.9999 6C9.82758 6 7.72396 6.76161 6.0551 8.15233L2.9567 10.7343C2.16629 11.393 2.16629 12.607 2.9567 13.2657L6.0551 15.8477C7.72396 17.2384 9.82758 18 11.9999 18C14.1723 18 16.2759 17.2384 17.9448 15.8477L21.0432 13.2657C21.8336 12.607 21.8336 11.393 21.0432 10.7343L17.9448 8.15233C16.2759 6.76161 14.1723 6 11.9999 6ZM12 15C13.6569 15 15 13.6569 15 12C15 10.3431 13.6569 9 12 9C10.3431 9 9 10.3431 9 12C9 13.6569 10.3431 15 12 15Z" fill="#919698"/>
</svg>
