<svg width="24" height="24" viewBox="0 0 24 24" fill="none" xmlns="http://www.w3.org/2000/svg">
<path fill-rule="evenodd" clip-rule="evenodd" d="M2.29168 0.0580862C1.86258 0.161015 1.46075 0.355635 1.1137 0.628598C0.766644 0.901562 0.482564 1.24644 0.280903 1.63961C0.0148484 2.18644 -0.0650707 2.80553 0.0533718 3.40217C0.153488 3.93877 0.402513 4.43624 0.771894 4.83754C1.15927 5.26505 1.66738 5.56426 2.22864 5.69541C2.7899 5.82655 3.37771 5.78342 3.9139 5.57172C4.45009 5.36002 4.90924 4.98979 5.23029 4.51028C5.55134 4.03077 5.71907 3.46472 5.71118 2.88738C5.71627 2.46125 5.62601 2.03936 5.44703 1.65276C5.26806 1.26615 5.00492 0.924632 4.67694 0.653263C4.34895 0.381893 3.96446 0.187572 3.5517 0.0845814C3.13893 -0.0184096 2.70839 -0.0274702 2.29168 0.0580862ZM16.7606 7.71806C16.4863 7.77696 16.1346 7.87078 15.9713 7.92313C14.9628 8.28399 14.0935 8.95415 13.487 9.83838L13.2529 10.1896L13.241 9.08909L13.2235 7.98202L10.8448 7.96457L8.45952 7.95256V24H13.4282V19.707C13.4282 15.4315 13.4576 14.7345 13.6383 14.0147C13.7214 13.6292 13.888 13.2667 14.1263 12.9529C14.3647 12.6391 14.669 12.3816 15.0177 12.1986C15.7863 11.8923 16.6369 11.8611 17.4258 12.1103C17.7688 12.2593 18.0704 12.4897 18.3046 12.7816C18.5389 13.0734 18.6987 13.418 18.7703 13.7856C18.9456 14.4706 18.9804 15.4217 18.9804 19.6754V23.9389H23.9491V19.2653C24.0642 16.9162 23.9841 14.5617 23.7096 12.2259C23.2306 9.49917 21.8502 8.06165 19.3484 7.68754C18.489 7.57073 17.6171 7.58101 16.7606 7.71806ZM0.392305 23.9991V15.9759V7.95275H5.36099V23.9991H0.392305Z" fill="#6B7476"/>
</svg>
