<svg width="17" height="21" viewBox="0 0 17 21" fill="none" xmlns="http://www.w3.org/2000/svg">
<path fill-rule="evenodd" clip-rule="evenodd" d="M10.5 2.5H6.5V3.5H10.5V2.5ZM12.5 3.5V2.5C12.5 1.39543 11.6046 0.5 10.5 0.5H6.5C5.39543 0.5 4.5 1.39543 4.5 2.5V3.5H3.5H1.5C0.947715 3.5 0.5 3.94772 0.5 4.5C0.5 5.05228 0.947715 5.5 1.5 5.5V18.5C1.5 19.6046 2.39543 20.5 3.5 20.5H13.5C14.6046 20.5 15.5 19.6046 15.5 18.5V5.5C16.0523 5.5 16.5 5.05228 16.5 4.5C16.5 3.94772 16.0523 3.5 15.5 3.5H13.5H12.5ZM13.5 5.5H10.5H6.5H3.5V18.5H13.5V5.5ZM6.5 16.5C5.94772 16.5 5.5 16.0523 5.5 15.5L5.5 8.5C5.5 7.94772 5.94772 7.5 6.5 7.5C7.05228 7.5 7.5 7.94772 7.5 8.5L7.5 15.5C7.5 16.0523 7.05229 16.5 6.5 16.5ZM9.5 15.5C9.5 16.0523 9.94772 16.5 10.5 16.5C11.0523 16.5 11.5 16.0523 11.5 15.5V8.5C11.5 7.94772 11.0523 7.5 10.5 7.5C9.94771 7.5 9.5 7.94772 9.5 8.5V15.5Z" fill="#A70032"/>
</svg>
