<svg width="20" height="20" viewBox="0 0 20 20" fill="none" xmlns="http://www.w3.org/2000/svg">
<path d="M10 18.3332C5.39765 18.3332 1.66669 14.6022 1.66669 9.99984C1.66669 5.39746 5.39765 1.6665 10 1.6665C14.6024 1.6665 18.3334 5.39746 18.3334 9.99984C18.3283 14.6001 14.6003 18.3281 10 18.3332ZM10 3.33317C6.31812 3.33317 3.33335 6.31794 3.33335 9.99984C3.33335 13.6817 6.31812 16.6665 10 16.6665C13.6819 16.6665 16.6667 13.6817 16.6667 9.99984C16.6626 6.31965 13.6802 3.3373 10 3.33317ZM10 14.9998C8.68337 15.0221 7.43885 14.3999 6.66669 13.3332C6.42532 13.0104 6.22237 12.6615 6.06141 12.2935C5.92768 11.9879 6.16739 11.6665 6.50102 11.6665H14.1667C14.1667 11.6665 10.4931 11.6724 13.4941 11.6731C13.8289 11.6732 14.0697 11.9966 13.9343 12.3028C13.7733 12.6669 13.5719 13.0126 13.3334 13.3332C12.5611 14.3997 11.3166 15.022 10 14.9998ZM7.08335 9.99984C6.393 9.99984 5.83335 9.44019 5.83335 8.74984C5.83335 8.05948 6.393 7.49984 7.08335 7.49984C7.77371 7.49984 8.33335 8.05948 8.33335 8.74984C8.33335 9.44019 7.77371 9.99984 7.08335 9.99984ZM12.9109 9.98817C12.2237 9.98817 11.6667 9.43114 11.6667 8.744C11.6667 8.05687 12.2237 7.49984 12.9109 7.49984C13.598 7.49984 14.155 8.05687 14.155 8.744C14.1541 9.43076 13.5976 9.98725 12.9109 9.98817Z" fill="#919698"/>
</svg>
