<svg width="24" height="24" viewBox="0 0 24 24" fill="none" xmlns="http://www.w3.org/2000/svg">
<path d="M12.0842 8.49831C12.0606 18.0782 12.0842 17.3189 11.6901 18.1301C11.3362 18.8491 10.7759 19.413 10.1 19.7304C9.60369 19.9991 9.05548 20.125 8.50487 20.0968C7.97134 20.1242 7.43995 20.0048 6.95707 19.7492C6.27291 19.4241 5.70382 18.8549 5.33833 18.1301C5.08846 17.665 4.96774 17.1271 4.99153 16.5849C4.96179 16.0137 5.09497 15.4467 5.37183 14.9658C5.52616 14.6271 5.74554 14.3308 6.0142 14.0983C6.44023 13.6578 6.95767 13.3433 7.51963 13.1834C8.06519 13.0388 8.63051 13.0133 9.18468 13.1084C9.38172 13.1503 9.625 13.1834 9.625 13.1834V11L9.65365 9.24769L9.43296 9.21017C9.30586 9.19141 8.87039 9.17706 8.45757 9.17706C7.3573 9.15844 6.26631 9.40498 5.25853 9.89997C1.14026 11.88 -0.258772 16.8951 2.2516 20.6818C2.82056 21.4712 3.49839 22.1538 4.2595 22.7037C5.24085 23.3491 6.32892 23.7646 7.45781 23.925C8.58669 24.0855 9.73292 23.9877 10.8271 23.6374C11.8171 23.3309 12.7393 22.7968 13.5348 22.069C14.3304 21.3412 14.9819 20.4358 15.4478 19.4103C15.6606 18.8801 15.8195 18.3248 15.9217 17.7548C16.0462 16.0334 16.0695 14.3046 15.9916 12.5797C15.9818 9.9949 15.9916 7.87915 16.0104 7.87915C16.0842 7.91378 16.1534 7.95943 16.2163 8.01488C16.9689 8.55198 17.7768 8.9852 18.6222 9.30509C19.6063 9.65748 20.6291 9.85655 21.6616 9.89667H23V6L21.6045 5.99736C20.1908 5.91414 18.8443 5.29539 17.7858 4.24252C16.7651 3.27499 16.1249 1.89668 16.0035 0.405054L15.9729 0H12.1029L12.0842 8.49831Z" fill="#6B7476"/>
</svg>
