<svg width="21" height="20" viewBox="0 0 21 20" fill="none" xmlns="http://www.w3.org/2000/svg">
<path d="M19.4719 2.0807H8.23991C8.07191 1.56578 7.74974 1.11794 7.31901 0.800603C6.88828 0.483261 6.37082 0.3125 5.83991 0.3125C5.309 0.3125 4.79154 0.483261 4.36081 0.800603C3.93008 1.11794 3.60791 1.56578 3.43991 2.0807H1.52791C1.31428 2.0807 1.1094 2.16747 0.958336 2.32192C0.807275 2.47636 0.722412 2.68584 0.722412 2.90426C0.722412 3.12268 0.807275 3.33216 0.958336 3.4866C1.1094 3.64105 1.31428 3.72781 1.52791 3.72781H3.44291C3.6109 4.24273 3.93308 4.69057 4.36381 5.00792C4.79454 5.32526 5.312 5.49602 5.84291 5.49602C6.37382 5.49602 6.89128 5.32526 7.32201 5.00792C7.75274 4.69057 8.07492 4.24273 8.24291 3.72781H19.4729C19.6865 3.72781 19.8914 3.64105 20.0425 3.4866C20.1935 3.33216 20.2784 3.12268 20.2784 2.90426C20.2784 2.68584 20.1935 2.47636 20.0425 2.32192C19.8914 2.16747 19.6865 2.0807 19.4729 2.0807H19.4719ZM5.84091 3.84437C5.65895 3.84437 5.48108 3.7892 5.32979 3.68585C5.17849 3.58249 5.06058 3.43559 4.99094 3.26371C4.92131 3.09184 4.90309 2.90271 4.93859 2.72024C4.97409 2.53778 5.0617 2.37018 5.19037 2.23863C5.31903 2.10708 5.48297 2.0175 5.66143 1.9812C5.83989 1.94491 6.02487 1.96353 6.19298 2.03473C6.36109 2.10592 6.50477 2.22648 6.60587 2.38117C6.70696 2.53585 6.76091 2.71771 6.76091 2.90375C6.76065 3.15313 6.66363 3.39223 6.49116 3.56857C6.31868 3.74491 6.08483 3.8441 5.84091 3.84437Z" fill="white"/>
<path d="M19.4719 9.13637H17.5559C17.3879 8.62145 17.0657 8.17361 16.635 7.85627C16.2043 7.53893 15.6868 7.36816 15.1559 7.36816C14.625 7.36816 14.1075 7.53893 13.6768 7.85627C13.2461 8.17361 12.9239 8.62145 12.7559 9.13637H1.52791C1.31428 9.13637 1.1094 9.22314 0.958336 9.37759C0.807275 9.53204 0.722412 9.74152 0.722412 9.95994C0.722412 10.1784 0.807275 10.3878 0.958336 10.5423C1.1094 10.6967 1.31428 10.7835 1.52791 10.7835H12.7609C12.9289 11.2984 13.2511 11.7462 13.6818 12.0636C14.1125 12.3809 14.63 12.5517 15.1609 12.5517C15.6918 12.5517 16.2093 12.3809 16.64 12.0636C17.0707 11.7462 17.3929 11.2984 17.5609 10.7835H19.4759C19.6895 10.7835 19.8944 10.6967 20.0455 10.5423C20.1965 10.3878 20.2814 10.1784 20.2814 9.95994C20.2814 9.74152 20.1965 9.53204 20.0455 9.37759C19.8944 9.22314 19.6895 9.13637 19.4759 9.13637H19.4719ZM15.1559 10.9C14.9739 10.9 14.7961 10.8449 14.6448 10.7415C14.4935 10.6382 14.3756 10.4913 14.3059 10.3194C14.2363 10.1475 14.2181 9.95837 14.2536 9.77591C14.2891 9.59345 14.3767 9.42584 14.5054 9.2943C14.634 9.16275 14.798 9.07316 14.9764 9.03687C15.1549 9.00057 15.3399 9.0192 15.508 9.09039C15.6761 9.16159 15.8198 9.28216 15.9209 9.43684C16.0219 9.59153 16.0759 9.77339 16.0759 9.95942C16.0756 10.2088 15.9786 10.4479 15.8061 10.6242C15.6337 10.8006 15.3998 10.8998 15.1559 10.9Z" fill="white"/>
<path d="M19.4719 16.1911H11.6899C11.5219 15.6761 11.1997 15.2283 10.769 14.9109C10.3383 14.5936 9.82082 14.4229 9.28991 14.4229C8.75899 14.4229 8.24153 14.5936 7.8108 14.9109C7.38007 15.2283 7.0579 15.6761 6.88991 16.1911H1.52791C1.31428 16.1911 1.1094 16.2778 0.958336 16.4323C0.807275 16.5867 0.722412 16.7962 0.722412 17.0146C0.722412 17.233 0.807275 17.4425 0.958336 17.5969C1.1094 17.7514 1.31428 17.8382 1.52791 17.8382H6.8929C7.0609 18.3531 7.38308 18.8009 7.81381 19.1183C8.24454 19.4356 8.76199 19.6064 9.2929 19.6064C9.82382 19.6064 10.3413 19.4356 10.772 19.1183C11.2027 18.8009 11.5249 18.3531 11.6929 17.8382H19.4759C19.6895 17.8382 19.8944 17.7514 20.0455 17.5969C20.1965 17.4425 20.2814 17.233 20.2814 17.0146C20.2814 16.7962 20.1965 16.5867 20.0455 16.4323C19.8944 16.2778 19.6895 16.1911 19.4759 16.1911H19.4719ZM9.2919 17.9547C9.10995 17.9547 8.93207 17.8995 8.78078 17.7962C8.62949 17.6928 8.51157 17.5459 8.44194 17.3741C8.3723 17.2022 8.35409 17.0131 8.38958 16.8306C8.42508 16.6481 8.51271 16.4805 8.64137 16.349C8.77003 16.2174 8.93396 16.1278 9.11242 16.0915C9.29089 16.0553 9.47587 16.0739 9.64398 16.1451C9.81209 16.2163 9.95577 16.3368 10.0569 16.4915C10.1579 16.6462 10.2119 16.8281 10.2119 17.0141C10.2116 17.2635 10.1146 17.5026 9.94215 17.6789C9.76967 17.8552 9.53582 17.9545 9.2919 17.9547Z" fill="white"/>
</svg>
