<svg width="24" height="24" viewBox="0 0 24 24" fill="none" xmlns="http://www.w3.org/2000/svg">
<path fill-rule="evenodd" clip-rule="evenodd" d="M19 4H5C4.44772 4 4 4.44772 4 5V7H20V5C20 4.44771 19.5523 4 19 4ZM2 7V9V19C2 20.6569 3.34315 22 5 22H19C20.6569 22 22 20.6569 22 19V9V7V5C22 3.34315 20.6569 2 19 2H5C3.34315 2 2 3.34315 2 5V7ZM20 19V9H4V19C4 19.5523 4.44772 20 5 20H19C19.5523 20 20 19.5523 20 19ZM11 13C10.4477 13 10 12.5523 10 12C10 11.4477 10.4477 11 11 11H13.5C13.5323 11 13.5638 11.0031 13.5944 11.0089C13.6373 11.003 13.681 11 13.7253 11C14.3641 11 14.8253 11.6114 14.6498 12.2257L13.1992 17.3026C13.0813 17.7154 12.704 18 12.2747 18C11.6359 18 11.1747 17.3886 11.3502 16.7743L12.4286 13H11Z" fill="#6B7476"/>
</svg>
