<svg width="24" height="24" viewBox="0 0 24 24" fill="none" xmlns="http://www.w3.org/2000/svg">
<path fill-rule="evenodd" clip-rule="evenodd" d="M10.7781 5.6371C11.1687 6.02763 11.1687 6.66079 10.7781 7.05131L6.82946 11H19C19.5523 11 20 11.4477 20 12C20 12.5523 19.5523 13 19 13H6.82732L10.7781 16.9508C11.1687 17.3413 11.1687 17.9745 10.7781 18.365C10.3876 18.7556 9.75445 18.7556 9.36392 18.365L3.70707 12.7082C3.51629 12.5174 3.41872 12.2687 3.41434 12.0187C3.41088 11.8209 3.46574 11.6223 3.57894 11.4508C3.61555 11.3954 3.65826 11.3428 3.70707 11.294L3.70845 11.2926L9.36393 5.6371C9.75446 5.24658 10.3876 5.24658 10.7781 5.6371Z" fill="#A70032"/>
</svg>
