<svg width="24" height="24" viewBox="0 0 24 24" fill="none" xmlns="http://www.w3.org/2000/svg">
<path d="M7.51414 0.0250829C6.31418 0.0234067 5.12422 0.242781 4.00411 0.67215C3.26552 0.964709 2.59763 1.41036 2.04463 1.97965C1.20912 2.80729 0.62436 3.85306 0.35739 4.99703C0.0661002 6.10339 0 7.37291 0 11.9805C0 16.5122 0.0616189 17.7917 0.336103 18.9026C0.633194 20.2178 1.34352 21.4041 2.3636 22.2885C3.38369 23.173 4.66023 23.7094 6.00728 23.8197C8.01987 23.9756 10.039 24.0305 12.0571 23.984C15.2288 23.984 17.0561 23.9371 17.8829 23.8387C19.3887 23.7172 20.8095 23.0932 21.9162 22.0675C23.1073 20.9032 23.8254 19.3412 23.9328 17.6811C24.0224 16.9312 24.0224 6.93038 23.9328 6.22186C23.8152 4.95768 23.3718 3.74532 22.6455 2.70271C22.213 2.16101 21.7105 1.67889 21.151 1.26891C20.0006 0.545476 18.6804 0.135136 17.3216 0.0787294C16.5587 0.00608931 8.79694 -0.026324 7.51414 0.0250829ZM17.6768 2.28922C18.7336 2.35827 19.7313 2.80039 20.4911 3.53639C20.9299 3.95721 21.2592 4.47856 21.4501 5.05514C21.8355 6.13357 21.8725 6.70463 21.8725 12.0007C21.8725 15.0515 21.8534 16.5189 21.8108 17.0106C21.8311 18.2281 21.3957 19.4095 20.5897 20.3241C19.7092 21.2072 18.5164 21.7104 17.2679 21.7255C16.4366 21.8048 9.56213 21.8372 7.97909 21.7769C7.26543 21.7489 6.52264 21.702 6.31538 21.6741C5.5008 21.5781 4.71942 21.2959 4.03212 20.8493C3.62166 20.5176 3.2623 20.1275 2.96555 19.6916C2.5197 18.8412 2.27699 17.8996 2.25637 16.9402C2.11521 14.8169 2.16226 7.51037 2.32247 6.30119C2.40218 5.24042 2.86236 4.24382 3.61871 3.49393C4.59 2.648 5.84422 2.19655 7.13323 2.22889C7.49062 2.20989 9.89151 2.19645 12.475 2.20539C16.4836 2.21321 17.2544 2.22329 17.6768 2.28475V2.28922Z" fill="#6B7476"/>
<path d="M17.8168 4.28938C17.57 4.39874 17.3625 4.58076 17.2223 4.81107C17.0822 5.04139 17.016 5.30896 17.0326 5.57788C17.0192 5.76514 17.0487 5.95297 17.1187 6.12721C17.1888 6.30144 17.2976 6.45752 17.437 6.58366C17.5641 6.72185 17.7207 6.82986 17.8952 6.89968C18.0697 6.9695 18.2577 6.99937 18.4453 6.98712C18.6683 7.00768 18.8924 6.9622 19.0895 6.85636C19.3174 6.75043 19.5114 6.58352 19.6498 6.37419C19.7883 6.16486 19.8658 5.92131 19.8738 5.67065C19.902 5.46758 19.8795 5.26072 19.8081 5.06846C19.7368 4.8762 19.6188 4.70453 19.4648 4.56876C19.3345 4.42563 19.1733 4.31378 18.9935 4.24159C18.8136 4.16941 18.6197 4.13873 18.4263 4.1519C18.2142 4.13999 18.0031 4.18763 17.8168 4.28938Z" fill="#6B7476"/>
<path d="M10.9304 5.91063C9.69414 6.13492 8.55857 6.7376 7.68137 7.635C7.09541 8.19423 6.63208 8.86858 6.32065 9.61549C6.00922 10.3624 5.85646 11.1656 5.87202 11.9744C5.85314 12.922 6.06619 13.8599 6.49269 14.7068C7.11783 15.9648 8.15514 16.972 9.43271 17.5614C10.7103 18.1508 12.1514 18.2871 13.5172 17.9477C14.5777 17.699 15.5477 17.1603 16.3181 16.392C17.0367 15.7176 17.5758 14.8754 17.8866 13.9413C18.1057 13.3087 18.2108 12.6424 18.1969 11.9733C18.2108 11.3089 18.1073 10.6473 17.8911 10.0187C17.6073 9.14638 17.1214 8.35308 16.4727 7.70317C15.5693 6.76247 14.3896 6.13239 13.1038 5.90391C12.382 5.81368 11.6516 5.81595 10.9304 5.91063ZM12.7913 8.05742C13.8314 8.26373 14.7478 8.87151 15.341 9.74846C15.9342 10.6254 16.1561 11.7006 15.9585 12.7399C15.8258 13.394 15.5329 14.0052 15.1057 14.5189C14.6786 15.0325 14.1305 15.4327 13.5105 15.6835C12.9924 15.9051 12.4274 15.9953 11.8659 15.9462C11.5239 15.9506 11.1834 15.9 10.8576 15.7964C10.1664 15.5839 9.54561 15.189 9.06088 14.6535C8.57614 14.1181 8.24544 13.4619 8.10374 12.7544C7.99469 12.105 8.02833 11.4396 8.20234 10.8043C8.41781 10.121 8.81145 9.50712 9.34296 9.02544C9.87447 8.54376 10.5248 8.21161 11.2273 8.06301C11.7446 7.97896 12.2721 7.97672 12.7901 8.05633L12.7913 8.05742Z" fill="#6B7476"/>
</svg>
