<svg width="20" height="20" viewBox="0 0 20 20" fill="none" xmlns="http://www.w3.org/2000/svg">
<path fill-rule="evenodd" clip-rule="evenodd" d="M18 10C18 14.4183 14.4183 18 10 18C8.21626 18 6.56887 17.4162 5.23846 16.4293L16.4293 5.23846C17.4162 6.56887 18 8.21626 18 10ZM3.79248 15.0469L15.0469 3.79248C13.6702 2.67183 11.9135 2 10 2C5.58172 2 2 5.58172 2 10C2 11.9135 2.67183 13.6702 3.79248 15.0469ZM20 10C20 15.5228 15.5228 20 10 20C4.47715 20 0 15.5228 0 10C0 4.47715 4.47715 0 10 0C15.5228 0 20 4.47715 20 10Z" fill="#373C3E"/>
</svg>
