<svg width="24" height="25" viewBox="0 0 24 25" fill="none" xmlns="http://www.w3.org/2000/svg">
<path fill-rule="evenodd" clip-rule="evenodd" d="M7 5.58826H17C18.1046 5.58826 19 6.48369 19 7.58826V12.1805C17.8221 11.1251 16.0106 11.1634 14.8787 12.2954L11.5 15.6741L10.1213 14.2954C8.94976 13.1238 7.05027 13.1238 5.8787 14.2954L5 15.1741V7.58826C5 6.48369 5.89543 5.58826 7 5.58826ZM17.7071 13.7096L19 15.0025V17.5883C19 18.6928 18.1046 19.5883 17 19.5883H10.4142L16.2929 13.7096C16.6834 13.3191 17.3166 13.3191 17.7071 13.7096ZM10.0858 17.0883L7.58582 19.5883H7C6.02483 19.5883 5.21267 18.8903 5.03576 17.9667L7.29291 15.7096C7.68343 15.3191 8.3166 15.3191 8.70712 15.7096L10.0858 17.0883ZM3 7.58826C3 5.37912 4.79086 3.58826 7 3.58826H17C19.2091 3.58826 21 5.37912 21 7.58826V17.5883C21 19.7974 19.2091 21.5883 17 21.5883H7C4.79086 21.5883 3 19.7974 3 17.5883V7.58826ZM9 9.08826C9 9.3644 8.77614 9.58826 8.5 9.58826C8.22386 9.58826 8 9.3644 8 9.08826C8 8.81211 8.22386 8.58826 8.5 8.58826C8.77614 8.58826 9 8.81211 9 9.08826ZM11 9.08826C11 10.469 9.88071 11.5883 8.5 11.5883C7.11929 11.5883 6 10.469 6 9.08826C6 7.70754 7.11929 6.58826 8.5 6.58826C9.88071 6.58826 11 7.70754 11 9.08826Z" fill="#919698"/>
</svg>
