<svg width="23" height="18" viewBox="0 0 23 18" fill="none" xmlns="http://www.w3.org/2000/svg">
<path fill-rule="evenodd" clip-rule="evenodd" d="M10.3709 0.516135C10.8916 1.03683 10.8916 1.88105 10.3709 2.40175L5.10595 7.66667H21.3333C22.0697 7.66667 22.6666 8.26362 22.6666 9C22.6666 9.73638 22.0697 10.3333 21.3333 10.3333H5.1031L10.3709 15.6011C10.8916 16.1218 10.8916 16.966 10.3709 17.4867C9.85015 18.0074 9.00593 18.0074 8.48523 17.4867L0.942761 9.94423C0.688385 9.68986 0.558288 9.35827 0.552452 9.02491C0.547833 8.76119 0.620989 8.49636 0.771916 8.26777C0.82073 8.19384 0.877676 8.1237 0.94276 8.05861L0.944597 8.05678L8.48524 0.516135C9.00594 -0.00456405 9.85016 -0.00456469 10.3709 0.516135Z" fill="#A70032"/>
</svg>
