<svg width="24" height="24" viewBox="0 0 24 24" fill="none" xmlns="http://www.w3.org/2000/svg">
<rect width="24" height="24" rx="12" fill="#A70032"/>
<path fill-rule="evenodd" clip-rule="evenodd" d="M12 6.66666C11.6318 6.66666 11.3334 6.96513 11.3334 7.33332V11.3333H7.33335C6.96516 11.3333 6.66669 11.6318 6.66669 12C6.66669 12.3682 6.96517 12.6667 7.33335 12.6667H11.3334V16.6667C11.3334 17.0348 11.6318 17.3333 12 17.3333C12.3682 17.3333 12.6667 17.0348 12.6667 16.6667V12.6667H16.6667C17.0349 12.6667 17.3334 12.3682 17.3334 12C17.3334 11.6318 17.0349 11.3333 16.6667 11.3333H12.6667V7.33332C12.6667 6.96513 12.3682 6.66666 12 6.66666Z" fill="white"/>
</svg>
