<svg width="24" height="24" viewBox="0 0 24 24" fill="none" xmlns="http://www.w3.org/2000/svg">
<path fill-rule="evenodd" clip-rule="evenodd" d="M14 4H10V5H14V4ZM16 5V4C16 2.89543 15.1046 2 14 2H10C8.89543 2 8 2.89543 8 4V5H7H5C4.44772 5 4 5.44772 4 6C4 6.55228 4.44772 7 5 7V20C5 21.1046 5.89543 22 7 22H17C18.1046 22 19 21.1046 19 20V7C19.5523 7 20 6.55228 20 6C20 5.44772 19.5523 5 19 5H17H16ZM17 7H14H10H7V20H17V7ZM10 18C9.44772 18 9 17.5523 9 17L9 10C9 9.44772 9.44772 9 10 9C10.5523 9 11 9.44772 11 10L11 17C11 17.5523 10.5523 18 10 18ZM13 17C13 17.5523 13.4477 18 14 18C14.5523 18 15 17.5523 15 17V10C15 9.44772 14.5523 9 14 9C13.4477 9 13 9.44772 13 10V17Z" fill="white"/>
</svg>
