<svg width="20" height="20" viewBox="0 0 20 20" fill="none" xmlns="http://www.w3.org/2000/svg">
<path fill-rule="evenodd" clip-rule="evenodd" d="M17 2H3C2.44772 2 2 2.44772 2 3V5H18V3C18 2.44771 17.5523 2 17 2ZM0 5V7V17C0 18.6569 1.34315 20 3 20H17C18.6569 20 20 18.6569 20 17V7V5V3C20 1.34315 18.6569 0 17 0H3C1.34315 0 0 1.34315 0 3V5ZM18 17V7H2V17C2 17.5523 2.44772 18 3 18H17C17.5523 18 18 17.5523 18 17ZM9 11C8.44772 11 8 10.5523 8 10C8 9.44772 8.44771 9 9 9H11.5C11.5323 9 11.5638 9.00306 11.5944 9.0089C11.6373 9.00302 11.681 9 11.7253 9C12.3641 9 12.8253 9.61144 12.6498 10.2257L11.1992 15.3026C11.0813 15.7154 10.704 16 10.2747 16C9.63591 16 9.1747 15.3886 9.35019 14.7743L10.4286 11H9Z" fill="#373C3E"/>
</svg>
