<svg width="18" height="19" viewBox="0 0 18 19" fill="none" xmlns="http://www.w3.org/2000/svg">
<path fill-rule="evenodd" clip-rule="evenodd" d="M9 3.58826C8.58579 3.58826 8.25 3.92404 8.25 4.33826V8.83826H3.75C3.33579 8.83826 3 9.17404 3 9.58826C3 10.0025 3.33579 10.3383 3.75 10.3383H8.25V14.8383C8.25 15.2525 8.58579 15.5883 9 15.5883C9.41421 15.5883 9.75 15.2525 9.75 14.8383V10.3383H14.25C14.6642 10.3383 15 10.0025 15 9.58826C15 9.17404 14.6642 8.83826 14.25 8.83826H9.75V4.33826C9.75 3.92404 9.41421 3.58826 9 3.58826Z" fill="#A70032"/>
</svg>
