<svg width="15" height="18" viewBox="0 0 15 18" fill="none" xmlns="http://www.w3.org/2000/svg">
<path fill-rule="evenodd" clip-rule="evenodd" d="M11.3877 11.3606L7.5 15.239L3.6123 11.3606C1.46518 9.21858 1.46518 5.74571 3.6123 3.6037C5.75942 1.4617 9.24058 1.4617 11.3877 3.6037C13.5348 5.74571 13.5348 9.21858 11.3877 11.3606ZM2.1967 12.7728C-0.732234 9.85086 -0.732233 5.11343 2.1967 2.19147C5.12563 -0.73049 9.87437 -0.73049 12.8033 2.19147C15.7322 5.11343 15.7322 9.85086 12.8033 12.7728L8.46424 17.1016C7.9317 17.6328 7.0683 17.6328 6.53576 17.1016L2.1967 12.7728ZM7.5073 9.98595C8.88937 9.98595 10.0098 8.86823 10.0098 7.48946C10.0098 6.11068 8.88937 4.99296 7.5073 4.99296C6.12524 4.99296 5.00485 6.11068 5.00485 7.48946C5.00485 8.86823 6.12524 9.98595 7.5073 9.98595Z" fill="#6B7476"/>
</svg>
