<svg width="20" height="20" viewBox="0 0 20 20" fill="none" xmlns="http://www.w3.org/2000/svg">
<path fill-rule="evenodd" clip-rule="evenodd" d="M9.99995 3.77505L8.71176 6.56783C8.24562 7.57841 7.28791 8.27423 6.18275 8.40527L3.12858 8.76739L5.38661 10.8555C6.20368 11.6111 6.56949 12.737 6.3526 13.8286L5.75321 16.8452L8.43693 15.3429C9.40805 14.7993 10.5918 14.7993 11.563 15.3429L14.2467 16.8452L13.6473 13.8286C13.4304 12.737 13.7962 11.6112 14.6133 10.8555L16.8713 8.76739L13.8171 8.40527C12.712 8.27423 11.7543 7.57841 11.2881 6.56783L9.99995 3.77505ZM11.0896 1.36242C10.6607 0.432579 9.33918 0.432576 8.91028 1.36242L6.89565 5.73014C6.72084 6.10911 6.3617 6.37004 5.94727 6.41918L1.17077 6.98551C0.153895 7.10607 -0.254486 8.36294 0.497313 9.05818L4.0287 12.3239C4.33511 12.6073 4.47229 13.0295 4.39095 13.4388L3.45354 18.1565C3.25398 19.1609 4.32313 19.9377 5.21666 19.4375L9.41382 17.0881C9.77798 16.8843 10.2219 16.8843 10.5861 17.0881L14.7832 19.4375C15.6768 19.9377 16.7459 19.1609 16.5463 18.1565L15.6089 13.4388C15.5276 13.0295 15.6648 12.6073 15.9712 12.3239L19.5026 9.05818C20.2544 8.36294 19.846 7.10607 18.8291 6.98551L14.0526 6.41918C13.6382 6.37004 13.279 6.10911 13.1042 5.73014L11.0896 1.36242Z" fill="#373C3E"/>
</svg>
