<svg width="18" height="20" viewBox="0 0 18 20" fill="none" xmlns="http://www.w3.org/2000/svg">
<path fill-rule="evenodd" clip-rule="evenodd" d="M7 2C7 0.895431 7.89543 0 9 0C10.1046 0 11 0.895431 11 2C11 2.0964 10.9932 2.1912 10.98 2.28396C13.8818 3.13809 16 5.82167 16 9V16H17C17.5523 16 18 16.4477 18 17C18 17.5523 17.5523 18 17 18H16H11C11 19.1046 10.1046 20 9 20C7.89543 20 7 19.1046 7 18H2H1C0.447716 18 0 17.5523 0 17C0 16.4477 0.447715 16 1 16H2V9C2 5.82167 4.11824 3.13809 7.02 2.28396C7.00682 2.1912 7 2.0964 7 2ZM9 16H14V9C14 6.23858 11.7614 4 9 4C6.23858 4 4 6.23858 4 9V16H9Z" fill="#373C3E"/>
</svg>
