<svg width="32" height="32" viewBox="0 0 32 32" fill="none" xmlns="http://www.w3.org/2000/svg">
<path fill-rule="evenodd" clip-rule="evenodd" d="M14.3709 7.51601C14.8916 8.03671 14.8916 8.88093 14.3709 9.40163L9.10601 14.6665H25.3334C26.0697 14.6665 26.6667 15.2635 26.6667 15.9999C26.6667 16.7363 26.0697 17.3332 25.3334 17.3332H9.10316L14.3709 22.601C14.8916 23.1217 14.8916 23.9659 14.3709 24.4866C13.8502 25.0073 13.006 25.0073 12.4853 24.4866L4.94282 16.9441C4.68845 16.6897 4.55835 16.3581 4.55251 16.0248C4.54789 15.7611 4.62105 15.4962 4.77198 15.2676C4.82079 15.1937 4.87774 15.1236 4.94282 15.0585L4.94466 15.0567L12.4853 7.51601C13.006 6.99531 13.8502 6.99531 14.3709 7.51601Z" fill="white"/>
</svg>
