<svg width="20" height="19" viewBox="0 0 20 19" fill="none" xmlns="http://www.w3.org/2000/svg">
<path d="M10.0394 0.339867C5.05612 0.369127 0.967061 4.50649 0.99627 9.48101C1.02548 14.4555 5.17163 18.5445 10.1549 18.5153C15.1295 18.4861 19.2097 14.3488 19.1805 9.37424C19.1513 4.39972 15.014 0.310658 10.0394 0.339867ZM10.0501 2.15038C14.0842 2.1267 17.3287 5.35086 17.3524 9.38497C17.3761 13.4191 14.1696 16.6723 10.1443 16.696C6.11015 16.7197 2.84805 13.5044 2.81557 9.47033C2.7831 5.43627 6.01595 2.17407 10.0501 2.15038ZM10.093 7.96859C9.60962 7.97143 9.32998 8.24554 9.32418 8.75534L9.21717 12.9836C9.20264 13.5022 9.59157 13.8779 10.1365 13.8747C10.6814 13.8715 11.0572 13.5001 11.0365 12.9817L10.8886 8.74616C10.8681 8.24529 10.5852 7.9657 10.093 7.96859ZM10.0759 5.05067C9.5046 5.05403 9.04122 5.46984 9.04452 6.03233C9.04777 6.58603 9.50722 6.99643 10.0873 6.99302C10.6586 6.98967 11.122 6.57385 11.1187 6.02015C11.1155 5.46645 10.6384 5.04737 10.0759 5.05067Z" fill="#373C3E"/>
</svg>
