<svg width="31" height="33" viewBox="0 0 31 28" fill="none" xmlns="http://www.w3.org/2000/svg">
<path d="M15.0787 0.121872C14.9637 0.193205 11.5722 2.61258 7.54476 5.50751C2.8209 8.90771 0.180382 10.8396 0.107708 10.9585C-0.285948 11.5886 0.477138 12.3852 1.14332 12.0464C1.22811 12.0047 4.4682 9.68643 8.35024 6.89256C12.2323 4.10463 15.4482 1.81603 15.4966 1.81603C15.5451 1.81603 18.8033 4.1284 22.7277 6.952C29.4138 11.7551 29.8862 12.082 30.1466 12.1058C30.8007 12.1593 31.2307 11.4638 30.8673 10.9348C30.7825 10.8099 28.0209 8.78882 23.5817 5.59667C19.6512 2.77308 16.2718 0.353703 16.078 0.228871C15.6601 -0.0386276 15.3936 -0.0683489 15.0787 0.121872Z" fill="#A70032"/>
<path d="M3.78383 12.3021C3.39018 12.5518 3.4144 12.0881 3.39623 19.376C3.38412 23.0199 3.39623 26.1467 3.4144 26.325C3.44468 26.5687 3.49919 26.6876 3.65665 26.86L3.85651 27.074L8.16249 27.0918C12.9227 27.1097 12.7107 27.1216 12.953 26.7292C13.068 26.5449 13.0741 26.4023 13.0741 22.5146C13.0741 19.7624 13.0983 18.3892 13.1407 18.1752C13.4072 16.9388 14.6487 16.1125 15.8963 16.3384C16.8895 16.5167 17.6466 17.2241 17.8525 18.1752C17.8949 18.3892 17.9191 19.7624 17.9191 22.5146C17.9191 26.4023 17.9251 26.5449 18.0402 26.7292C18.2825 27.1216 18.0705 27.1097 22.8307 27.0918L27.1367 27.074L27.3365 26.86C27.494 26.6876 27.5485 26.5687 27.5788 26.325C27.597 26.1467 27.6091 23.0199 27.5969 19.376C27.5788 13.17 27.5727 12.7361 27.4698 12.5577C27.1791 12.0287 26.3494 12.0584 26.0647 12.5994C25.986 12.748 25.9739 13.6396 25.9739 19.1679V25.5582H22.7701H19.5603L19.5361 21.8251C19.5119 17.664 19.5119 17.7056 19.0819 16.8853C18.5368 15.8569 17.5557 15.0841 16.4595 14.8285C15.9448 14.7096 14.9879 14.7156 14.4913 14.8345C13.4072 15.102 12.3534 15.9579 11.8689 16.9566C11.4753 17.7769 11.4813 17.664 11.4571 21.8013L11.4329 25.5582H8.22305H5.0193V19.1679C5.0193 12.1951 5.03747 12.5875 4.68015 12.3081C4.46819 12.1416 4.02608 12.1416 3.78383 12.3021Z" fill="#A70032"/>
</svg>
