<svg width="25" height="33" viewBox="0 0 25 20" fill="none" xmlns="http://www.w3.org/2000/svg">
<path d="M2.4039 0.067667C1.24995 0.38097 0.26937 1.51368 0.0472487 2.78498C0.00390802 3.05008 -0.00692714 5.06245 0.00390803 10.1356L0.0201608 17.1247L0.144765 17.4982C0.491491 18.5285 1.23912 19.3479 2.14927 19.6974L2.51225 19.8359H12.3993H22.2864L22.6494 19.6974C23.5758 19.3419 24.3343 18.4984 24.6539 17.4681L24.7785 17.0644V9.92469V2.78498L24.6539 2.3813C24.3397 1.36908 23.6029 0.537622 22.6765 0.152018L22.3406 0.0134411L12.5077 0.00139046C4.89599 -0.00463486 2.61518 0.00741577 2.4039 0.067667ZM22.1022 1.98364C22.4923 2.12824 22.9095 2.58012 22.9907 2.94163C23.0232 3.08623 22.8228 3.23083 18.1203 6.32772C15.4278 8.09909 13.109 9.59933 12.9682 9.64754C12.6648 9.76804 12.1176 9.77406 11.798 9.66561C11.6625 9.61741 9.35466 8.13524 6.66754 6.36387C1.82422 3.17661 1.77546 3.14648 1.80796 2.97778C1.86756 2.61627 2.26846 2.15837 2.66936 1.98967C2.90773 1.88724 21.8368 1.88121 22.1022 1.98364ZM6.33165 8.33407C8.73164 9.91866 10.8391 11.2803 11.0124 11.3587C11.3754 11.5213 12.0309 11.6659 12.3993 11.6659C12.7406 11.6659 13.4016 11.5274 13.7537 11.3767C14.0734 11.2442 14.3388 11.0695 19.5614 7.58696C21.463 6.32169 23.0286 5.28538 23.0449 5.28538C23.0611 5.28538 23.0666 7.88219 23.0611 11.0514C23.0449 16.492 23.0395 16.8355 22.9474 17.0403C22.8228 17.3235 22.5194 17.6609 22.2648 17.7995C22.0806 17.9019 21.6363 17.9079 12.3993 17.9079C3.16236 17.9079 2.71812 17.9019 2.53392 17.7995C2.27929 17.6609 1.97591 17.3235 1.8513 17.0403C1.75921 16.8355 1.75379 16.492 1.73753 11.0454L1.7267 5.27333L1.84589 5.35768C1.91632 5.40588 3.93166 6.74345 6.33165 8.33407Z" fill="#A70032"/>
</svg>
