<svg width="23" height="33" viewBox="0 0 23 23" fill="none" xmlns="http://www.w3.org/2000/svg">
<path d="M10.129 0C8.12568 0 6.16734 0.594056 4.50163 1.70704C2.83593 2.82003 1.53767 4.40197 0.771029 6.2528C0.00438867 8.10363 -0.196199 10.1402 0.194631 12.1051C0.58546 14.0699 1.55015 15.8747 2.96672 17.2913C4.38329 18.7079 6.1881 19.6726 8.15294 20.0634C10.1178 20.4542 12.1544 20.2536 14.0052 19.487C15.856 18.7203 17.438 17.4221 18.551 15.7564C19.664 14.0907 20.258 12.1323 20.258 10.129C20.255 7.44355 19.1868 4.86896 17.2879 2.97006C15.389 1.07116 12.8145 0.00302757 10.129 0V0ZM10.129 18.3878C8.49558 18.3878 6.89883 17.9034 5.54068 16.9959C4.18253 16.0884 3.12399 14.7986 2.4989 13.2895C1.87381 11.7804 1.71026 10.1198 2.02893 8.5178C2.34759 6.91575 3.13417 5.44418 4.28918 4.28917C5.44419 3.13416 6.91576 2.34759 8.5178 2.02892C10.1198 1.71026 11.7804 1.87381 13.2895 2.49889C14.7986 3.12398 16.0884 4.18253 16.9959 5.54068C17.9034 6.89882 18.3878 8.49557 18.3878 10.129C18.3851 12.3186 17.5142 14.4177 15.9659 15.9659C14.4177 17.5142 12.3186 18.3851 10.129 18.3878Z" fill="#A70032"/>
<path d="M22.7246 21.4021L17.3641 16.0416C17.1887 15.8662 16.9508 15.7677 16.7028 15.7677C16.4547 15.7677 16.2169 15.8662 16.0415 16.0416C15.8661 16.217 15.7676 16.4549 15.7676 16.7029C15.7676 16.9509 15.8661 17.1888 16.0415 17.3642L21.4019 22.7247C21.5773 22.9001 21.8152 22.9986 22.0632 22.9986C22.3113 22.9986 22.5492 22.9001 22.7246 22.7247C22.9 22.5493 22.9985 22.3114 22.9985 22.0634C22.9985 21.8153 22.9 21.5775 22.7246 21.4021Z" fill="#A70032"/>
</svg>
