<svg width="35" height="33" viewBox="0 0 35 31" fill="none" xmlns="http://www.w3.org/2000/svg">
<path d="M4.375 11.75C4.375 9.86438 4.375 8.92157 4.96079 8.33579C5.54657 7.75 6.48938 7.75 8.375 7.75H26.625C28.5106 7.75 29.4534 7.75 30.0392 8.33579C30.625 8.92157 30.625 9.86438 30.625 11.75V14.2083H4.375V11.75Z" stroke="#A70032" stroke-width="2"/>
<path d="M4.26999 11.7774C4.25701 9.87997 4.25051 8.93127 4.83712 8.34063C5.42373 7.75 6.37245 7.75 8.2699 7.75H26.625C28.5106 7.75 29.4534 7.75 30.0392 8.33579C30.625 8.92157 30.625 9.86438 30.625 11.75V23.125C30.625 25.0106 30.625 25.9534 30.0392 26.5392C29.4534 27.125 28.5106 27.125 26.625 27.125H8.34773C6.47388 27.125 5.53695 27.125 4.952 26.544C4.36706 25.9631 4.36065 25.0262 4.34782 23.1524L4.26999 11.7774Z" stroke="#A70032" stroke-width="2"/>
</svg>
