<svg width="26" height="29" viewBox="0 0 26 29" fill="none" xmlns="http://www.w3.org/2000/svg">
<g filter="url(#filter0_d_370_479)">
<path fill-rule="evenodd" clip-rule="evenodd" d="M18 11C18 14.3137 15.3137 17 12 17C8.68629 17 6 14.3137 6 11C6 7.68629 8.68629 5 12 5C15.3137 5 18 7.68629 18 11ZM16.9056 17.3199C15.551 18.3729 13.8487 19 12 19C7.58172 19 4 15.4183 4 11C4 6.58172 7.58172 3 12 3C16.4183 3 20 6.58172 20 11C20 12.8487 19.3729 14.551 18.3199 15.9056L21.1301 18.7159C21.5206 19.1064 21.5206 19.7396 21.1301 20.1301C20.7396 20.5206 20.1064 20.5206 19.7159 20.1301L16.9056 17.3199Z" fill="#A70032"/>
</g>
<defs>
<filter id="filter0_d_370_479" x="-3" y="0" width="32" height="32" filterUnits="userSpaceOnUse" color-interpolation-filters="sRGB">
<feFlood flood-opacity="0" result="BackgroundImageFix"/>
<feColorMatrix in="SourceAlpha" type="matrix" values="0 0 0 0 0 0 0 0 0 0 0 0 0 0 0 0 0 0 127 0" result="hardAlpha"/>
<feOffset dy="4"/>
<feGaussianBlur stdDeviation="2"/>
<feComposite in2="hardAlpha" operator="out"/>
<feColorMatrix type="matrix" values="0 0 0 0 0 0 0 0 0 0 0 0 0 0 0 0 0 0 0.25 0"/>
<feBlend mode="normal" in2="BackgroundImageFix" result="effect1_dropShadow_370_479"/>
<feBlend mode="normal" in="SourceGraphic" in2="effect1_dropShadow_370_479" result="shape"/>
</filter>
</defs>
</svg>
