<svg width="26" height="29" viewBox="0 0 26 29" fill="none" xmlns="http://www.w3.org/2000/svg">
<g filter="url(#filter0_d_305_234)">
<path fill-rule="evenodd" clip-rule="evenodd" d="M17.3886 17.5414L19.3099 18.3099L18.5414 16.3886L19.0389 15.5428C19.6493 14.5052 20 13.2966 20 12C20 8.13401 16.866 5 13 5C9.13401 5 6 8.13401 6 12C6 15.866 9.13401 19 13 19C14.2966 19 15.5052 18.6493 16.5428 18.0389L17.3886 17.5414ZM20.0292 20.108C20.029 20.1077 20.0289 20.1073 20.0287 20.107L20.0292 20.108ZM20.7628 16.5569C21.549 15.2203 22 13.6628 22 12C22 7.02944 17.9706 3 13 3C8.02944 3 4 7.02944 4 12C4 16.9706 8.02944 21 13 21C14.6628 21 16.2203 20.549 17.5569 19.7628L20.3653 20.8861C21.3203 21.2681 22.2681 20.3203 21.8861 19.3653L20.7628 16.5569Z" fill="#A70032"/>
</g>
<defs>
<filter id="filter0_d_305_234" x="-3" y="0" width="32" height="32" filterUnits="userSpaceOnUse" color-interpolation-filters="sRGB">
<feFlood flood-opacity="0" result="BackgroundImageFix"/>
<feColorMatrix in="SourceAlpha" type="matrix" values="0 0 0 0 0 0 0 0 0 0 0 0 0 0 0 0 0 0 127 0" result="hardAlpha"/>
<feOffset dy="4"/>
<feGaussianBlur stdDeviation="2"/>
<feComposite in2="hardAlpha" operator="out"/>
<feColorMatrix type="matrix" values="0 0 0 0 0 0 0 0 0 0 0 0 0 0 0 0 0 0 0.25 0"/>
<feBlend mode="normal" in2="BackgroundImageFix" result="effect1_dropShadow_305_234"/>
<feBlend mode="normal" in="SourceGraphic" in2="effect1_dropShadow_305_234" result="shape"/>
</filter>
</defs>
</svg>
