<svg width="24" height="24" viewBox="0 0 24 24" fill="none" xmlns="http://www.w3.org/2000/svg">
<path fill-rule="evenodd" clip-rule="evenodd" d="M20 20V10.9613L12 4.56128L4 10.9613V20H7V19C7 16.2386 9.23858 14 12 14C14.7614 14 17 16.2386 17 19V20H20ZM2.75061 9.39954C2.27618 9.77909 2 10.3537 2 10.9613V21C2 21.5523 2.44772 22 3 22H8C8.55228 22 9 21.5523 9 21V19C9 17.3432 10.3431 16 12 16C13.6569 16 15 17.3432 15 19V21C15 21.5523 15.4477 22 16 22H21C21.5523 22 22 21.5523 22 21V10.9613C22 10.3537 21.7238 9.77909 21.2494 9.39954L13.2494 2.99954C12.519 2.41519 11.481 2.41519 10.7506 2.99954L2.75061 9.39954Z" fill="#A70032"/>
</svg>
